<svg xmlns="http://www.w3.org/2000/svg" viewBox="0 0 1920 1080">
  <g id="herov2">
    <polygon id="bg3" points="1958.07 699.26 1942.35 401.87 1640.26 381.52 1458.7 444.91 1458.7 535.43 1086.79 528.62 1076.65 466.32 1037.65 451.96 987.57 480.13 987.57 526.8 946.35 526.04 881.65 612.65 878.97 699.26 775.21 699.26 779.39 596.74 763.74 563.99 745.74 563.99 726.96 563.99 572.78 545.09 572.78 459.78 569.65 422.22 561.83 415.96 565.74 380.74 554 371.35 502.35 371.35 502.35 375.26 457.74 371.35 453.04 444.91 453.04 474.65 400.61 467.61 -32.96 415.96 -60.82 699.26 -488.44 699.26 -488.44 1417.7 2166.21 1417.7 2166.21 699.26 1958.07 699.26" fill="#353745"/>
  </g>
</svg>
