<svg xmlns="http://www.w3.org/2000/svg" viewBox="0 0 1920 1080">
  <g id="herov2">
    <path id="bg4" d="M1979.6,712.56l-27.86-208.95-338.09-28.18-66.72,46.92L1530.7,308.74l-480.53-8.61L996,398l-4.09,314.6H968.67c-2.38-11.59-5.37-16.43-5.37-16.43H940c-4.56,0-8.69,5.84-8.8,16.43H815.54c-2.75-11.4-13.45-21.52-13.45-21.52H774.7c-5.08,0-8.12,13.8-9.43,21.52H752.44l7.65-140-29-102.36c.12-4.06.19-6.61.19-7.33-5.09-9-36.39-5.87-36.39-5.87L233.52,391.7,221.78,542.35l-7.94,170.21H-335v620.61H2178.7V712.56Z" fill="#212333"/>
  </g>
</svg>
