<svg xmlns="http://www.w3.org/2000/svg" xmlns:xlink="http://www.w3.org/1999/xlink" viewBox="0 0 1920 1080">
  <defs>
    <linearGradient id="linear-gradient" x1="1563.38" y1="552.43" x2="1723.68" y2="552.43" gradientTransform="matrix(-1, 0, 0, 1, 3468.83, 0)" gradientUnits="userSpaceOnUse">
      <stop offset="0" stop-color="#bcbec0"/>
      <stop offset="1" stop-color="#a6a8ab"/>
    </linearGradient>
    <linearGradient id="linear-gradient-2" x1="1542.07" y1="479.25" x2="2033.52" y2="479.25" xlink:href="#linear-gradient"/>
    <linearGradient id="linear-gradient-3" x1="2032.82" y1="435.16" x2="2088.59" y2="435.16" xlink:href="#linear-gradient"/>
    <linearGradient id="linear-gradient-4" x1="1962.28" y1="585.02" x2="2061.71" y2="585.02" xlink:href="#linear-gradient"/>
  </defs>
  <g id="hero">
    <g id="bg5">
      <path d="M1387,571.17c20.83,32.41,38.19,71.76,38.19,82.17,6.17,8.82,19.08,31.09,48.45,37.08,9.15,1.87,19.91,2.15,32.56,0,0,0,22.18,62.55,43.85,109.43,8.53,18.47,17,34.51,24,43.33,24.76,31.25,192.56,193.27,297.88,212.94h56.7l9.26-1116.91-293.29,10-16.28.56-.16.11c-4.38,3.08-98.24,70-147.4,170-46.87,102.42-50.34,111.1-53.81,131.93s6.94,111.1,10.42,126.72c-13.89-5.2-34.15-19.09-43.41-8.67S1343,492.48,1387,571.17Z" fill="#f0f0f0"/>
      <g>
        <path d="M1887.52,640.61s-36.46,27.19-44,27.19c-9.26.58-48-22-49.76-27.19-1.16-5.79,34.72-109.94,38.77-133.67,0-23.72,4.63-131.93,0-136.56-8.68,11-35.3,61.92-34.14,82.17s-7,153.34-27.78,175.91c-15,23.14-26,92-25.46,101.26,9.84,4,18.52,6.36,23.73,3.47s116.3-47.45,131.93-74.64S1887.52,640.61,1887.52,640.61Z" fill="url(#linear-gradient)"/>
        <path d="M1449.48,370.38c13.9,40.51,10.42,77.54,10.42,110.53,7.81,50.33,38.19,124.12,51.21,144.08-.86,20.83,33,131.93,36.45,140.61,2,5.1,2,18.92,2.48,34.2,8.53,18.47,17,34.51,24,43.33,24.76,31.25,192.56,193.27,297.88,212.94h54.87c-16.92-12-69.17-48.74-81.49-55.26-10.42-4.34-100.13-94.41-100.13-94.41,4,1.54,15.26-.39,27.22-3.66-34.72-10.42-53.81-25.18-85.93-49.48-43.4-33-72-108.49-85.06-140.61-.87-34.72-33-95.48-44.27-109.36-11.28-8.68-28.64-32.12-52.94-69.44s2.6-123.25,10.42-141.48c13-13,155.3-28.64,201.37-28.64-31.25-26-156.24-14.76-171-17.65-7.8-5.5,12.16-28.35,22.58-45.71,5.2-37.33-40.81-34.72-50.32-36.46-6-104.15,26.87-150.16,45.1-193.55,15.17-34.48,63.15-97,82.25-121.21,4.94-6.27,8-10,8-10s109.43-89.27-24.23,10.55l-.16.11c-133.53,99.81-163,231.64-163,231.64s-10.41,13.88-10.41,17.35-11.29,34.72-17.36,45.14C1431.26,262.18,1439.94,329.88,1449.48,370.38Z" fill="url(#linear-gradient-2)"/>
        <path d="M1424.31,392.37s15.06,8.68,11,20.83c-7.52,12.15-29.22,29.51-38.77,29.51a18.73,18.73,0,0,0,0,16.49s-12.15,13.49-13,25c-6.08-19.76-5.49-71.84,17.36-91.8C1423.45,380.22,1419.84,389.05,1424.31,392.37Z" fill="url(#linear-gradient-3)"/>
        <path d="M1435.32,583.32c3.18-7.81,15-10.41,19.38,0-16.5,7.81-6.08,39.06,6.07,53.82s13,26,12.91,42.53q0,6.18,0,10.75c9.15,1.87,19.91,2.15,32.56,0,3.77-20.54-23.72-51.5-24.59-57.57S1466,589.4,1459,576.38,1440.8,480,1440.8,480c-10.41-6.94-22.56,6.08-29.59,22.57C1397.22,545.14,1422.58,576.38,1435.32,583.32Z" fill="url(#linear-gradient-4)"/>
      </g>
    </g>
    <g>
      <circle cx="1652.52" cy="444.2" r="53.41" fill="#1c1a24"/>
      <path d="M1694,423.83a13.68,13.68,0,0,1-16.9,16.35.24.24,0,0,1-.16-.06l-9.55-9.54c-.05-.06-.05-.06-.05-.17l-.17-.49a13.76,13.76,0,1,1,26.83-6.09Z" fill="#f5c217"/>
      <path d="M1667.28,430.47l9.77,9.76c0,.17,0,.28.11.44a13.91,13.91,0,0,1-10.43,16.57,13.81,13.81,0,0,1-6.08-26.94A13,13,0,0,1,1667.28,430.47Z" fill="#1b75bb"/>
    </g>
  </g>
</svg>
