<svg xmlns="http://www.w3.org/2000/svg" viewBox="0 0 1920 1080">
  <g id="herov2">
    <g id="bg6">
      <g id="bg6-2" data-name="bg6">
        <path d="M182.74,572.15q-10-1.64-15.92-4.74V543.13a69.54,69.54,0,0,0,14.73,6.07,53.15,53.15,0,0,0,14.73,2.52q10.07,0,10.07-3c0-.79-.77-1.51-2.29-2.15s-4.37-1.65-8.52-3l-6.66-2.07q-12.58-4.14-17.91-9.77t-5.33-15.54q0-12.59,9.92-19.32t26.79-6.74a100.24,100.24,0,0,1,19,1.78q9.24,1.77,14.43,4.58v24.28a41.5,41.5,0,0,0-12-5.47,47.7,47.7,0,0,0-13.62-2.22q-10.06,0-10.07,3.11c0,1.18,1,2.17,3,3a73.23,73.23,0,0,0,8.89,2.66l6.07,1.78q9.31,3,14.21,6.44A18.44,18.44,0,0,1,239,538.1a30.49,30.49,0,0,1,1.86,11.4q0,11.68-9.63,18t-29.16,6.3A120.73,120.73,0,0,1,182.74,572.15Z" fill="#f5c217"/>
        <path d="M191,610.2q-7.39-4.89-7.4-13.18v-2.37a4,4,0,0,0-.66-2.66,3.2,3.2,0,0,0-2.45-.74h-4.73v-15h22.5c3.45,0,5.85.74,7.18,2.22s2,3.85,2,7.11v7.7a3.07,3.07,0,0,0,3.4,3.4q3.11,0,3.11-3.4v-17h23.69v19.84a16.68,16.68,0,0,1-6.66,13.62q-6.66,5.32-19,5.33Q198.36,615.08,191,610.2Z" fill="#f5c217"/>
        <path d="M195.1,475.32a2.22,2.22,0,0,0-2.52-2.51h-7.4V450.9h18.21q11.85,0,11.84,10.21v3.7h28.28v20.43H195.1Z" fill="#f5c217"/>
        <path d="M250.47,528h33.16l5,20.13a9.41,9.41,0,0,0,5.26-1.85,14.55,14.55,0,0,0,4.59-5.25,16.89,16.89,0,0,0,1.85-8.15,15.13,15.13,0,0,0-5.92-12.51q-5.93-4.65-19.25-4.66a64.28,64.28,0,0,0-13.1,1.48,43.82,43.82,0,0,0-11.47,3.85V495.61a75.84,75.84,0,0,1,15-4,102,102,0,0,1,17.25-1.48q15.69,0,27.46,5a39.8,39.8,0,0,1,18.14,14.43q6.36,9.48,6.37,22.51,0,12.44-6.07,21.39A38.24,38.24,0,0,1,312.57,567a53.41,53.41,0,0,1-22.28,4.59h-29Z" fill="#f5c217"/>
        <path d="M287.63,481.54q-4.29-3.69-4.3-10.66V453.12h29.61V462a2.66,2.66,0,0,0,.82,2.07,3.25,3.25,0,0,0,2.29.74h29.32v20.43h-45Q291.92,485.24,287.63,481.54Z" fill="#f5c217"/>
        <path d="M351.29,527.29l-7.55-13.47a66,66,0,0,1,21.61-17.55,60.51,60.51,0,0,1,27.39-6.14q21,0,32.42,9T436.56,524v47.53H403.25v-45q0-10.66-10.65-10.66a25,25,0,0,0-13,3.26l5,9v43.38H351.29Z" fill="#f5c217"/>
        <path d="M449.15,533.51q0-13.62,4.44-23.4a34.09,34.09,0,0,1,12.21-14.87,31.23,31.23,0,0,1,17.55-5.11,26.77,26.77,0,0,1,9.62,1.7,19.73,19.73,0,0,1,7,4.22q5.32-5.93,17.62-5.92a35.29,35.29,0,0,1,15.69,3.33,26.11,26.11,0,0,1,10.66,9.25A24,24,0,0,1,547.75,516v55.52H514.44V520.63c0-3.16-1.29-4.74-3.85-4.74a3.74,3.74,0,0,0-3.33,1.41,16,16,0,0,0-1.85,4.66H494.9q-1-6.08-4.74-6.07c-2.07,0-3.68,1.48-4.81,4.44s-1.71,7.35-1.71,13.18q0,7.69,3,11.1t11,3.41a22.35,22.35,0,0,0,9.62-2.08v25.47a55.35,55.35,0,0,1-16.28,2.37Q449.14,573.78,449.15,533.51Z" fill="#f5c217"/>
        <path d="M580.61,526.25A10.72,10.72,0,0,0,578,518.7q-2.58-2.81-8.21-2.81a24.94,24.94,0,0,0-12.44,3.26V494.57a36.89,36.89,0,0,1,9.77-3.11,60,60,0,0,1,12-1.33q16.74,0,25.76,8.36t9,24.65v48.42H580.61Z" fill="#f5c217"/>
        <path d="M650.49,569.26A36.42,36.42,0,0,1,635,556.82a31.08,31.08,0,0,1-5.48-18.13V492.35h33.31v42.49q0,6.81,2.44,10t8.66,3.19q6.07,0,8.59-3.19t2.52-10V492.35H718.3v46.34a30.78,30.78,0,0,1-5.55,18.13,37,37,0,0,1-15.62,12.44,56.3,56.3,0,0,1-23.25,4.52Q660.56,573.78,650.49,569.26Z" fill="#f5c217"/>
        <path d="M749,571.85a93.86,93.86,0,0,1-18.14-4.74V524.92H774v18.36H762.42v4.29a31.28,31.28,0,0,0,3.62.67,35.36,35.36,0,0,0,4.82.37q7.7,0,11.54-4.3t3.85-12.43q0-16.14-25.61-16.14a83.25,83.25,0,0,0-15.17,1.41,65,65,0,0,0-13.25,3.77V495.61a75.25,75.25,0,0,1,16-4,129,129,0,0,1,19.7-1.48q15.69,0,27.61,5a42.37,42.37,0,0,1,18.58,14.44q6.66,9.4,6.66,22.28t-5.92,22.43a38,38,0,0,1-17.18,14.43q-11.25,5-26.79,5A127.13,127.13,0,0,1,749,571.85Z" fill="#f5c217"/>
        <path d="M841.55,563.49q-11.17-10.29-11.18-30.43,0-13.47,6.07-23.09a38.82,38.82,0,0,1,17.32-14.73q11.25-5.12,26.65-5.11,24.57,0,36.57,11.1t12,30.5v39.83H895.66v-40q0-7.85-3.48-11.77t-11.62-3.92q-7.11,0-11.4,4.14t-4.29,13q0,15,14.06,15a22.35,22.35,0,0,0,9.62-2.08v25.47a55.35,55.35,0,0,1-16.28,2.37Q852.73,573.78,841.55,563.49Z" fill="#f5c217"/>
        <path d="M949.85,567.19q-8.29-6.59-8.3-19.62t8.74-20.28Q959,520,974.12,520a76,76,0,0,1,12.44,1.11,52.18,52.18,0,0,1,11,2.89V522.7q0-4.14-5.19-6.66t-14.06-2.52a73.31,73.31,0,0,0-14.88,1.55,54.12,54.12,0,0,0-13.1,4.37V496.05q5.18-2.67,14.88-4.29a124.12,124.12,0,0,1,20.65-1.63,47.67,47.67,0,0,1,12.73,1.63l3.85-5.33h35.39l-14.51,17.17a17.51,17.51,0,0,1,5.92,8.37,36.92,36.92,0,0,1,1.63,11.47v48.12H997.52V545.2a23.62,23.62,0,0,0-6.15-2.22,31,31,0,0,0-7-.89c-2.76,0-4.84.5-6.22,1.48s-2.07,2.62-2.07,4.89a4.32,4.32,0,0,0,1.92,4,10.85,10.85,0,0,0,5.63,1.18,18.91,18.91,0,0,0,7-1.33v19.1q-7,2.36-18.06,2.37Q958.13,573.78,949.85,567.19Z" fill="#f5c217"/>
        <path d="M957.84,464.81h45v-15.1h30.35v35.53H957.84Z" fill="#f5c217"/>
      </g>
      <g id="bg6-3" data-name="bg6">
        <path d="M201.37,725.18V679.54a5.81,5.81,0,0,1,1.38-4.33q1.4-1.34,4.83-1.33h10.11q3.44,0,4.83,1.33a5.81,5.81,0,0,1,1.39,4.33v34.31a2.94,2.94,0,0,0,.33,1.72,1.55,1.55,0,0,0,1.22.39h2.33a3.21,3.21,0,0,1,2.45.67,4.77,4.77,0,0,1,.55,2.77v8.77a5,5,0,0,1-.61,2.84,2.8,2.8,0,0,1-2,1,46.4,46.4,0,0,1-4.72.16H208.14Q201.36,732.17,201.37,725.18Z" fill="#f0f0f0"/>
        <path d="M251.83,731.45a4.6,4.6,0,0,1-1.39-2.72l-11.66-51.08a6.49,6.49,0,0,1-.22-1.33c0-1.63,1-2.44,2.89-2.44h12a4.12,4.12,0,0,1,2.94.83,5,5,0,0,1,1.17,2.72L262.32,702l5.89-19.32a5.17,5.17,0,0,1,1.33-2.33,3.67,3.67,0,0,1,2.44-.67h6.56a3.67,3.67,0,0,1,2.44.67,5.17,5.17,0,0,1,1.33,2.33L288.86,702,293,677.43a5,5,0,0,1,1.17-2.72,4.12,4.12,0,0,1,2.94-.83h12c1.85,0,2.78.81,2.78,2.44a5.45,5.45,0,0,1-.12,1.33l-11.65,51.08a4.76,4.76,0,0,1-1.34,2.72,4.35,4.35,0,0,1-2.77.72H285.75a4.21,4.21,0,0,1-2.5-.61A3.9,3.9,0,0,1,282,729.4l-6.78-23.32-6.88,23.32a3.9,3.9,0,0,1-1.28,2.16,4,4,0,0,1-2.38.61h-10A4.63,4.63,0,0,1,251.83,731.45Z" fill="#f0f0f0"/>
        <path d="M250.78,666.05c-.67-.7-1-2.2-1-4.5v-4.22c0-2.29.33-3.79,1-4.49s2.14-1.06,4.44-1.06h12.21v-4.55c0-2,.43-3.37,1.28-4.11a6.09,6.09,0,0,1,4.05-1.11h3.78a6.09,6.09,0,0,1,4,1.11c.85.74,1.28,2.11,1.28,4.11v4.55h5v-4.55c0-2,.43-3.37,1.28-4.11a6.09,6.09,0,0,1,4.05-1.11H296a6.09,6.09,0,0,1,4,1.11c.85.74,1.28,2.11,1.28,4.11V661c0,2.22-.41,3.79-1.22,4.72s-2.41,1.38-4.78,1.38H255.22Q251.77,667.1,250.78,666.05Z" fill="#f0f0f0"/>
        <path d="M285.25,637.13c-.85-.74-1.27-2.19-1.27-4.34V624c0-2.14.42-3.59,1.27-4.33a6.54,6.54,0,0,1,4.28-1.11h5.88a6.74,6.74,0,0,1,4.33,1.11c.89.74,1.34,2.19,1.34,4.33v8.77c0,2.15-.45,3.6-1.34,4.34a6.74,6.74,0,0,1-4.33,1.11h-5.88A6.54,6.54,0,0,1,285.25,637.13Z" fill="#f0f0f0"/>
        <path d="M319.84,711.3v-8.11a5.77,5.77,0,0,1,1.28-4.11c.85-.88,2.31-1.33,4.38-1.33h17.77a4.11,4.11,0,0,1,3.05.89,4.51,4.51,0,0,1,.84,3.11v5.44a4.51,4.51,0,0,1-.84,3.11,4.31,4.31,0,0,1-3.16.89h-3.78V713a4.15,4.15,0,0,0,2.11,3.44q2.11,1.46,6.67,1.45,5.65,0,7.71-3.44t2.06-11.66q0-8.12-3.06-11.33t-10.82-3.22a33.22,33.22,0,0,0-7.72.89,30.83,30.83,0,0,0-6.61,2.33,5.92,5.92,0,0,1-2.22.78q-1.11,0-1.89-1.44L321,682.65a6,6,0,0,1-.78-2.44,2.3,2.3,0,0,1,1.23-2,36,36,0,0,1,11.93-4.44,75.3,75.3,0,0,1,15.6-1.56q31.43,0,31.43,30.54,0,15.43-8.44,23.26t-23.76,7.83Q319.84,733.84,319.84,711.3Z" fill="#f0f0f0"/>
        <path d="M394.57,728.9A17,17,0,0,1,389.35,716q0-10.44,6.88-14.88T416,696.64h13.21v-1.22a6.47,6.47,0,0,0-2.66-5.72q-2.67-1.83-9.67-1.83a36.47,36.47,0,0,0-7.71.83,30.14,30.14,0,0,0-6.61,2.17,5.91,5.91,0,0,1-2.22.77q-1.11,0-1.89-1.44l-5-8.77a3.06,3.06,0,0,1-.56-1.56c0-.66.52-1.29,1.56-1.88a38.5,38.5,0,0,1,11.71-4.28,72.77,72.77,0,0,1,15.16-1.5,32.35,32.35,0,0,1,10.88,1.67,43.7,43.7,0,0,1,8.33-4.44,17.94,17.94,0,0,1,5.88-1.45,5.27,5.27,0,0,1,2.28.56,3.06,3.06,0,0,1,1.16,1.44l3.11,8.55a3.72,3.72,0,0,1,.33,1.44c0,1-.7,1.89-2.1,2.56l-3.67,1.55q3.89,5,3.89,13.44v29.09a5.8,5.8,0,0,1-1.33,4.22c-.89.89-2.41,1.33-4.56,1.33H435.1c-2.15,0-3.67-.44-4.56-1.33a5.76,5.76,0,0,1-1.33-4.22V711.19H417a10.15,10.15,0,0,0-5.17,1,3.72,3.72,0,0,0-1.61,3.44,4.18,4.18,0,0,0,1.17,3.33,5.84,5.84,0,0,0,3.83,1,13,13,0,0,0,4.33-.89,2.57,2.57,0,0,1,.78-.11c.81,0,1.33.52,1.55,1.55l1.67,8.44a3,3,0,0,1,.11.89,1.62,1.62,0,0,1-.45,1.22,4.67,4.67,0,0,1-1.55.89,39.08,39.08,0,0,1-13,1.89Q399.79,733.84,394.57,728.9Z" fill="#f0f0f0"/>
        <path d="M422.77,664.94c-1.33-1.44-2-3.76-2-6.94v-8.33c0-2.14.43-3.59,1.28-4.33a6.51,6.51,0,0,1,4.27-1.11h6.44c2,0,3.43.39,4.28,1.17s1.27,2.2,1.27,4.27v4.55c3.11-.51,7-1,11.72-1.38s8.49-.61,11.38-.61c2.15,0,3.55.33,4.22,1s1,2,1,3.88v4.67c0,2.14-.33,3.57-1,4.27s-2.07,1.05-4.22,1.05H429.65C426.4,667.1,424.1,666.38,422.77,664.94Z" fill="#f0f0f0"/>
        <path d="M478.23,729.62q-5.94-4.22-8.71-12.77l-6-19a8.72,8.72,0,0,1-.55-2.44c0-1,.77-1.81,2.33-2.33l13.32-4.56A7.11,7.11,0,0,1,481,688c1.26,0,2.15,1,2.67,2.89l6.77,21.43a10.17,10.17,0,0,0,2.33,4.33,6.15,6.15,0,0,0,4.22,1.22,5.62,5.62,0,0,0,5.44-3.72q1.67-3.72,1.67-11.83,0-7.44-1.61-10.77a5.47,5.47,0,0,0-5.28-3.33,15.49,15.49,0,0,0-4.55,1.11,3,3,0,0,1-1.33.22c-.82,0-1.44-.55-1.89-1.66l-3.44-9a4.35,4.35,0,0,1-.33-1.44,1.79,1.79,0,0,1,1.33-1.66,31.91,31.91,0,0,1,7.16-2.73,35.78,35.78,0,0,1,8.16-.83q11.44,0,17.71,8t6.28,22.09q0,15.33-8.11,23.43t-22.87,8.11Q484.17,733.84,478.23,729.62Z" fill="#f0f0f0"/>
        <path d="M538.75,730.84a5.93,5.93,0,0,1-1.28-4.22V696.31q0-11.67,7.61-17.88t22.59-6.22q15,0,22.65,6.22T598,696.31v30.31a5.64,5.64,0,0,1-1.38,4.22c-.93.89-2.46,1.33-4.61,1.33H581.22c-2.15,0-3.65-.44-4.5-1.33a5.93,5.93,0,0,1-1.27-4.22V696.75c0-3-.62-5.12-1.84-6.49s-3.2-2.06-5.94-2.06-4.72.69-5.94,2.06-1.83,3.53-1.83,6.49v6.55a7.42,7.42,0,0,1,6-2.66h2.66a2.35,2.35,0,0,1,1.78.5,3.32,3.32,0,0,1,.44,2.05v10.55a3.72,3.72,0,0,1-.5,2.28,2.13,2.13,0,0,1-1.72.61h-3.33a4.93,4.93,0,0,0-3.83,1.66,6.23,6.23,0,0,0-1.5,4.33v4a5.76,5.76,0,0,1-1.33,4.22c-.89.89-2.41,1.33-4.55,1.33H543.24C541.1,732.17,539.6,731.73,538.75,730.84Z" fill="#f0f0f0"/>
        <path d="M630.19,726.07l-.45,3.66c-.22,1.63-1.37,2.44-3.44,2.44h-9.88q-5,0-5-4.88V679.54a6,6,0,0,1,1.33-4.27c.89-.93,2.41-1.39,4.55-1.39h10.78c2.07,0,3.55.46,4.44,1.39a6,6,0,0,1,1.33,4.27V712a5.82,5.82,0,0,0,2.39,4.78,9.27,9.27,0,0,0,5.94,1.89q6.89,0,6.88-6.44V679.54a5.79,5.79,0,0,1,1.39-4.27c.92-.93,2.46-1.39,4.61-1.39h10.77c2.07,0,3.55.46,4.44,1.39a6,6,0,0,1,1.33,4.27v33.53q0,10.33-6,15.55t-16.1,5.22Q637.73,733.84,630.19,726.07Z" fill="#f0f0f0"/>
        <path d="M686.37,730.84a5.76,5.76,0,0,1-1.33-4.22V678.87q0-5,5-5h9.89c2.07,0,3.22.85,3.44,2.55l.44,3.55q7.44-7.77,19.43-7.77,10,0,16,5.28t6,15.6v33.53a5.93,5.93,0,0,1-1.28,4.22c-.85.89-2.35,1.33-4.5,1.33H728.67c-2.14,0-3.68-.44-4.6-1.33a5.6,5.6,0,0,1-1.39-4.22V694q0-6.56-6.89-6.56a9.11,9.11,0,0,0-6.1,1.89,6.12,6.12,0,0,0-2.22,4.89v32.42a5.93,5.93,0,0,1-1.28,4.22c-.85.89-2.35,1.33-4.5,1.33H690.92C688.77,732.17,687.26,731.73,686.37,730.84Z" fill="#f0f0f0"/>
        <path d="M694.7,666.05c-.67-.7-1-2.2-1-4.5v-4.22c0-2.29.33-3.79,1-4.49s2.11-1.06,4.33-1.06h28.53v-4.55c0-2,.43-3.37,1.28-4.11a6.09,6.09,0,0,1,4-1.11h6.89a6.09,6.09,0,0,1,4.05,1.11c.85.74,1.28,2.11,1.28,4.11V661c0,2.22-.41,3.79-1.22,4.72s-2.41,1.38-4.78,1.38H699C696.81,667.1,695.36,666.75,694.7,666.05Z" fill="#f0f0f0"/>
        <path d="M729.06,637.13c-.85-.74-1.27-2.19-1.27-4.34V624c0-2.14.42-3.59,1.27-4.33s2.28-1.11,4.28-1.11h5.88a6.76,6.76,0,0,1,4.33,1.11c.89.74,1.33,2.19,1.33,4.33v8.77c0,2.15-.44,3.6-1.33,4.34a6.76,6.76,0,0,1-4.33,1.11h-5.88C731.34,638.24,729.91,637.87,729.06,637.13Z" fill="#f0f0f0"/>
        <path d="M762.54,726.23q-6.1-7.61-6.11-20.93,0-16,8.61-24.54t25.26-8.55q16.1,0,23.76,6.94t7.66,18.71v28.76a5.76,5.76,0,0,1-1.33,4.22c-.89.89-2.41,1.33-4.55,1.33H805.07c-2.15,0-3.67-.44-4.56-1.33a5.8,5.8,0,0,1-1.33-4.22v-28q0-5.11-2-7.77t-6.83-2.67q-5.89,0-8.72,4.17T778.75,706c0,4.29.54,7.35,1.61,9.16a5.55,5.55,0,0,0,5.16,2.72,10.31,10.31,0,0,0,4.22-.89,2.62,2.62,0,0,1,.78-.11c.81,0,1.33.52,1.56,1.55l2.22,10.44a3,3,0,0,1,.11.89A1.62,1.62,0,0,1,794,731a4.67,4.67,0,0,1-1.55.89,34.64,34.64,0,0,1-5.55,1.5,41,41,0,0,1-7,.5Q768.64,733.84,762.54,726.23Z" fill="#f0f0f0"/>
        <path d="M771.2,666.05c-.67-.7-1-2.2-1-4.5v-4.22c0-2.29.33-3.79,1-4.49s2.11-1.06,4.33-1.06h28.54v-4.55c0-2,.42-3.37,1.27-4.11A6.14,6.14,0,0,1,809.4,642h6.88a6.09,6.09,0,0,1,4.05,1.11c.86.74,1.28,2.11,1.28,4.11V661c0,2.22-.41,3.79-1.22,4.72s-2.41,1.38-4.78,1.38H775.53C773.31,667.1,771.87,666.75,771.2,666.05Z" fill="#f0f0f0"/>
        <path d="M837.6,730.84a5.76,5.76,0,0,1-1.33-4.22V696.31l-2.33-5.89a11.24,11.24,0,0,1-1-4.11,4.76,4.76,0,0,1,2-3.66,44.22,44.22,0,0,1,13.33-7.38,49.55,49.55,0,0,1,17.43-3.06q16.21,0,23.32,6.83t7.11,18.49v29.09a5.76,5.76,0,0,1-1.34,4.22c-.89.89-2.4,1.33-4.55,1.33H879.46c-2.15,0-3.66-.44-4.55-1.33a5.76,5.76,0,0,1-1.33-4.22V697.08c0-3-.62-5.25-1.84-6.66s-3.27-2.11-6.16-2.11q-6.11,0-9.44,2.45l1.22,2.1a11.74,11.74,0,0,1,1.11,2.84,14.2,14.2,0,0,1,.34,3.38v27.54a5.64,5.64,0,0,1-1.39,4.22c-.93.89-2.46,1.33-4.61,1.33H842.15C840,732.17,838.49,731.73,837.6,730.84Z" fill="#f0f0f0"/>
        <path d="M917.93,732.39a34.83,34.83,0,0,1-10.38-4.55,2.36,2.36,0,0,1-1.33-2.11,4.37,4.37,0,0,1,.78-2.33l4.66-8c.67-1.12,1.33-1.67,2-1.67a4.91,4.91,0,0,1,2.11.89,21.73,21.73,0,0,0,5.88,2.55,27,27,0,0,0,6.78.78q6.89,0,10.43-3.33t3.56-11.44q0-8.1-3.39-11.55t-10.16-3.44a24.53,24.53,0,0,0-12.66,3.33,4.74,4.74,0,0,1-2.22.89,2.31,2.31,0,0,1-2-1.55l-4.55-8.11a6,6,0,0,1-.78-2.33,2.75,2.75,0,0,1,1.34-2.11,36.82,36.82,0,0,1,10.38-4.55,52.59,52.59,0,0,1,13.71-1.56q16.1,0,24.43,7.83t8.33,23.15q0,15.21-8.5,22.93t-24.59,7.72A56.51,56.51,0,0,1,917.93,732.39Z" fill="#f0f0f0"/>
        <path d="M942.81,666c-.85-.73-1.28-2.14-1.28-4.21V649c0-2.15.43-3.59,1.28-4.33s2.31-1.11,4.38-1.11h9.44c2.07,0,3.54.37,4.39,1.11s1.27,2.18,1.27,4.33v12.77c0,2.07-.42,3.48-1.27,4.21s-2.32,1.11-4.39,1.11h-9.44Q944.09,667.1,942.81,666Z" fill="#f0f0f0"/>
        <path d="M994.27,727.29V696.53c0-3-.59-5.18-1.78-6.44s-3.1-1.89-5.77-1.89A17.07,17.07,0,0,0,979,690a4,4,0,0,1-2,.66c-.74,0-1.22-.44-1.44-1.33l-2.78-10.55-.22-1.55a1.32,1.32,0,0,1,.28-.89,3.08,3.08,0,0,1,.94-.67,41.52,41.52,0,0,1,17.54-3.44q13,0,19.27,5.55t6.27,17.1v32.43q0,4.88-5.11,4.88H999.38Q994.27,732.17,994.27,727.29Z" fill="#f0f0f0"/>
      </g>
    </g>
  </g>
</svg>
