<svg xmlns="http://www.w3.org/2000/svg" viewBox="0 0 1920 1080">
  <g id="hero">
    <g id="bg6">
      <g id="bg6-2" data-name="bg6">
        <g id="bg6-3" data-name="bg6">
          <path d="M315.85,743.42q5.59-2.71,5.6-8.32a13.16,13.16,0,0,0-2.4-8.24,20.38,20.38,0,0,0-7.2-5.52A156.5,156.5,0,0,0,297,715.26q-12.32-4.63-19-7.92a30,30,0,0,1-10.64-8.4q-4-5.12-4-13.12,0-13.59,12.72-20t32.88-6.4a108.91,108.91,0,0,1,17.6,1.44,92.8,92.8,0,0,1,16,4l-1.28,23h-3.36q-3.19-13.11-10.4-18.56t-17.92-5.44q-8.64,0-13.44,2.8a9.25,9.25,0,0,0-4.8,8.56,10.46,10.46,0,0,0,2.24,6.88,21.32,21.32,0,0,0,7,5.12q4.8,2.4,14.88,6.24a194.72,194.72,0,0,1,20.08,8.64,28.57,28.57,0,0,1,10.24,8.64q3.6,5.13,3.6,13.44,0,8.64-4.16,14.32t-14.8,8.88q-10.64,3.21-29.36,3.2a140,140,0,0,1-18.72-1.36,64.57,64.57,0,0,1-16.16-3.92L267.53,722h3.36q4.16,13.77,11.52,19t18.08,5.2Q310.24,746.14,315.85,743.42Z" fill="#f5c217"/>
          <path d="M268,766.3v-4.8h27.36c3,0,5.1.62,6.32,1.84s1.84,3.28,1.84,6.16v17.76h4.8c3.1,0,5.28-.37,6.56-1.12a4.06,4.06,0,0,0,1.92-3.84V761.5h26.08v17.6q0,5.45-2.32,8.08t-9.44,3.76Q324,792.07,309,792.06a126.36,126.36,0,0,1-31.52-3.52V766.3Z" fill="#f5c217"/>
          <path d="M306.41,638.3H309a28.58,28.58,0,0,0,18.72-6.56A25.31,25.31,0,0,0,337,614.46l21.44,4.64q-3.2,12.81-16.88,19t-32.24,6.24H285.45v-4.16l4.32-.8a22.13,22.13,0,0,0,7.28-2.32,4.35,4.35,0,0,0,2.16-3.92,4.41,4.41,0,0,0-2.64-4.4q-2.64-1.2-9-1.2V615.74a40.41,40.41,0,0,1,13-2.56q7.53,0,11.36,2.8t3.84,9Q315.69,634.79,306.41,638.3Z" fill="#f5c217"/>
          <path d="M367.53,704.86v-4.64h28.32a7.26,7.26,0,0,1,5,1.44,10.08,10.08,0,0,1,2.56,4.64l10.88,38.24q7.37-.79,11-11.2t3.6-29q0-19.51-6.4-28.56t-21-9a64.29,64.29,0,0,0-16.08,2,57.06,57.06,0,0,0-14.16,5.68l-2.88-4.16a85.74,85.74,0,0,1,19-8q10.08-2.88,25.6-2.88,24.16,0,36.88,10.88t12.72,33.12q0,21.29-12,33.28t-35.36,12H386.57l-12.8-43.84Z" fill="#f5c217"/>
          <path d="M477.61,632.54q-20.16,12.81-48.48,12.8-15.84,0-23.2-3.36t-7.36-11.36q0-12,14.24-12a36,36,0,0,1,12.8,2.24v10.88q0,4.32,2.32,6.32c1.55,1.34,4.51,2,8.88,2q22.4,0,38.56-10.56Z" fill="#f5c217"/>
          <path d="M552.17,739.42V683.58a41.55,41.55,0,0,0-1.28-11.76,9.44,9.44,0,0,0-4.64-5.84q-3.36-1.76-9.76-1.76a66.61,66.61,0,0,0-14.4,1.6v75a3.12,3.12,0,0,0,.72,2.4,7.3,7.3,0,0,0,3.12,1.12l5,1v3.36H480.65v-3.36l5.28-1a7.3,7.3,0,0,0,3.12-1.12,3.12,3.12,0,0,0,.72-2.4V698.78A17.56,17.56,0,0,1,493.93,687a21.9,21.9,0,0,1,11.52-6.8v-2.08l-20.64-3.84v-2.56a128.75,128.75,0,0,1,55.36-12.32q23.83,0,34.08,7.12t10.24,21.68v52.64a3.12,3.12,0,0,0,.72,2.4,7.3,7.3,0,0,0,3.12,1.12l5.28,1v3.36h-33Q552.17,748.7,552.17,739.42Z" fill="#f5c217"/>
          <path d="M683.77,669.58q-1.37-2.48-5-2.48a7.3,7.3,0,0,0-5.92,3q-2.4,3-2.4,8.48V682h-5.76v-3.36q0-5.43-2.24-8.48a6.9,6.9,0,0,0-5.76-3q-5.76,0-8.56,8.88t-2.8,28.24q0,18.09,3.44,28.88t14,10.8a17.26,17.26,0,0,0,9.92-3l1.92,3.84a33,33,0,0,1-8.88,4.08,43.94,43.94,0,0,1-12.56,1.52q-20.8,0-31-10.64T612,707.58q0-22.23,10.08-35.2t28-13a22.45,22.45,0,0,1,11.12,2.48,15.49,15.49,0,0,1,6.64,7.92,17.86,17.86,0,0,1,8.48-7.84q5.59-2.55,15-2.56,13.61,0,19.84,6t6.24,18V741a3.12,3.12,0,0,0,.72,2.4,7.3,7.3,0,0,0,3.12,1.12l5.28,1v3.2h-33q-8.49,0-8.48-9.12V677.34C685.13,673.82,684.68,671.24,683.77,669.58Z" fill="#f5c217"/>
          <path d="M769.29,745.34l5.92-1a6,6,0,0,0,3-1,3.48,3.48,0,0,0,.8-2.64V685.34q0-10.56-3.44-14.32t-11.76-3.76q-11.69,0-23.2,7.36l-2.72-4q17-11.19,40.64-11.2,17.59,0,25.2,7t7.6,22.08v52.32a3.12,3.12,0,0,0,.72,2.4,7.3,7.3,0,0,0,3.12,1.12l5.28,1v3.36h-51.2Z" fill="#f5c217"/>
          <path d="M935.69,737.26q-4.49,6.48-15,9.92T892,750.62q-18.09,0-28.64-3.44t-15-9.92q-4.49-6.48-4.48-16.4v-48.8a3.15,3.15,0,0,0-.72-2.4,7.44,7.44,0,0,0-3.12-1.12l-5.28-1v-3.36l38.08-4.8h3.36v66.24a44.81,44.81,0,0,0,1.28,12.24,9.65,9.65,0,0,0,4.72,6.08q3.44,1.85,9.84,1.84t9.84-1.84a9.75,9.75,0,0,0,4.72-6.16,45,45,0,0,0,1.28-12.16v-53.6a3.15,3.15,0,0,0-.72-2.4,7.44,7.44,0,0,0-3.12-1.12l-5.28-1v-3.36l38.08-4.8h3.36v61.44Q940.17,730.79,935.69,737.26Z" fill="#f5c217"/>
          <path d="M1047.53,739q-12.16,11.61-40.16,11.6a91.75,91.75,0,0,1-13-.88q-6.17-.87-15-2.64-9.6-1.76-11.84-2.08V705.34h44.16v4.48H998.57V745.5h5.6q11.52,0,16.64-10.8t5.12-29q0-13-2.4-21.2t-8.4-12.48q-6-4.23-16.56-4.24a52.62,52.62,0,0,0-14.64,1.92,57.51,57.51,0,0,0-13.36,5.92l-2.88-4.16a81.65,81.65,0,0,1,18.72-8.8q9.92-3.2,24.64-3.2,24,0,36.32,11.92t12.32,34.32Q1059.69,727.43,1047.53,739Z" fill="#f5c217"/>
          <path d="M1142.57,740.86l1.92,3.84a33,33,0,0,1-8.88,4.08,43.94,43.94,0,0,1-12.56,1.52q-41.11,0-41.12-41.44,0-25.59,14.48-37.52t39.12-11.92q26.71,0,37.68,7.68t11,22.72V741a3.12,3.12,0,0,0,.72,2.4,7.3,7.3,0,0,0,3.12,1.12l5.28,1v3.2h-33q-8.47,0-8.48-9.12v-56q0-11-3.28-15.2t-11.6-4.16q-9.43,0-14.16,5.28a26.79,26.79,0,0,0-6.16,13.68,127.87,127.87,0,0,0-1.44,21q0,18.4,3.68,29t13.76,10.64A17.26,17.26,0,0,0,1142.57,740.86Z" fill="#f5c217"/>
          <path d="M1251.93,705.26a17.17,17.17,0,0,0-7.92,8.4q-2.25,5.28-2.24,13.92,0,14.56,10.24,14.56a9.13,9.13,0,0,0,5.6-1.92l1.92,3.36q-8.8,7-24,7-26.4,0-26.4-22.08,0-10.39,6.08-17.12t19-10.4q13-3.67,33.92-4.8V685.5q0-10.08-4.64-14.24t-14.08-4.16a63.69,63.69,0,0,0-16.24,1.92,67.22,67.22,0,0,0-14.48,5.76l-2.88-4.16q18.24-11.19,45.6-11.2,14.88,0,24.48,5.12a25.21,25.21,0,0,0,.48-5,21.64,21.64,0,0,0-1.44-8.48h17.76q6.88,0,6.88,6.72,0,9.45-16.16,12.32,7,7.36,7,19.2v51.52a3.12,3.12,0,0,0,.72,2.4,7.3,7.3,0,0,0,3.12,1.12l5.28,1v3.36h-33q-8.49,0-8.48-9.28V701Q1257.61,702.15,1251.93,705.26Z" fill="#f5c217"/>
          <path d="M1213.13,636.7a19.42,19.42,0,0,1,8.48-8.32,37.66,37.66,0,0,1,14.88-4.16l40.64,13.6v-19h24v25.6h-88Z" fill="#f5c217"/>
        </g>
        <g id="bg6-4" data-name="bg6">
          <path d="M270.36,914.73V865.41q0-3.24,1.5-4.68t5.22-1.44H288q3.72,0,5.22,1.44t1.5,4.68v37.08a3.16,3.16,0,0,0,.36,1.86,1.68,1.68,0,0,0,1.32.42h2.52q2,0,2.64.72a5.08,5.08,0,0,1,.6,3V918a5.34,5.34,0,0,1-.66,3.06,3,3,0,0,1-2.16,1.08,49.15,49.15,0,0,1-5.1.18H277.68Q270.36,922.29,270.36,914.73Z" fill="#f0f0f0"/>
          <path d="M324.9,921.51a5,5,0,0,1-1.5-2.94l-12.6-55.2a6.56,6.56,0,0,1-.24-1.44q0-2.64,3.12-2.64h13a4.44,4.44,0,0,1,3.18.9,5.44,5.44,0,0,1,1.26,2.94l5.16,26.52,6.36-20.88a5.64,5.64,0,0,1,1.44-2.52,4,4,0,0,1,2.64-.72h7.08a4,4,0,0,1,2.64.72,5.64,5.64,0,0,1,1.44,2.52l7.08,20.88,4.44-26.52a5.44,5.44,0,0,1,1.26-2.94,4.44,4.44,0,0,1,3.18-.9h13q3,0,3,2.64a6.4,6.4,0,0,1-.12,1.44L377,918.57a5.17,5.17,0,0,1-1.44,2.94,4.72,4.72,0,0,1-3,.78h-11a4.55,4.55,0,0,1-2.7-.66,4.24,4.24,0,0,1-1.38-2.34l-7.32-25.2-7.44,25.2a4.24,4.24,0,0,1-1.38,2.34,4.31,4.31,0,0,1-2.58.66H328A5,5,0,0,1,324.9,921.51Z" fill="#f0f0f0"/>
          <path d="M323.76,850.83q-1.08-1.14-1.08-4.86v-4.56q0-3.72,1.08-4.86t4.8-1.14h13.2v-4.92q0-3.24,1.38-4.44a6.59,6.59,0,0,1,4.38-1.2h4.08a6.59,6.59,0,0,1,4.38,1.2q1.38,1.2,1.38,4.44v4.92h5.4v-4.92q0-3.24,1.38-4.44a6.59,6.59,0,0,1,4.38-1.2h4.08a6.59,6.59,0,0,1,4.38,1.2q1.38,1.2,1.38,4.44v14.88q0,3.6-1.32,5.1t-5.16,1.5H328.56Q324.84,852,323.76,850.83Z" fill="#f0f0f0"/>
          <path d="M361,819.57q-1.38-1.2-1.38-4.68v-9.48q0-3.48,1.38-4.68t4.62-1.2H372q3.24,0,4.68,1.2t1.44,4.68v9.48q0,3.48-1.44,4.68t-4.68,1.2h-6.36Q362.4,820.77,361,819.57Z" fill="#f0f0f0"/>
          <path d="M398.4,899.73V891a6.22,6.22,0,0,1,1.38-4.44q1.38-1.44,4.74-1.44h19.2a4.45,4.45,0,0,1,3.3,1,4.9,4.9,0,0,1,.9,3.36v5.88a4.9,4.9,0,0,1-.9,3.36q-.9,1-3.42,1h-4.08v1.92a4.48,4.48,0,0,0,2.28,3.72q2.28,1.56,7.2,1.56,6.12,0,8.34-3.72t2.22-12.6q0-8.76-3.3-12.24t-11.7-3.48a35.79,35.79,0,0,0-8.34,1,33.17,33.17,0,0,0-7.14,2.52,6.49,6.49,0,0,1-2.4.84q-1.2,0-2-1.56l-5-8.76a6.48,6.48,0,0,1-.84-2.64,2.49,2.49,0,0,1,1.32-2.16,39.21,39.21,0,0,1,12.9-4.8,81.7,81.7,0,0,1,16.86-1.68q34,0,34,33,0,16.68-9.12,25.14T429,924.09Q398.4,924.09,398.4,899.73Z" fill="#f0f0f0"/>
          <path d="M479.16,918.75q-5.64-5.34-5.64-14,0-11.28,7.44-16.08t21.36-4.8H516.6v-1.32q0-4.2-2.88-6.18t-10.44-2a39.15,39.15,0,0,0-8.34.9,32.5,32.5,0,0,0-7.14,2.34,6.49,6.49,0,0,1-2.4.84q-1.2,0-2-1.56l-5.4-9.48a3.3,3.3,0,0,1-.6-1.68q0-1.08,1.68-2a41.7,41.7,0,0,1,12.66-4.62,78.71,78.71,0,0,1,16.38-1.62,34.94,34.94,0,0,1,11.76,1.8,47.72,47.72,0,0,1,9-4.8,19.36,19.36,0,0,1,6.36-1.56,5.63,5.63,0,0,1,2.46.6,3.36,3.36,0,0,1,1.26,1.56l3.36,9.24a4,4,0,0,1,.36,1.56q0,1.68-2.28,2.76l-4,1.68q4.2,5.4,4.2,14.52v31.44a6.24,6.24,0,0,1-1.44,4.56q-1.44,1.44-4.92,1.44H523q-3.48,0-4.92-1.44a6.24,6.24,0,0,1-1.44-4.56V899.61H503.4a11,11,0,0,0-5.58,1.08,4,4,0,0,0-1.74,3.72,4.52,4.52,0,0,0,1.26,3.6,6.34,6.34,0,0,0,4.14,1.08,13.93,13.93,0,0,0,4.68-1A2.66,2.66,0,0,1,507,908q1.32,0,1.68,1.68l1.8,9.12a3.12,3.12,0,0,1,.12,1,1.78,1.78,0,0,1-.48,1.32,5.15,5.15,0,0,1-1.68,1,42.31,42.31,0,0,1-14,2Q484.8,924.09,479.16,918.75Z" fill="#f0f0f0"/>
          <path d="M509.64,849.63q-2.16-2.34-2.16-7.5v-9q0-3.48,1.38-4.68t4.62-1.2h7q3.24,0,4.62,1.26t1.38,4.62v4.92q5-.84,12.66-1.5t12.3-.66q3.48,0,4.56,1.08t1.08,4.2v5q0,3.48-1.08,4.62T551.4,852H517.08Q511.8,852,509.64,849.63Z" fill="#f0f0f0"/>
          <path d="M569.58,919.53q-6.42-4.56-9.42-13.8l-6.48-20.52a9.51,9.51,0,0,1-.6-2.64q0-1.68,2.52-2.52l14.4-4.92a7.46,7.46,0,0,1,2.52-.6q2,0,2.88,3.12l7.32,23.16a10.91,10.91,0,0,0,2.52,4.68,6.61,6.61,0,0,0,4.56,1.32,6.08,6.08,0,0,0,5.88-4q1.8-4,1.8-12.78,0-8-1.74-11.64a5.9,5.9,0,0,0-5.7-3.6,16.75,16.75,0,0,0-4.92,1.2,3.34,3.34,0,0,1-1.44.24q-1.32,0-2-1.8l-3.72-9.72a4.7,4.7,0,0,1-.36-1.56,2,2,0,0,1,1.44-1.8,34.3,34.3,0,0,1,7.74-2.94,38.37,38.37,0,0,1,8.82-.9q12.36,0,19.14,8.64T621.48,890q0,16.56-8.76,25.32T588,924.09Q576,924.09,569.58,919.53Z" fill="#f0f0f0"/>
          <path d="M635,920.85a6.41,6.41,0,0,1-1.38-4.56V883.53q0-12.6,8.22-19.32t24.42-6.72q16.2,0,24.48,6.72T699,883.53v32.76a6.08,6.08,0,0,1-1.5,4.56q-1.5,1.44-5,1.44H680.88q-3.48,0-4.86-1.44a6.41,6.41,0,0,1-1.38-4.56V884q0-4.8-2-7t-6.42-2.22q-4.44,0-6.42,2.22t-2,7v7.08a8,8,0,0,1,6.48-2.88h2.88a2.56,2.56,0,0,1,1.92.54,3.55,3.55,0,0,1,.48,2.22v11.4a4.05,4.05,0,0,1-.54,2.46,2.28,2.28,0,0,1-1.86.66h-3.6a5.32,5.32,0,0,0-4.14,1.8,6.73,6.73,0,0,0-1.62,4.68v4.32a6.24,6.24,0,0,1-1.44,4.56q-1.44,1.44-4.92,1.44H639.84Q636.36,922.29,635,920.85Z" fill="#f0f0f0"/>
          <path d="M733.8,915.69l-.48,4q-.36,2.64-3.72,2.64H718.92q-5.4,0-5.4-5.28v-51.6a6.46,6.46,0,0,1,1.44-4.62q1.44-1.5,4.92-1.5h11.64q3.36,0,4.8,1.5a6.46,6.46,0,0,1,1.44,4.62v35a6.31,6.31,0,0,0,2.58,5.16,10,10,0,0,0,6.42,2q7.44,0,7.44-7V865.41a6.29,6.29,0,0,1,1.5-4.62q1.5-1.5,5-1.5h11.64q3.36,0,4.8,1.5a6.46,6.46,0,0,1,1.44,4.62v36.24q0,11.16-6.48,16.8t-17.4,5.64Q742,924.09,733.8,915.69Z" fill="#f0f0f0"/>
          <path d="M794.52,920.85a6.24,6.24,0,0,1-1.44-4.56v-51.6q0-5.4,5.4-5.4h10.68q3.36,0,3.72,2.76l.48,3.84q8-8.4,21-8.4,10.8,0,17.28,5.7t6.48,16.86v36.24a6.41,6.41,0,0,1-1.38,4.56q-1.38,1.44-4.86,1.44H840.24q-3.48,0-5-1.44a6.08,6.08,0,0,1-1.5-4.56V881q0-7.08-7.44-7.08a9.87,9.87,0,0,0-6.6,2,6.61,6.61,0,0,0-2.4,5.28v35a6.41,6.41,0,0,1-1.38,4.56q-1.38,1.44-4.86,1.44H799.44Q796,922.29,794.52,920.85Z" fill="#f0f0f0"/>
          <path d="M803.52,850.83q-1.08-1.14-1.08-4.86v-4.56q0-3.72,1.08-4.86t4.68-1.14H839v-4.92q0-3.24,1.38-4.44a6.59,6.59,0,0,1,4.38-1.2h7.44a6.59,6.59,0,0,1,4.38,1.2q1.38,1.2,1.38,4.44v14.88q0,3.6-1.32,5.1t-5.16,1.5H808.2Q804.6,852,803.52,850.83Z" fill="#f0f0f0"/>
          <path d="M840.66,819.57q-1.38-1.2-1.38-4.68v-9.48q0-3.48,1.38-4.68t4.62-1.2h6.36q3.24,0,4.68,1.2t1.44,4.68v9.48q0,3.48-1.44,4.68t-4.68,1.2h-6.36Q842,820.77,840.66,819.57Z" fill="#f0f0f0"/>
          <path d="M876.84,915.87q-6.6-8.22-6.6-22.62,0-17.28,9.3-26.52t27.3-9.24q17.4,0,25.68,7.5t8.28,20.22v31.08a6.24,6.24,0,0,1-1.44,4.56q-1.44,1.44-4.92,1.44H922.8q-3.48,0-4.92-1.44a6.24,6.24,0,0,1-1.44-4.56V886.05q0-5.52-2.22-8.4t-7.38-2.88q-6.36,0-9.42,4.5T894.36,894q0,7,1.74,9.9a6,6,0,0,0,5.58,2.94,11.1,11.1,0,0,0,4.56-1,2.66,2.66,0,0,1,.84-.12q1.32,0,1.68,1.68l2.4,11.28a3.12,3.12,0,0,1,.12,1,1.78,1.78,0,0,1-.48,1.32,5.15,5.15,0,0,1-1.68,1,37.1,37.1,0,0,1-6,1.62,43.84,43.84,0,0,1-7.56.54Q883.44,924.09,876.84,915.87Z" fill="#f0f0f0"/>
          <path d="M886.2,850.83q-1.08-1.14-1.08-4.86v-4.56q0-3.72,1.08-4.86t4.68-1.14h30.84v-4.92q0-3.24,1.38-4.44a6.59,6.59,0,0,1,4.38-1.2h7.44a6.59,6.59,0,0,1,4.38,1.2q1.38,1.2,1.38,4.44v14.88q0,3.6-1.32,5.1T934.2,852H890.88Q887.28,852,886.2,850.83Z" fill="#f0f0f0"/>
          <path d="M958,920.85a6.24,6.24,0,0,1-1.44-4.56V883.53L954,877.17a12.21,12.21,0,0,1-1.08-4.44,5.15,5.15,0,0,1,2.16-4,47.92,47.92,0,0,1,14.4-8,53.64,53.64,0,0,1,18.84-3.3q17.52,0,25.2,7.38t7.68,20v31.44a6.24,6.24,0,0,1-1.44,4.56q-1.44,1.44-4.92,1.44H1003.2q-3.48,0-4.92-1.44a6.24,6.24,0,0,1-1.44-4.56V884.37q0-4.92-2-7.2t-6.66-2.28q-6.6,0-10.2,2.64l1.32,2.28a12.75,12.75,0,0,1,1.2,3.06,15.93,15.93,0,0,1,.36,3.66v29.76a6.08,6.08,0,0,1-1.5,4.56q-1.5,1.44-5,1.44H962.88Q959.4,922.29,958,920.85Z" fill="#f0f0f0"/>
          <path d="M1044.78,922.53a37.59,37.59,0,0,1-11.22-4.92,2.55,2.55,0,0,1-1.44-2.28,4.72,4.72,0,0,1,.84-2.52l5-8.64q1.08-1.8,2.16-1.8a5.26,5.26,0,0,1,2.28,1,23.26,23.26,0,0,0,6.36,2.76,29.22,29.22,0,0,0,7.32.84q7.44,0,11.28-3.6t3.84-12.36q0-8.76-3.66-12.48t-11-3.72a26.48,26.48,0,0,0-13.68,3.6,5.23,5.23,0,0,1-2.4,1q-1.32,0-2.16-1.68l-4.92-8.76a6.45,6.45,0,0,1-.84-2.52,3,3,0,0,1,1.44-2.28,40,40,0,0,1,11.22-4.92,57.06,57.06,0,0,1,14.82-1.68q17.4,0,26.4,8.46t9,25q0,16.44-9.18,24.78t-26.58,8.34A60.93,60.93,0,0,1,1044.78,922.53Z" fill="#f0f0f0"/>
          <path d="M1071.66,850.77q-1.38-1.2-1.38-4.56v-13.8q0-3.48,1.38-4.68t4.74-1.2h10.2q3.36,0,4.74,1.2t1.38,4.68v13.8q0,3.36-1.38,4.56t-4.74,1.2h-10.2Q1073,852,1071.66,850.77Z" fill="#f0f0f0"/>
          <path d="M1127.28,917V883.77q0-4.92-1.92-7t-6.24-2a18.52,18.52,0,0,0-8.4,1.92,4.3,4.3,0,0,1-2.16.72q-1.2,0-1.56-1.44l-3-11.4-.24-1.68a1.45,1.45,0,0,1,.3-1,3.19,3.19,0,0,1,1-.72,44.79,44.79,0,0,1,19-3.72q14,0,20.82,6t6.78,18.48v35q0,5.28-5.52,5.28H1132.8Q1127.28,922.29,1127.28,917Z" fill="#f0f0f0"/>
        </g>
      </g>
    </g>
  </g>
</svg>
