<svg xmlns="http://www.w3.org/2000/svg" viewBox="0 0 1920 1080">
  <g id="hero">
    <g id="bg6">
      <g id="bg6-2" data-name="bg6">
        <path d="M290.72,382.42q-11.79-2-18.67-6V349.6A74.53,74.53,0,0,0,289.91,357a67.41,67.41,0,0,0,18,2.9q14.31,0,14.32-5.26,0-2.54-3.62-4.26a112.27,112.27,0,0,0-13.06-4.63c-3.14-1-5.08-1.57-5.8-1.81q-15.42-5.07-22.22-12t-6.79-18.85q0-15.06,11.78-23.12T314.47,282a111.82,111.82,0,0,1,22.31,2.17q10.7,2.17,16.86,5.62v27a49.13,49.13,0,0,0-14.6-6.62,59.91,59.91,0,0,0-16.77-2.63q-14.14,0-14.14,5.63,0,2.71,3.72,4.44a88.11,88.11,0,0,0,12,4.08l7.44,2.17q11.42,3.63,17.59,8a23.61,23.61,0,0,1,8.52,10,35.2,35.2,0,0,1,2.36,13.6q0,13.61-11.52,21.31t-34.54,7.71A137.88,137.88,0,0,1,290.72,382.42Z" fill="#f5c217"/>
        <path d="M302.33,428.48q-8.52-5.81-8.53-15.42V410a5,5,0,0,0-.81-3.26,3.91,3.91,0,0,0-3-.91h-5.8V388.4h25.2q6,0,8.34,2.63c1.57,1.75,2.36,4.57,2.36,8.43v9.61a4.72,4.72,0,0,0,1.36,3.63,5.19,5.19,0,0,0,3.71,1.27q4.72,0,4.72-4.9V388.4H356v23.76A19.57,19.57,0,0,1,348.29,428q-7.69,6.25-21.85,6.26Q310.86,434.28,302.33,428.48Z" fill="#f5c217"/>
        <path d="M306.14,262.93a3.6,3.6,0,0,0-.73-2.45,3.29,3.29,0,0,0-2.54-.82H294V235.55h20.67q13.77,0,13.78,12v4.89h35.35V274.9H306.14Z" fill="#f5c217"/>
        <path d="M374.31,328.39h36.08l6.9,27.38a17.76,17.76,0,0,0,9.15-2.63,19.81,19.81,0,0,0,7.25-7.71,24.24,24.24,0,0,0,2.82-12q0-11.41-6.8-17.4t-24.21-6a89.87,89.87,0,0,0-17.23,1.82,56.84,56.84,0,0,0-14.86,4.71V288.68a88.49,88.49,0,0,1,18-4.9A122.06,122.06,0,0,1,412.39,282q29.91,0,45.78,13.14T474,332.74q0,15-7.34,26.2a46.91,46.91,0,0,1-19.86,16.95,64.26,64.26,0,0,1-27.38,5.81H387.55Z" fill="#f5c217"/>
        <path d="M417.19,270.45q-5-4.44-5-13.14V238.45h32.45V248.6c0,2.54,1.34,3.81,4,3.81h37.72V274.9H432Q422.17,274.9,417.19,270.45Z" fill="#f5c217"/>
        <path d="M495.8,326.39l-9.07-16.14q23-28.28,58.21-28.28,24.84,0,38.35,10.88t13.51,29.91V381.7H560.53V325.48q0-15.23-15.77-15.23-11.43,0-19,5.63l6.53,11.24V381.7H495.8Z" fill="#f5c217"/>
        <path d="M638.59,378.7a42.74,42.74,0,0,1-18-17Q614,350.34,614,334.19q0-16.5,5.26-28.29T633.69,288A36.71,36.71,0,0,1,654.46,282a29.5,29.5,0,0,1,11.78,2.26,22.45,22.45,0,0,1,8.34,5.9,19,19,0,0,1,9.07-6.17,40,40,0,0,1,13.05-2,39.25,39.25,0,0,1,18.13,4,29.05,29.05,0,0,1,12.06,11.15,31.11,31.11,0,0,1,4.26,16.23V381.7H694.71V318.05c0-5.19-1.94-7.8-5.8-7.8a6.06,6.06,0,0,0-5.08,2.09,15.31,15.31,0,0,0-2.54,6.07H668.42q-1.27-8.16-6.71-8.16c-3.15,0-5.62,1.94-7.44,5.81s-2.72,9.91-2.72,18.13q0,10.88,5,16.5t15,5.62a30.5,30.5,0,0,0,12-2.36V381.7a60.39,60.39,0,0,1-19,2.72A56.6,56.6,0,0,1,638.59,378.7Z" fill="#f5c217"/>
        <path d="M776.12,324.58q0-6.88-3.44-10.61c-2.3-2.47-6.11-3.72-11.43-3.72a35.25,35.25,0,0,0-16.49,4.17v-27a47.94,47.94,0,0,1,11.87-3.81A69.65,69.65,0,0,1,771.05,282q20.12,0,30.82,10.24t10.7,30V381.7H776.12Z" fill="#f5c217"/>
        <path d="M858.44,379A43.52,43.52,0,0,1,840,363.93,38.15,38.15,0,0,1,833.42,342v-57.3h36.27v53.49q0,9.06,3.8,13.6t12.69,4.53q8.72,0,12.61-4.53t3.89-13.6V284.69h36.45V342a38.07,38.07,0,0,1-6.53,21.94Q926.08,373.53,914,379t-27.84,5.44Q870.42,384.42,858.44,379Z" fill="#f5c217"/>
        <path d="M977.48,382.06q-13-2.35-21.12-6.17V324.58h50.41v21.94H991v8.16a19,19,0,0,0,5.35,1.45,47.35,47.35,0,0,0,7.16.54q10.89,0,16.5-6.34t5.62-17.95q0-12-7.52-17.14t-25.48-5.17A103.54,103.54,0,0,0,974,311.8a63,63,0,0,0-16.14,5V288.86a95.54,95.54,0,0,1,19-5,139.78,139.78,0,0,1,23.39-1.9q30.28,0,46.6,13.14t16.32,37.27q0,15.94-7.07,27.65a46.5,46.5,0,0,1-20.49,18q-13.42,6.35-32.1,6.35A145.31,145.31,0,0,1,977.48,382.06Z" fill="#f5c217"/>
        <path d="M1101.6,379.07a41.74,41.74,0,0,1-18.14-16.23q-6.7-10.89-6.7-27,0-16.86,7.25-29a46.66,46.66,0,0,1,20.67-18.5q13.42-6.35,31.73-6.34,29.19,0,43.34,13.23t14.14,36.09V381.7h-36.44V331.11q0-10.33-4.81-15.6t-16.05-5.26q-10.15,0-16.23,6.53t-6.07,19q0,10.51,5.44,15.5t14.5,5a30.5,30.5,0,0,0,12-2.36V381.7a60.34,60.34,0,0,1-19,2.72A59.6,59.6,0,0,1,1101.6,379.07Z" fill="#f5c217"/>
        <path d="M1220.91,376.53q-9.79-7.89-9.79-23.85t10.6-24.75q10.6-8.79,29.47-8.79a93,93,0,0,1,15.5,1.36,58.76,58.76,0,0,1,13.51,3.72v-2.36q0-6.71-6.44-10.25t-19.31-3.53a78.29,78.29,0,0,0-17.31,1.9,73.38,73.38,0,0,0-15.33,5.17V289.22q6.35-3.27,17.32-5.26a130.14,130.14,0,0,1,23.3-2,67.21,67.21,0,0,1,18.5,2.35l5.44-6.89h38.8l-17.59,20.49q9.06,10.17,9.06,26.48v57.3H1280.2V348.15a37.22,37.22,0,0,0-8.8-3.17,42.53,42.53,0,0,0-9.88-1.18q-12.87,0-12.87,9.06,0,8.72,11.6,8.71a22.46,22.46,0,0,0,9.07-1.81V381.7q-8.16,2.71-20.85,2.72Q1230.69,384.42,1220.91,376.53Z" fill="#f5c217"/>
        <path d="M1230,252.41h56.4V233.74h33V274.9H1230Z" fill="#f5c217"/>
      </g>
      <g id="bg6-3" data-name="bg6">
        <path d="M288.83,582.94q-4.27-4.56-4.28-12.58V514.74h23.93v49.9c0,2.09.41,3.54,1.23,4.36s2.22,1.22,4.21,1.22h4.76v17.27H301Q293.11,587.49,288.83,582.94Z" fill="#f0f0f0"/>
        <path d="M328.2,514.74h23.94l8.7,40.11,11-40.11h17l11,40.11,8.7-40.11h23.94l-20.27,72.75H391.85l-11.56-40.66-11.43,40.66H348.47Z" fill="#f0f0f0"/>
        <path d="M347.11,491.62h24.2V477.34h16.46v14.28h7.89V477.34h16.45v29.24h-65Z" fill="#f0f0f0"/>
        <path d="M390.35,450.14H412v19.72H390.35Z" fill="#f0f0f0"/>
        <path d="M458,587.7a61.16,61.16,0,0,1-15.29-4.83V544.52h36.17v16H465.83V569a20.23,20.23,0,0,0,4.75,1.36,34.48,34.48,0,0,0,6.12.54q9.53,0,14.35-5.1t4.83-15q0-10.34-5.65-14.89t-19.37-4.55a82,82,0,0,0-14.62,1.36,46.38,46.38,0,0,0-12.45,3.8V518a60.94,60.94,0,0,1,14.28-3.88,109.35,109.35,0,0,1,17.68-1.43q21.63,0,33.19,9.93t11.55,28.15q0,12-5.1,20.67a33.43,33.43,0,0,1-14.95,13.4q-9.87,4.7-23.74,4.69A96.84,96.84,0,0,1,458,587.7Z" fill="#f0f0f0"/>
        <path d="M539.19,583.48q-7.14-6-7.14-17.61,0-11.83,8.1-18.43t22.09-6.6a66.3,66.3,0,0,1,11.91,1.09,47.58,47.58,0,0,1,10.26,3v-2.31q0-6.25-4.49-9.31t-14.82-3.06a62.94,62.94,0,0,0-13.33,1.43,55.59,55.59,0,0,0-11.69,3.74V518a49.26,49.26,0,0,1,12.64-3.81,90.93,90.93,0,0,1,16.73-1.5,48.2,48.2,0,0,1,15.1,2L589,509.3h25.84l-13.19,15.09a19.51,19.51,0,0,1,5,8.5,36.51,36.51,0,0,1,1.63,11v43.65H584.41V561.38a34.26,34.26,0,0,0-16-3.67c-4.07,0-7.05.66-8.9,2s-2.79,3.38-2.79,6.19q0,7.75,10.47,7.75a17.9,17.9,0,0,0,7.21-1.36v15.37q-5.72,1.9-15.78,1.9Q546.33,589.53,539.19,583.48Z" fill="#f0f0f0"/>
        <path d="M567.55,493.38v-12.1H588.9v7.21a3.23,3.23,0,0,0,.75,2.45,3.71,3.71,0,0,0,2.51.68h29.65v15H581.42Q567.54,506.58,567.55,493.38Z" fill="#f0f0f0"/>
        <path d="M624.39,523.85h23.8l15,46.23q8.57,0,13.33-5.64t4.76-16q0-17.13-13.19-17.13a23.2,23.2,0,0,0-8.16,1.36v-18a31.13,31.13,0,0,1,6.32-1.5,50.93,50.93,0,0,1,7.28-.55q16.44,0,24.41,9.25t8,26.52q0,12.24-5.44,21.08a35.3,35.3,0,0,1-14.55,13.4,44.44,44.44,0,0,1-20.13,4.55h-20.8Z" fill="#f0f0f0"/>
        <path d="M720.13,544.11q0-15.51,10.47-23.46t28.15-8q17.82,0,28.22,8t10.4,23.46v43.38H773.44v-43q0-13.2-14.69-13.19t-14.69,13.19v8.7a12.66,12.66,0,0,1,4.63-3.06,16.14,16.14,0,0,1,6.12-1.16h10.06v17.28h-11a10.06,10.06,0,0,0-7.08,2.51,9.09,9.09,0,0,0-2.72,7v11.69H720.13Z" fill="#f0f0f0"/>
        <path d="M847.83,587a31.66,31.66,0,0,1-10.75-7v7.48H814.37V514.74h23.94v47.59a17.87,17.87,0,0,0,6.12,6.46A16.37,16.37,0,0,0,853,570.9q5.85,0,9-2.86c2.09-1.9,3.13-4.76,3.13-8.56V514.74H889V561a32,32,0,0,1-3.26,14.62,24.34,24.34,0,0,1-9.66,10.2,29.93,29.93,0,0,1-15.36,3.74A34.21,34.21,0,0,1,847.83,587Z" fill="#f0f0f0"/>
        <path d="M906,514.74h22.71v7.61a31.9,31.9,0,0,1,11.09-7.14,35.44,35.44,0,0,1,13-2.52q13.88,0,20.88,7.35t7,19.58v47.87H956.76V542.34q0-11-11.29-11a19,19,0,0,0-8.91,2.1,16.73,16.73,0,0,0-6.59,6.46v47.6H906Z" fill="#f0f0f0"/>
        <path d="M915.42,491.62H958.8V477.34h21.62v29.24h-65Z" fill="#f0f0f0"/>
        <path d="M958.66,450.14h21.62v19.72H958.66Z" fill="#f0f0f0"/>
        <path d="M1005,580.42Q995,571.32,995,553.36q0-12.66,5.3-21.76a35.31,35.31,0,0,1,15.1-14q9.79-4.89,23.25-4.9,21.23,0,31.35,9.73t10.13,26v39h-23.93V548.33q0-8.3-4.08-12.65t-13.47-4.35q-8.56,0-13.8,5.71t-5.24,16.32q0,9.24,4.29,13.39t12.85,4.15a26.42,26.42,0,0,0,9.11-1.63v18.36a46.12,46.12,0,0,1-13.73,1.9Q1015.09,589.53,1005,580.42Z" fill="#f0f0f0"/>
        <path d="M1014.83,491.62h43.38V477.34h21.62v29.24h-65Z" fill="#f0f0f0"/>
        <path d="M1100.5,545.06l-6.8-11.83q16.59-20.54,42.3-20.54,18.07,0,27.87,8t9.8,22v44.88h-23.94v-43q0-13.2-13.73-13.19c-6.72,0-12.24,1.86-16.6,5.57l5,8.57v42H1100.5Z" fill="#f0f0f0"/>
        <path d="M1200.05,588a37.87,37.87,0,0,1-12.11-4.48v-18.5q8.58,5.85,22.71,5.85,10.33,0,16.12-4.83t5.78-14.89q0-10.06-5.78-15t-16.12-4.89q-13.86,0-22.16,5.84V518.68a39.27,39.27,0,0,1,12-4.42,73.53,73.53,0,0,1,15.44-1.57q19.44,0,30.32,10.07t10.88,28.42q0,18.23-10.88,28.29T1216,589.53A78.13,78.13,0,0,1,1200.05,588Z" fill="#f0f0f0"/>
        <path d="M1230.37,481.69h23.94v24.89h-23.94Z" fill="#f0f0f0"/>
        <path d="M1291.84,543.43q0-6.12-2.79-9.11t-9.58-3a29.87,29.87,0,0,0-13.47,3.4v-18a36.72,36.72,0,0,1,8.77-2.85,50.8,50.8,0,0,1,10.82-1.23q14.69,0,22.43,7.69t7.76,22.23v44.88h-23.94Z" fill="#f0f0f0"/>
      </g>
    </g>
  </g>
</svg>
