<svg xmlns="http://www.w3.org/2000/svg" viewBox="0 0 1920 1080">
  <g id="hero">
    <g id="bg6">
      <g id="bg6-2" data-name="bg6">
        <path d="M1124.1,755.69a22.31,22.31,0,0,1-7.41-2.38V742.66a29.58,29.58,0,0,0,7.09,3,26.63,26.63,0,0,0,7.16,1.15q5.68,0,5.69-2.08c0-.68-.48-1.24-1.44-1.7a46.26,46.26,0,0,0-5.18-1.83l-2.31-.72q-6.12-2-8.82-4.75a10.22,10.22,0,0,1-2.7-7.49,10.44,10.44,0,0,1,4.68-9.18q4.68-3.21,12.67-3.21a44,44,0,0,1,8.86.87,23.65,23.65,0,0,1,6.7,2.23v10.73a19.21,19.21,0,0,0-5.8-2.63,23.68,23.68,0,0,0-6.66-1c-3.74,0-5.62.75-5.62,2.24,0,.72.5,1.31,1.48,1.76a34.05,34.05,0,0,0,4.79,1.62l3,.86a26.3,26.3,0,0,1,7,3.17,9.38,9.38,0,0,1,3.39,4,14,14,0,0,1,.93,5.4,9.64,9.64,0,0,1-4.57,8.46q-4.57,3.06-13.71,3.06A54.57,54.57,0,0,1,1124.1,755.69Z" fill="#f5c217"/>
        <path d="M1128.71,774a7.1,7.1,0,0,1-3.38-6.12v-1.22a1.94,1.94,0,0,0-.33-1.3,1.55,1.55,0,0,0-1.19-.36h-2.3v-6.91h10a4.29,4.29,0,0,1,3.31,1,4.91,4.91,0,0,1,.94,3.35v3.81a1.86,1.86,0,0,0,.54,1.44,2.05,2.05,0,0,0,1.47.51c1.25,0,1.87-.65,1.87-2v-8.2H1150v9.43a7.78,7.78,0,0,1-3.06,6.3q-3.06,2.48-8.67,2.48Q1132.1,776.28,1128.71,774Z" fill="#f5c217"/>
        <path d="M1130.22,708.24a1.39,1.39,0,0,0-.29-1,1.26,1.26,0,0,0-1-.32h-3.53v-9.58h8.21c3.64,0,5.47,1.58,5.47,4.75v2h14V713h-22.9Z" fill="#f5c217"/>
        <path d="M1157.29,734.23h14.33l2.74,10.88a7,7,0,0,0,3.63-1.05,7.75,7.75,0,0,0,2.88-3.06,9.56,9.56,0,0,0,1.12-4.75c0-3-.9-5.33-2.7-6.91s-5-2.38-9.61-2.38a35.71,35.71,0,0,0-6.84.72,22.89,22.89,0,0,0-5.91,1.87V718.47a35.2,35.2,0,0,1,7.17-2,48.41,48.41,0,0,1,8.31-.72q11.88,0,18.18,5.22t6.3,14.94a18.15,18.15,0,0,1-10.8,17.14,25.43,25.43,0,0,1-10.87,2.3h-12.67Z" fill="#f5c217"/>
        <path d="M1174.32,711.23a6.64,6.64,0,0,1-2-5.22v-7.49h12.89v4a1.37,1.37,0,0,0,1.58,1.52h15V713h-21.6C1177.6,713,1175.64,712.41,1174.32,711.23Z" fill="#f5c217"/>
        <path d="M1205.53,733.44l-3.6-6.41q9.15-11.22,23.12-11.23,9.85,0,15.22,4.32t5.37,11.88v23.4h-14.4V733.08q0-6-6.27-6.05a12.39,12.39,0,0,0-7.56,2.24l2.6,4.46V755.4h-14.48Z" fill="#f5c217"/>
        <path d="M1262.23,754.21a16.91,16.91,0,0,1-7.12-6.76,21.22,21.22,0,0,1-2.63-10.91,27.29,27.29,0,0,1,2.09-11.23,16.14,16.14,0,0,1,5.72-7.1,14.62,14.62,0,0,1,8.24-2.41,11.7,11.7,0,0,1,4.68.9,8.85,8.85,0,0,1,3.32,2.34,7.55,7.55,0,0,1,3.6-2.45,16.05,16.05,0,0,1,5.18-.79,15.53,15.53,0,0,1,7.2,1.59,11.58,11.58,0,0,1,4.79,4.42,12.37,12.37,0,0,1,1.69,6.45V755.4h-14.47V730.13c0-2.06-.77-3.1-2.31-3.1a2.4,2.4,0,0,0-2,.83,6.24,6.24,0,0,0-1,2.41h-5.11q-.51-3.24-2.67-3.24c-1.24,0-2.23.77-3,2.31s-1.08,3.93-1.08,7.2q0,4.32,2,6.55t5.94,2.23a12.19,12.19,0,0,0,4.75-.93v11a23.93,23.93,0,0,1-7.56,1.08A22.38,22.38,0,0,1,1262.23,754.21Z" fill="#f5c217"/>
        <path d="M1316.85,732.72a6,6,0,0,0-1.37-4.21c-.91-1-2.43-1.48-4.54-1.48a14,14,0,0,0-6.55,1.66V718a19.26,19.26,0,0,1,4.72-1.51,27.79,27.79,0,0,1,5.72-.65q8,0,12.24,4.07t4.25,11.92V755.4h-14.47Z" fill="#f5c217"/>
        <path d="M1349.53,754.32a17.31,17.31,0,0,1-7.34-6,15.14,15.14,0,0,1-2.59-8.71V716.88H1354v21.24a8.22,8.22,0,0,0,1.51,5.4q1.52,1.8,5,1.8t5-1.8a8.11,8.11,0,0,0,1.55-5.4V716.88h14.47v22.76a15.14,15.14,0,0,1-2.59,8.71,17.25,17.25,0,0,1-7.38,6,29.27,29.27,0,0,1-22.07,0Z" fill="#f5c217"/>
        <path d="M1396.8,755.55a34.91,34.91,0,0,1-8.38-2.45V732.72h20v8.71h-6.26v3.25a7.33,7.33,0,0,0,2.12.57,19.19,19.19,0,0,0,2.84.22q4.32,0,6.56-2.52c1.48-1.68,2.23-4.06,2.23-7.13s-1-5.44-3-6.81-5.36-2-10.12-2a40.8,40.8,0,0,0-7.41.69,24.46,24.46,0,0,0-6.41,2V718.54a37.39,37.39,0,0,1,7.56-2,55,55,0,0,1,9.29-.76q12,0,18.5,5.22t6.48,14.8a20.76,20.76,0,0,1-2.81,11,18.44,18.44,0,0,1-8.13,7.16,29.59,29.59,0,0,1-12.75,2.52A58,58,0,0,1,1396.8,755.55Z" fill="#f5c217"/>
        <path d="M1446.09,754.36a16.52,16.52,0,0,1-7.2-6.45,20,20,0,0,1-2.67-10.72,22,22,0,0,1,2.88-11.52,18.53,18.53,0,0,1,8.21-7.35,29.2,29.2,0,0,1,12.6-2.52q11.6,0,17.21,5.26t5.61,14.33v20h-14.47V735.31c0-2.73-.63-4.8-1.91-6.19S1463,727,1460,727a8.37,8.37,0,0,0-6.44,2.6q-2.41,2.58-2.41,7.56,0,4.17,2.16,6.15a8.19,8.19,0,0,0,5.76,2,12.23,12.23,0,0,0,4.75-.93v11a26,26,0,0,1-17.71-1Z" fill="#f5c217"/>
        <path d="M1493.46,753.35q-3.89-3.14-3.89-9.47t4.22-9.83q4.2-3.48,11.7-3.49a37,37,0,0,1,6.15.54,23.61,23.61,0,0,1,5.37,1.48v-.94a4.45,4.45,0,0,0-2.56-4.07q-2.55-1.4-7.67-1.4a30.71,30.71,0,0,0-6.87.76,28.65,28.65,0,0,0-6.09,2.05v-10.3a25.4,25.4,0,0,1,6.88-2.09,52.34,52.34,0,0,1,9.25-.79,26.57,26.57,0,0,1,7.34.94l2.16-2.74h15.41l-7,8.14a15.19,15.19,0,0,1,3.6,10.51V755.4H1517V742.08a15.27,15.27,0,0,0-3.5-1.26,17.07,17.07,0,0,0-3.92-.47q-5.11,0-5.11,3.6c0,2.31,1.53,3.46,4.61,3.46a9,9,0,0,0,3.6-.72v8.71a26.69,26.69,0,0,1-8.28,1.08Q1497.35,756.48,1493.46,753.35Z" fill="#f5c217"/>
        <path d="M1497.06,704.07h22.39v-7.42h13.11V713h-35.5Z" fill="#f5c217"/>
      </g>
      <g id="bg6-3" data-name="bg6">
        <path d="M1123.35,835.31a7,7,0,0,1-1.7-5V808.23h9.5v19.82a2.45,2.45,0,0,0,.49,1.73,2.33,2.33,0,0,0,1.67.48h1.9v6.86h-7A6.31,6.31,0,0,1,1123.35,835.31Z" fill="#f0f0f0"/>
        <path d="M1139,808.23h9.51l3.45,15.93,4.38-15.93h6.75l4.37,15.93,3.46-15.93h9.5l-8,28.89h-8.1L1159.67,821l-4.54,16.15H1147Z" fill="#f0f0f0"/>
        <path d="M1146.49,799.05h9.61v-5.67h6.54v5.67h3.13v-5.67h6.53V805h-25.81Z" fill="#f0f0f0"/>
        <path d="M1163.66,782.58h8.59v7.83h-8.59Z" fill="#f0f0f0"/>
        <path d="M1190.53,837.2a23.69,23.69,0,0,1-6.08-1.92V820.06h14.37v6.37h-5.19v3.35a8.76,8.76,0,0,0,1.89.54,13.9,13.9,0,0,0,2.43.21,7.49,7.49,0,0,0,5.7-2q1.92-2,1.92-6,0-4.11-2.24-5.91c-1.5-1.21-4.06-1.81-7.7-1.81a32.62,32.62,0,0,0-5.8.54,18.49,18.49,0,0,0-4.95,1.51v-7.34a24.09,24.09,0,0,1,5.67-1.54,43.18,43.18,0,0,1,7-.57q8.6,0,13.18,3.94t4.59,11.18a16,16,0,0,1-2,8.21,13.3,13.3,0,0,1-5.94,5.32,21.85,21.85,0,0,1-9.43,1.86A37.94,37.94,0,0,1,1190.53,837.2Z" fill="#f0f0f0"/>
        <path d="M1222.77,835.53c-1.89-1.6-2.84-3.94-2.84-7a8.9,8.9,0,0,1,3.21-7.31c2.15-1.75,5.07-2.62,8.78-2.62a25.82,25.82,0,0,1,4.72.43,18.85,18.85,0,0,1,4.08,1.19v-.92a4.16,4.16,0,0,0-1.78-3.7q-1.79-1.22-5.89-1.21a25.7,25.7,0,0,0-5.29.56,22.59,22.59,0,0,0-4.64,1.49v-6.91a19.17,19.17,0,0,1,5-1.52,36.69,36.69,0,0,1,6.64-.59,19.17,19.17,0,0,1,6,.81l1.78-2.16h10.26l-5.24,6a7.8,7.8,0,0,1,2,3.38,14.58,14.58,0,0,1,.64,4.35v17.33h-9.5V826.75a13.65,13.65,0,0,0-6.37-1.46,6.26,6.26,0,0,0-3.54.79,2.78,2.78,0,0,0-1.1,2.45c0,2.06,1.38,3.08,4.15,3.08a7.08,7.08,0,0,0,2.86-.54v6.1a20.3,20.3,0,0,1-6.26.76A11.51,11.51,0,0,1,1222.77,835.53Z" fill="#f0f0f0"/>
        <path d="M1234,799.75V795h8.48v2.86a1.26,1.26,0,0,0,.3,1,1.48,1.48,0,0,0,1,.27h11.77V805h-16Q1234,805,1234,799.75Z" fill="#f0f0f0"/>
        <path d="M1256.6,811.85h9.45l5.94,18.36a6.56,6.56,0,0,0,5.29-2.24,9.59,9.59,0,0,0,1.89-6.35q0-6.79-5.24-6.8a9.25,9.25,0,0,0-3.24.54v-7.13a12.4,12.4,0,0,1,2.51-.59,19.23,19.23,0,0,1,2.89-.22q6.54,0,9.69,3.67t3.16,10.53a15.66,15.66,0,0,1-2.16,8.37,14,14,0,0,1-5.78,5.32,17.54,17.54,0,0,1-8,1.81h-8.26Z" fill="#f0f0f0"/>
        <path d="M1294.61,819.89q0-6.15,4.16-9.31t11.18-3.16q7.07,0,11.2,3.16t4.13,9.31v17.23h-9.5V820.06c0-3.5-1.94-5.24-5.83-5.24s-5.83,1.74-5.83,5.24v3.45a5,5,0,0,1,1.83-1.21,6.37,6.37,0,0,1,2.43-.46h4v6.86H1308a3.94,3.94,0,0,0-2.8,1,3.59,3.59,0,0,0-1.08,2.78v4.64h-9.51Z" fill="#f0f0f0"/>
        <path d="M1345.32,836.93a12.48,12.48,0,0,1-4.27-2.78v3h-9V808.23h9.51v18.9a7.11,7.11,0,0,0,2.43,2.57,6.59,6.59,0,0,0,3.4.83,5.1,5.1,0,0,0,3.56-1.13,4.38,4.38,0,0,0,1.25-3.4V808.23h9.5v18.36a12.64,12.64,0,0,1-1.3,5.81,9.64,9.64,0,0,1-3.83,4.05,12,12,0,0,1-6.1,1.48A13.51,13.51,0,0,1,1345.32,836.93Z" fill="#f0f0f0"/>
        <path d="M1368.43,808.23h9v3a12.67,12.67,0,0,1,4.4-2.83,14,14,0,0,1,5.16-1q5.51,0,8.29,2.92a10.79,10.79,0,0,1,2.78,7.77v19h-9.51V819.19q0-4.37-4.48-4.37a7.49,7.49,0,0,0-3.54.84,6.63,6.63,0,0,0-2.62,2.56v18.9h-9.5Z" fill="#f0f0f0"/>
        <path d="M1372.16,799.05h17.22v-5.67H1398V805h-25.81Z" fill="#f0f0f0"/>
        <path d="M1389.33,782.58h8.59v7.83h-8.59Z" fill="#f0f0f0"/>
        <path d="M1407.74,834.31q-4-3.62-4-10.74a16.91,16.91,0,0,1,2.1-8.64,14,14,0,0,1,6-5.57,20.5,20.5,0,0,1,9.23-1.94c5.62,0,9.76,1.29,12.45,3.86s4,6,4,10.34v15.5h-9.5V821.57a7.06,7.06,0,0,0-1.62-5c-1.08-1.16-2.87-1.73-5.35-1.73a7.06,7.06,0,0,0-5.48,2.27q-2.08,2.26-2.08,6.48c0,2.44.57,4.22,1.7,5.32a7.12,7.12,0,0,0,5.1,1.64,10.33,10.33,0,0,0,3.62-.65v7.29a18.13,18.13,0,0,1-5.45.76Q1411.74,837.93,1407.74,834.31Z" fill="#f0f0f0"/>
        <path d="M1411.63,799.05h17.23v-5.67h8.58V805h-25.81Z" fill="#f0f0f0"/>
        <path d="M1445.65,820.27l-2.7-4.7a20.67,20.67,0,0,1,16.8-8.15q7.17,0,11.07,3.16a10.62,10.62,0,0,1,3.88,8.72v17.82h-9.5V820.06c0-3.5-1.82-5.24-5.45-5.24a9.8,9.8,0,0,0-6.59,2.21l2,3.4v16.69h-9.51Z" fill="#f0f0f0"/>
        <path d="M1485.18,837.34a15,15,0,0,1-4.81-1.79v-7.34a15.73,15.73,0,0,0,9,2.32,9.73,9.73,0,0,0,6.4-1.91q2.3-1.92,2.29-5.92t-2.29-5.94a9.63,9.63,0,0,0-6.4-1.94c-3.67,0-6.61.77-8.8,2.32V809.8a15.72,15.72,0,0,1,4.78-1.76,29.35,29.35,0,0,1,6.13-.62q7.71,0,12,4t4.32,11.28q0,7.24-4.32,11.23t-12,4A31.59,31.59,0,0,1,1485.18,837.34Z" fill="#f0f0f0"/>
        <path d="M1497.22,795.11h9.5V805h-9.5Z" fill="#f0f0f0"/>
        <path d="M1521.63,819.62a4.17,4.17,0,0,0-4.92-4.8,11.87,11.87,0,0,0-5.34,1.35V809a14.31,14.31,0,0,1,3.48-1.13,19.89,19.89,0,0,1,4.29-.49q5.83,0,8.91,3.05c2.06,2,3.08,5,3.08,8.83v17.82h-9.5Z" fill="#f0f0f0"/>
      </g>
    </g>
  </g>
</svg>
