<?xml version="1.0" encoding="utf-8"?>
<!-- Generator: Adobe Illustrator 25.4.1, SVG Export Plug-In . SVG Version: 6.00 Build 0)  -->
<svg version="1.1" xmlns="http://www.w3.org/2000/svg" xmlns:xlink="http://www.w3.org/1999/xlink" x="0px" y="0px"
	 viewBox="0 0 1920 1080" enable-background="new 0 0 1920 1080" xml:space="preserve">
<g id="Layer_1">
	<g id="Layer_3">
	</g>
</g>
<g id="Layer_2">
</g>
<g id="desk_bg">
	
		<linearGradient id="bg1_00000106140360918561356370000001904360698874007735_" gradientUnits="userSpaceOnUse" x1="960" y1="0" x2="960" y2="1080">
		<stop  offset="0" style="stop-color:#F4C21B"/>
		<stop  offset="1" style="stop-color:#F15A29"/>
	</linearGradient>
	<rect id="bg1" fill="url(#bg1_00000106140360918561356370000001904360698874007735_)" width="1920" height="1080"/>
	<g id="bg2" display="none">
		<g display="inline">
			<path fill="#2B2133" d="M273.4,166.5c-1.1-1.1-1.6-2.8-1.6-5.2V112c0-2.3,0.5-4,1.6-5.2c1.1-1.1,2.9-1.7,5.6-1.7h14.3
				c2.7,0,4.6,0.5,5.7,1.6s1.6,2.8,1.6,5.2v35.8h1.6c1.8,0,3.1,0.4,3.8,1.1c0.7,0.7,1,2,1,3.7v10.8c0,1.8-0.3,3-1,3.7
				c-0.7,0.7-1.9,1.1-3.8,1.1h-23.2C276.3,168.2,274.4,167.7,273.4,166.5z"/>
			<path fill="#2B2133" d="M325,163.5c-1.8-1-2.6-1.9-2.6-2.9c0-0.6,0.2-1.2,0.7-2L329,148c0.6-1,1.2-1.4,2-1.4
				c0.6,0,1.4,0.2,2.4,0.7c2.2,1.2,5,2.3,8.2,3.2c3.2,1,6.1,1.4,8.6,1.4c1.8,0,3.1-0.2,3.9-0.6c0.8-0.4,1.1-1.1,1.1-2.2
				c0-1-0.6-1.9-1.7-2.5c-1.2-0.6-3.4-1.5-6.7-2.6l-4.1-1.4c-6.4-2.3-11-5-13.9-7.9c-2.8-3-4.3-6.8-4.3-11.4c0-6.2,2.7-11,8-14.6
				c5.4-3.6,12.5-5.4,21.4-5.4c5.6,0,10.4,0.5,14.3,1.4c4,0.9,7.9,2.4,11.7,4.4c1.7,1,2.5,2,2.5,3c0,0.6-0.3,1.5-1,2.5l-5.8,9.1
				c-0.6,1-1.2,1.4-1.8,1.4c-0.2,0-1-0.3-2.3-0.8c-1.8-0.9-4-1.6-6.4-2.2c-2.4-0.6-4.6-0.9-6.6-0.9c-4.3,0-6.5,0.8-6.5,2.5
				c0,1,0.9,1.9,2.8,2.8c1.9,0.9,4.6,1.9,8.2,3l6.4,2.3c3.8,1.5,6.7,3,8.8,4.6c2.1,1.5,3.5,3.3,4.4,5.3c0.8,2,1.3,4.5,1.3,7.6
				c0,3.8-1.1,7.3-3.3,10.4c-2.2,3.1-5.5,5.6-10,7.5c-4.5,1.9-10.1,2.8-16.8,2.8C342.5,170,332.9,167.8,325,163.5z"/>
			<path fill="#2B2133" d="M325.8,97.1c-0.9-1.1-1.4-2.8-1.4-5.2v-5.5c0-2.4,0.5-4.1,1.4-5.2c0.9-1.1,2.7-1.6,5.2-1.6h9.8v-2.9
				c0-2.6,0.5-4.3,1.6-5.2c1.1-0.9,2.8-1.4,5.2-1.4h4.8c2.4,0,4.1,0.5,5.2,1.4c1.1,0.9,1.6,2.7,1.6,5.2v2.9h3.8v-2.9
				c0-2.6,0.5-4.3,1.6-5.2c1.1-0.9,2.8-1.4,5.2-1.4h4.8c2.4,0,4.1,0.5,5.2,1.4c1.1,0.9,1.6,2.7,1.6,5.2v15.2c0,2.4-0.5,4.1-1.4,5.2
				c-0.9,1.1-2.7,1.6-5.2,1.6h-44C328.5,98.7,326.7,98.2,325.8,97.1z"/>
			<path fill="#2B2133" d="M361.4,64.7c-1.1-0.9-1.6-2.7-1.6-5.2v-9.2c0-2.6,0.5-4.3,1.6-5.2c1.1-0.9,2.8-1.4,5.2-1.4h7.9
				c2.4,0,4.1,0.5,5.2,1.4c1.1,0.9,1.6,2.7,1.6,5.2v9.2c0,2.6-0.5,4.3-1.6,5.2c-1.1,0.9-2.8,1.4-5.2,1.4h-7.9
				C364.3,66.1,362.5,65.6,361.4,64.7z"/>
			<path fill="#2B2133" d="M399.8,145.8v-8.5c0-2.3,0.5-4,1.6-5.2c1.1-1.1,2.9-1.7,5.6-1.7h20.4c1.8,0,3.1,0.4,3.8,1.1
				c0.7,0.7,1,2,1,3.7v7c0,1.8-0.3,3-1,3.7c-0.7,0.7-1.9,1.1-3.8,1.1h-2.9c0,1,0.4,1.8,1.1,2.2c0.8,0.4,2.1,0.7,4.1,0.7
				c2.2,0,4-0.4,5.3-1.1c1.3-0.7,2.3-2.1,2.9-4c0.6-2,1-4.7,1-8.3c0-4.6-0.9-7.9-2.8-9.9c-1.9-2-5.1-2.9-9.8-2.9
				c-2.5,0-5.1,0.3-7.7,1c-2.7,0.7-5,1.5-6.9,2.3c-1.4,0.6-2.4,1-2.8,1c-0.9,0-1.6-0.6-2.3-1.7l-6-10.3c-0.7-1.3-1.1-2.3-1.1-3.1
				c0-1,0.5-1.7,1.4-2.3c3.4-2.2,7.9-4,13.7-5.2c5.8-1.2,11.8-1.9,18-1.9c11.4,0,20.1,2.7,26,8.2c5.9,5.4,8.9,13.7,8.9,24.8
				c0,11-3.1,19.4-9.2,25.1c-6.2,5.7-14.9,8.5-26.3,8.5C410.6,170,399.8,161.9,399.8,145.8z"/>
			<path fill="#2B2133" d="M498.5,165.1c-4.5-3.3-7.7-8-9.7-14l-6.1-19.2c-0.4-1.4-0.6-2.3-0.6-2.9c0-0.7,0.2-1.3,0.7-1.7
				c0.4-0.4,1.1-0.8,2.1-1.1l17.9-6.1c1.2-0.5,2.2-0.7,2.9-0.7c0.7,0,1.3,0.3,1.7,0.8c0.4,0.5,0.9,1.4,1.3,2.6l7.1,22.3
				c0.6,1.7,1.1,2.9,1.7,3.7c0.6,0.8,1.5,1.1,2.7,1.1c1.5,0,2.6-1.1,3.4-3.4c0.7-2.2,1.1-5.8,1.1-10.7c0-4.3-0.4-7.4-1.1-9.4
				s-1.9-2.9-3.6-2.9c-1.4,0-2.8,0.2-4,0.7c-0.6,0.2-1.2,0.4-1.6,0.4c-1,0-1.8-0.7-2.3-2l-4.3-11c-0.3-1-0.5-1.6-0.5-1.9
				c0-0.7,0.5-1.4,1.4-1.9c3-1.6,5.9-2.7,8.5-3.4c2.6-0.6,5.9-1,9.7-1c8.1,0,14.4,2.8,19.1,8.5c4.6,5.7,7,13.6,7,23.9
				c0,11-3.1,19.5-9.3,25.4c-6.2,5.9-14.8,8.8-25.9,8.8C509.5,170,503,168.4,498.5,165.1z"/>
			<path fill="#2B2133" d="M572.5,166.5c-1.1-1.1-1.6-2.8-1.6-5.2V112c0-2.3,0.5-4,1.6-5.2c1.1-1.1,2.9-1.7,5.6-1.7h14.3
				c2.7,0,4.6,0.5,5.7,1.6s1.6,2.8,1.6,5.2v35.8h1.6c1.8,0,3.1,0.4,3.8,1.1c0.7,0.7,1,2,1,3.7v10.8c0,1.8-0.3,3-1,3.7
				c-0.7,0.7-1.9,1.1-3.8,1.1h-23.2C575.5,168.2,573.6,167.7,572.5,166.5z"/>
			<path fill="#2B2133" d="M627,164.4c-3.6-3.8-5.5-8.5-5.5-14.2c0-7.7,2.6-13.2,7.7-16.4c5.1-3.3,12.5-4.9,22.1-4.9h11.8v-0.4
				c0-1.8-1-3.2-3-4.2c-2-1-4.9-1.4-8.6-1.4c-2.7,0-5.4,0.3-8,0.8c-2.6,0.5-4.8,1.2-6.7,2.1c-1.3,0.6-2.2,1-2.9,1
				c-0.7,0-1.4-0.6-2.2-1.7l-6-10.3c-0.6-1.1-0.8-2-0.8-2.5c0-1,0.5-1.7,1.6-2.2c3.6-2.1,8.1-3.7,13.4-4.9
				c5.3-1.2,11.3-1.7,17.8-1.7c11.4,0,19.9,2.4,25.4,7.1c5.5,4.7,8.2,11.7,8.2,20.9v30c0,2.3-0.5,4-1.6,5.2c-1.1,1.1-3,1.7-5.7,1.7
				h-13.7c-2.6,0-4.5-0.6-5.6-1.7c-1.1-1.1-1.6-2.8-1.6-5.2v-14.3h-9.8c-1.8,0-3,0.2-3.8,0.6c-0.8,0.4-1.2,1.1-1.2,2.2
				c0,1.8,1.1,2.8,3.4,2.8c0.7,0,1.9-0.2,3.5-0.7c0.2-0.1,0.4-0.1,0.7-0.1c1,0,1.6,0.6,1.8,1.8l1.7,10.8c0.2,1,0.1,1.8-0.2,2.3
				c-0.3,0.5-1,0.9-2.2,1.3c-4.1,1.4-9,2-14.6,2C635.7,170,630.6,168.1,627,164.4z"/>
			<path fill="#2B2133" d="M639.4,94.9c-3.2-2.8-4.9-6.8-4.9-11.9c0-5.4,1.8-9.6,5.3-12.5c3.5-2.9,8-4.3,13.3-4.3h27.4
				c1,0,1.7,0.2,2,0.5c0.3,0.3,0.5,1,0.5,1.9v8.5c0,1-0.2,1.6-0.5,1.8c-0.3,0.2-1,0.4-2,0.4h-25.3c-3,0-4.4,1.1-4.4,3.4
				c0,2.2,1.2,3.4,3.7,3.4c1.1,0,2-0.2,2.6-0.7c0.6-0.5,0.9-1.1,0.9-1.8c0-1,0.5-1.4,1.4-1.4h8.6c1,0,1.6,0.5,1.6,1.4
				c0,1.7,1,2.5,2.9,2.5h6.6c1,0,1.7,0.2,2,0.5c0.3,0.3,0.5,1,0.5,1.9v8.5c0,1-0.2,1.6-0.5,1.8c-0.3,0.2-1,0.4-2,0.4h-4.9
				c-4.3,0-7.7-1.2-10.2-3.6c-3.3,2.4-7.4,3.6-12.5,3.6C646.6,99.1,642.6,97.7,639.4,94.9z"/>
			<path fill="#2B2133" d="M714.2,166.5c-1.1-1.1-1.6-2.8-1.6-5.2v-31.4l-2.3-6c-0.8-2.1-1.2-3.7-1.2-4.9c0-1.4,0.9-2.9,2.6-4.4
				c3.5-3,8.4-5.7,14.7-7.9c6.3-2.2,12.8-3.3,19.5-3.3c22.7,0,34.1,9.3,34.1,27.8v30.1c0,2.3-0.5,4-1.6,5.2c-1.1,1.1-3,1.7-5.7,1.7
				h-14.3c-2.6,0-4.5-0.6-5.6-1.7c-1.1-1.1-1.6-2.8-1.6-5.2v-30.6c0-2.5-0.4-4.3-1.2-5.4c-0.8-1.1-2.2-1.7-4.2-1.7
				c-2.6,0-4.8,0.5-6.6,1.6l0.7,1.3c1,1.8,1.4,3.8,1.4,6.2v28.6c0,2.3-0.5,4-1.6,5.2c-1.1,1.1-3,1.7-5.7,1.7h-14.3
				C717.2,168.2,715.3,167.7,714.2,166.5z"/>
			<path fill="#2B2133" d="M806.8,164.4c-4.3-3.7-6.5-9.3-6.5-16.9V112c0-2.3,0.5-4,1.6-5.2c1.1-1.1,2.9-1.7,5.6-1.7h14.3
				c2.7,0,4.6,0.5,5.7,1.6s1.6,2.8,1.6,5.2v34.2c0,1.5,0.4,2.7,1.3,3.5c0.9,0.8,2.1,1.2,3.7,1.2c1.7,0,3-0.4,3.8-1.2
				c0.9-0.8,1.3-2,1.3-3.5V112c0-2.3,0.5-4,1.6-5.2c1.1-1.1,2.9-1.7,5.6-1.7h14.3c2.7,0,4.6,0.5,5.7,1.6s1.6,2.8,1.6,5.2v50.2
				c0,2-0.5,3.5-1.6,4.5c-1.1,1-2.6,1.5-4.6,1.5h-13.2c-2.2,0-3.5-0.9-3.8-2.6l-0.5-2c-2.2,1.9-5,3.5-8.4,4.7
				c-3.4,1.2-7.2,1.8-11.6,1.8C817,170,811.1,168.1,806.8,164.4z"/>
			<path fill="#2B2133" d="M834.1,97.1c-0.9-1.1-1.4-2.8-1.4-5.2v-3.6h-4.1c-2.6,0-4.3-0.5-5.2-1.6c-0.9-1.1-1.4-2.8-1.4-5.2v-4.3
				c0-2.4,0.5-4.1,1.4-5.2c0.9-1.1,2.7-1.6,5.2-1.6h15.2c2.6,0,4.3,0.5,5.2,1.6c0.9,1.1,1.4,2.8,1.4,5.2v4.8
				c7.7-1,13.5-1.4,17.5-1.4c1.8,0,3,0.4,3.7,1.1c0.7,0.7,1,1.9,1,3.5v6.8c0,2.4-0.5,4.1-1.4,5.2c-0.9,1.1-2.7,1.6-5.2,1.6h-26.8
				C836.8,98.7,835,98.2,834.1,97.1z"/>
			<path fill="#2B2133" d="M886.1,145.8v-8.5c0-2.3,0.5-4,1.6-5.2c1.1-1.1,2.9-1.7,5.6-1.7h20.4c1.8,0,3.1,0.4,3.8,1.1
				c0.7,0.7,1,2,1,3.7v7c0,1.8-0.3,3-1,3.7c-0.7,0.7-1.9,1.1-3.8,1.1h-2.9c0,1,0.4,1.8,1.1,2.2c0.8,0.4,2.1,0.7,4.1,0.7
				c2.2,0,4-0.4,5.3-1.1c1.3-0.7,2.3-2.1,2.9-4c0.6-2,1-4.7,1-8.3c0-4.6-0.9-7.9-2.8-9.9c-1.9-2-5.1-2.9-9.8-2.9
				c-2.5,0-5.1,0.3-7.7,1c-2.7,0.7-5,1.5-6.9,2.3c-1.4,0.6-2.4,1-2.8,1c-0.9,0-1.6-0.6-2.3-1.7l-6-10.3c-0.7-1.3-1.1-2.3-1.1-3.1
				c0-1,0.5-1.7,1.4-2.3c3.4-2.2,7.9-4,13.7-5.2c5.8-1.2,11.8-1.9,18-1.9c11.4,0,20.1,2.7,26,8.2c5.9,5.4,8.9,13.7,8.9,24.8
				c0,11-3.1,19.4-9.2,25.1c-6.2,5.7-14.9,8.5-26.3,8.5C896.9,170,886.1,161.9,886.1,145.8z"/>
			<path fill="#2B2133" d="M979.3,164.4c-6.5-3.8-9.7-9.1-9.7-16c0-6.6,2.2-11.1,6.7-13.7c-2.2-1.8-3.7-3.7-4.7-5.8
				c-1-2.1-1.5-4.6-1.5-7.7c0-3.4,0.9-6.4,2.6-9.1c1.8-2.7,4.2-4.9,7.3-6.4c3.1-1.6,6.5-2.3,10.4-2.3c3.6,0,6.7,0.3,9.4,0.9
				c2.7,0.6,5.1,1.6,7.3,2.9c0.8,0.5,1.2,1.2,1.2,2c0,0.5-0.1,1.1-0.4,1.8l-2.9,8.8c-0.3,0.9-0.8,1.3-1.3,1.3
				c-0.3,0-0.8-0.1-1.4-0.4c-0.8-0.3-1.4-0.5-1.9-0.5c-0.9,0-1.5,0.4-2,1.1c-0.4,0.7-0.7,1.6-0.7,2.6c0,2.5,1.1,3.7,3.2,3.7h2.3
				c1.8,0,2.8,0.9,2.8,2.8v9.5c0,1.8-0.9,2.8-2.8,2.8h-2.3c-1,0-1.7,0.3-2.3,0.9c-0.6,0.6-0.9,1.5-0.9,2.6c0,2.4,2.1,3.6,6.4,3.6
				c2.5,0,4.3-0.8,5.4-2.3c1.1-1.5,1.7-3.9,1.7-7.1V112c0-2.3,0.5-4,1.6-5.2c1.1-1.1,2.9-1.7,5.6-1.7h13.7c2.7,0,4.6,0.5,5.7,1.6
				s1.6,2.8,1.6,5.2v28.4c0,9-2.6,16.2-7.8,21.5c-5.2,5.3-14.1,8-26.6,8C994.3,170,985.7,168.1,979.3,164.4z"/>
			<path fill="#2B2133" d="M1061.2,166.5c-1.1-1.1-1.7-2.8-1.7-5.2v-50.2c0-2,0.5-3.5,1.6-4.5c1.1-1,2.6-1.5,4.6-1.5h13.2
				c2.1,0,3.4,0.9,3.8,2.6l0.5,2c2.2-1.9,5-3.5,8.4-4.7c3.4-1.2,7.2-1.8,11.6-1.8c7.4,0,13.2,1.9,17.5,5.6c4.3,3.7,6.5,9.3,6.5,16.9
				v35.5c0,2.3-0.5,4-1.6,5.2c-1.1,1.1-2.9,1.7-5.6,1.7h-14.3c-2.6,0-4.5-0.6-5.6-1.7c-1.1-1.1-1.7-2.8-1.7-5.2v-34.2
				c0-1.5-0.4-2.7-1.3-3.5c-0.9-0.8-2.1-1.2-3.7-1.2c-1.7,0-3,0.4-3.8,1.2c-0.9,0.8-1.3,2-1.3,3.5v34.2c0,2.3-0.5,4-1.6,5.2
				c-1.1,1.1-2.9,1.7-5.6,1.7h-14.3C1064.2,168.2,1062.3,167.7,1061.2,166.5z"/>
			<path fill="#2B2133" d="M1071.4,97.1c-0.9-1.1-1.4-2.8-1.4-5.2v-5.5c0-2.4,0.5-4.1,1.4-5.2c0.9-1.1,2.7-1.6,5.2-1.6h28.6v-2.9
				c0-2.6,0.5-4.3,1.6-5.2c1.1-0.9,2.8-1.4,5.2-1.4h8.4c2.4,0,4.1,0.5,5.2,1.4c1.1,0.9,1.6,2.7,1.6,5.2v15.2c0,2.4-0.5,4.1-1.4,5.2
				c-0.9,1.1-2.7,1.6-5.2,1.6h-44C1074,98.7,1072.3,98.2,1071.4,97.1z"/>
			<path fill="#2B2133" d="M1107,64.7c-1.1-0.9-1.6-2.7-1.6-5.2v-9.2c0-2.6,0.5-4.3,1.6-5.2c1.1-0.9,2.8-1.4,5.2-1.4h7.9
				c2.4,0,4.1,0.5,5.2,1.4c1.1,0.9,1.6,2.7,1.6,5.2v9.2c0,2.6-0.5,4.3-1.6,5.2c-1.1,0.9-2.8,1.4-5.2,1.4h-7.9
				C1109.8,66.1,1108.1,65.6,1107,64.7z"/>
			<path fill="#2B2133" d="M1150.8,166.5c-1.1-1.1-1.6-2.8-1.6-5.2v-45.1c0-3.7,0.4-6.7,1.3-9c0.8-2.3,2.6-4.6,5.3-6.7h-11.2
				c-1.8,0-3.1-0.4-3.8-1.1c-0.7-0.7-1-2-1-3.7V84.9c0-1.8,0.3-3,1-3.7c0.7-0.7,1.9-1.1,3.8-1.1h38.2c2.3,0,4,0.4,5,1.3
				c1,0.8,1.5,2.3,1.5,4.4v5.9c0,1.8-0.2,3.1-0.6,4c-0.4,0.9-1,1.8-1.8,2.6c-0.8,0.9-1.4,1.6-1.8,2l-4.9,5.6c-1,1.1-1.6,2.3-1.8,3.4
				c-0.2,1.2-0.4,3.1-0.4,5.7v32.8h1.6c1.8,0,3.1,0.4,3.8,1.1c0.7,0.7,1,2,1,3.7v10.8c0,1.8-0.3,3-1,3.7c-0.7,0.7-1.9,1.1-3.8,1.1
				h-23.2C1153.7,168.2,1151.9,167.7,1150.8,166.5z"/>
			<path fill="#2B2133" d="M1227.3,163.5l-0.5,2c-0.3,1.8-1.6,2.6-3.8,2.6h-13.2c-2,0-3.5-0.5-4.6-1.5c-1.1-1-1.6-2.5-1.6-4.5V112
				c0-2.4,0.6-4.1,1.7-5.2c1.1-1.1,3-1.6,5.6-1.6h14.3c2.6,0,4.5,0.6,5.6,1.7c1.1,1.1,1.6,2.8,1.6,5.2v34.2c0,1.5,0.4,2.7,1.3,3.5
				c0.9,0.8,2.2,1.2,3.8,1.2c1.6,0,2.8-0.4,3.7-1.2c0.9-0.8,1.3-2,1.3-3.5V112c0-2.4,0.6-4.1,1.7-5.2c1.1-1.1,3-1.6,5.6-1.6h14.3
				c2.6,0,4.5,0.6,5.6,1.7c1.1,1.1,1.6,2.8,1.6,5.2v35.5c0,7.5-2.2,13.1-6.5,16.9c-4.4,3.7-10.2,5.6-17.6,5.6
				C1238.8,170,1232.2,167.8,1227.3,163.5z"/>
			<path fill="#2B2133" d="M1245.4,97.3c-1.1-0.9-1.6-2.7-1.6-5.2V77.5c0-2.6,0.5-4.3,1.6-5.2c1.1-0.9,2.8-1.4,5.2-1.4h12.7
				c2.4,0,4.1,0.5,5.2,1.4c1.1,0.9,1.6,2.7,1.6,5.2v14.6c0,2.6-0.5,4.3-1.6,5.2c-1.1,0.9-2.8,1.4-5.2,1.4h-12.7
				C1248.2,98.7,1246.4,98.3,1245.4,97.3z"/>
			<path fill="#2B2133" d="M1293.2,166.5c-1.1-1.1-1.6-2.8-1.6-5.2V112c0-2.3,0.5-4,1.6-5.2c1.1-1.1,2.9-1.7,5.6-1.7h14.3
				c2.7,0,4.6,0.5,5.7,1.6s1.6,2.8,1.6,5.2v35.8h1.6c1.8,0,3.1,0.4,3.8,1.1c0.7,0.7,1,2,1,3.7v10.8c0,1.8-0.3,3-1,3.7
				c-0.7,0.7-1.9,1.1-3.8,1.1h-23.2C1296.2,168.2,1294.3,167.7,1293.2,166.5z"/>
			<path fill="#2B2133" d="M1347.7,164.4c-3.6-3.8-5.5-8.5-5.5-14.2c0-7.7,2.6-13.2,7.7-16.4c5.1-3.3,12.5-4.9,22.1-4.9h11.8v-0.4
				c0-1.8-1-3.2-3-4.2c-2-1-4.9-1.4-8.6-1.4c-2.7,0-5.4,0.3-8,0.8c-2.6,0.5-4.8,1.2-6.7,2.1c-1.3,0.6-2.2,1-2.9,1
				c-0.7,0-1.4-0.6-2.2-1.7l-6-10.3c-0.6-1.1-0.8-2-0.8-2.5c0-1,0.5-1.7,1.6-2.2c3.6-2.1,8.1-3.7,13.4-4.9
				c5.3-1.2,11.3-1.7,17.8-1.7c11.4,0,19.9,2.4,25.4,7.1c5.5,4.7,8.2,11.7,8.2,20.9v30c0,2.3-0.5,4-1.6,5.2c-1.1,1.1-3,1.7-5.7,1.7
				H1391c-2.6,0-4.5-0.6-5.6-1.7c-1.1-1.1-1.6-2.8-1.6-5.2v-14.3h-9.8c-1.8,0-3,0.2-3.8,0.6c-0.8,0.4-1.2,1.1-1.2,2.2
				c0,1.8,1.1,2.8,3.4,2.8c0.7,0,1.9-0.2,3.5-0.7c0.2-0.1,0.4-0.1,0.7-0.1c1,0,1.6,0.6,1.8,1.8l1.7,10.8c0.2,1,0.1,1.8-0.2,2.3
				c-0.3,0.5-1,0.9-2.2,1.3c-4.1,1.4-9,2-14.6,2C1356.4,170,1351.4,168.1,1347.7,164.4z"/>
			<path fill="#2B2133" d="M1360.1,94.9c-3.2-2.8-4.9-6.8-4.9-11.9c0-5.4,1.8-9.6,5.3-12.5c3.5-2.9,8-4.3,13.3-4.3h27.4
				c1,0,1.7,0.2,2,0.5c0.3,0.3,0.5,1,0.5,1.9v8.5c0,1-0.2,1.6-0.5,1.8c-0.3,0.2-1,0.4-2,0.4h-25.3c-3,0-4.4,1.1-4.4,3.4
				c0,2.2,1.2,3.4,3.7,3.4c1.1,0,2-0.2,2.6-0.7c0.6-0.5,0.9-1.1,0.9-1.8c0-1,0.5-1.4,1.4-1.4h8.6c1,0,1.6,0.5,1.6,1.4
				c0,1.7,1,2.5,2.9,2.5h6.6c1,0,1.7,0.2,2,0.5c0.3,0.3,0.5,1,0.5,1.9v8.5c0,1-0.2,1.6-0.5,1.8c-0.3,0.2-1,0.4-2,0.4h-4.9
				c-4.3,0-7.7-1.2-10.2-3.6c-3.3,2.4-7.4,3.6-12.5,3.6C1367.3,99.1,1363.3,97.7,1360.1,94.9z"/>
			<path fill="#2B2133" d="M1435,166.5c-1.1-1.1-1.6-2.8-1.6-5.2v-31.4l-2.3-6c-0.8-2.1-1.2-3.7-1.2-4.9c0-1.4,0.9-2.9,2.6-4.4
				c3.5-3,8.4-5.7,14.7-7.9c6.3-2.2,12.8-3.3,19.5-3.3c22.7,0,34.1,9.3,34.1,27.8v30.1c0,2.3-0.5,4-1.6,5.2c-1.1,1.1-3,1.7-5.7,1.7
				h-14.3c-2.6,0-4.5-0.6-5.6-1.7c-1.1-1.1-1.6-2.8-1.6-5.2v-30.6c0-2.5-0.4-4.3-1.2-5.4c-0.8-1.1-2.2-1.7-4.2-1.7
				c-2.6,0-4.8,0.5-6.6,1.6l0.7,1.3c1,1.8,1.4,3.8,1.4,6.2v28.6c0,2.3-0.5,4-1.6,5.2c-1.1,1.1-3,1.7-5.7,1.7h-14.3
				C1437.9,168.2,1436,167.7,1435,166.5z"/>
			<path fill="#2B2133" d="M274.8,314.4c-3.6-3.8-5.5-8.5-5.5-14.2c0-7.7,2.6-13.2,7.7-16.4c5.1-3.3,12.5-4.9,22.1-4.9l11.8-0.4
				c0-1.8-1-3.2-3-4.2c-2-1-4.9-1.4-8.6-1.4c-2.7,0-5.4,0.3-8,0.8c-2.6,0.5-4.8,1.2-6.7,2.1c-1.3,0.6-2.2,1-2.9,1
				c-0.7,0-1.4-0.6-2.2-1.7l-6-10.3c-0.6-1.1-0.8-2-0.8-2.5c0-1,0.5-1.7,1.6-2.2c3.6-2.1,8.1-3.7,13.4-4.9
				c5.3-1.2,11.3-1.7,17.8-1.7c4.4,0,8.1,0.4,11,1.3c2.2-1.3,4.4-2.4,6.6-3.4c2.2-1,4.1-1.7,5.5-2.1c1.8-0.4,3-0.6,3.8-0.6
				c2,0,3.3,0.9,4,2.6l4,10.7c0.2,0.7,0.4,1.3,0.4,1.8c0,1.4-0.9,2.5-2.6,3.2l-2.3,1c1.2,2,2,4.1,2.5,6.4c0.5,2.2,0.7,5,0.7,8.3
				v28.8c0,2.3-0.5,4-1.6,5.2c-1.1,1.1-3,1.7-5.7,1.7h-13.7c-2.6,0-4.5-0.6-5.6-1.7c-1.1-1.1-1.6-2.8-1.6-5.2v-14.3H301
				c-1.8,0-3,0.2-3.8,0.6c-0.8,0.4-1.2,1.1-1.2,2.2c0,1.8,1.1,2.8,3.4,2.8c0.7,0,1.9-0.2,3.5-0.7c0.2-0.1,0.4-0.1,0.7-0.1
				c1,0,1.6,0.6,1.8,1.8l1.7,10.8c0.2,1,0.1,1.8-0.2,2.3c-0.3,0.5-1,0.9-2.2,1.3c-4.1,1.4-9,2-14.6,2
				C283.5,320,278.4,318.1,274.8,314.4z"/>
			<path fill="#2B2133" d="M311.6,245.2c-3.1-2.9-4.6-6.8-4.6-11.7c0-4.9,1.5-8.8,4.6-11.8c3.1-3,7.2-4.4,12.3-4.4
				c5.1,0,9.2,1.5,12.4,4.4c3.1,3,4.7,6.9,4.7,11.8c0,4.9-1.6,8.8-4.7,11.7c-3.1,2.9-7.2,4.4-12.4,4.4
				C318.8,249.6,314.7,248.1,311.6,245.2z M326.8,236.2c0.8-0.7,1.1-1.6,1.1-2.8c0-1.1-0.4-2-1.1-2.8c-0.8-0.7-1.7-1.1-2.8-1.1
				c-1.1,0-2.1,0.4-2.9,1.1c-0.8,0.7-1.2,1.6-1.2,2.8c0,1.1,0.4,2,1.2,2.8c0.8,0.7,1.8,1.1,2.9,1.1C325.1,237.3,326,237,326.8,236.2
				z"/>
			<path fill="#2B2133" d="M378.6,316.7c-1.1-1-1.6-2.5-1.6-4.5v-31c0-2.9-0.5-4.9-1.4-6c-1-1.1-2.6-1.7-4.9-1.7
				c-2.2,0-4.4,0.6-6.8,1.9c-1.1,0.6-1.9,0.8-2.4,0.8c-0.9,0-1.4-0.5-1.7-1.4l-3.5-14.2c-0.2-1-0.4-1.6-0.4-2c0-0.6,0.4-1.2,1.3-1.6
				c2.7-1.2,5.6-2.1,8.6-2.8c3-0.6,6.6-1,10.7-1c10.1,0,17.5,2.1,22.2,6.2c4.7,4.2,7.1,10.6,7.1,19.2v33.4c0,2-0.5,3.5-1.6,4.5
				c-1.1,1-2.6,1.5-4.6,1.5h-16.3C381.2,318.2,379.7,317.7,378.6,316.7z"/>
			<path fill="#2B2133" d="M427.7,316.5c-1.1-1.1-1.6-2.8-1.6-5.2V262c0-2.3,0.5-4,1.6-5.2c1.1-1.1,2.9-1.7,5.6-1.7h14.2
				c2.7,0,4.6,0.6,5.8,1.7c1.1,1.1,1.7,2.8,1.7,5.2v10.3h4.3c1.5,0,2.6-0.4,3.2-1.1c0.6-0.8,0.9-2,0.9-3.7V262c0-2.3,0.5-4,1.6-5.2
				c1.1-1.1,2.9-1.7,5.6-1.7h14.3c2.7,0,4.6,0.5,5.7,1.6c1.1,1.1,1.6,2.8,1.6,5.2v6.2c0,3-0.5,5.5-1.6,7.7c-1.1,2.2-2.9,4-5.5,5.5
				c4.7,2.4,7.1,6.8,7.1,13.3v16.6c0,2.3-0.5,4-1.6,5.2c-1.1,1.1-3,1.7-5.7,1.7h-14.3c-2.6,0-4.5-0.6-5.6-1.7
				c-1.1-1.1-1.6-2.8-1.6-5.2v-14.2c0-1.5-0.3-2.6-0.8-3.4c-0.6-0.7-1.6-1.1-3.1-1.1h-4.4v18.6c0,2.3-0.6,4-1.7,5.2
				c-1.1,1.1-3,1.7-5.8,1.7h-14.2C430.6,318.2,428.8,317.7,427.7,316.5z"/>
			<path fill="#2B2133" d="M512.6,313.5c-1.8-1-2.6-1.9-2.6-2.9c0-0.6,0.2-1.2,0.7-2l5.9-10.6c0.6-1,1.2-1.4,2-1.4
				c0.6,0,1.4,0.2,2.4,0.7c2.2,1.2,5,2.3,8.2,3.2c3.2,1,6.1,1.4,8.6,1.4c1.8,0,3.1-0.2,3.9-0.6c0.8-0.4,1.1-1.1,1.1-2.2
				c0-1-0.6-1.9-1.7-2.5c-1.2-0.6-3.4-1.5-6.7-2.6l-4.1-1.4c-6.4-2.3-11-5-13.9-7.9c-2.8-3-4.3-6.8-4.3-11.4c0-6.2,2.7-11,8-14.6
				c5.4-3.6,12.5-5.4,21.4-5.4c5.6,0,10.4,0.5,14.3,1.4c4,0.9,7.9,2.4,11.7,4.4c1.7,1,2.5,2,2.5,3c0,0.6-0.3,1.5-1,2.5l-5.8,9.1
				c-0.6,1-1.2,1.4-1.8,1.4c-0.2,0-1-0.3-2.3-0.8c-1.8-0.9-4-1.6-6.4-2.2c-2.4-0.6-4.6-0.9-6.6-0.9c-4.3,0-6.5,0.8-6.5,2.5
				c0,1,0.9,1.9,2.8,2.8c1.9,0.9,4.6,1.9,8.2,3l6.4,2.3c3.8,1.5,6.7,3,8.8,4.6c2.1,1.5,3.5,3.3,4.4,5.3c0.8,2,1.3,4.5,1.3,7.6
				c0,3.8-1.1,7.3-3.3,10.4c-2.2,3.1-5.5,5.6-10,7.5c-4.5,1.9-10.1,2.8-16.8,2.8C530.1,320,520.4,317.8,512.6,313.5z"/>
			<path fill="#2B2133" d="M536.3,246.2c-1.5-1.7-2.3-4.3-2.3-7.9v-10.1c0-2.6,0.5-4.3,1.6-5.2c1.1-0.9,2.8-1.4,5.2-1.4h8.4
				c2.4,0,4.1,0.5,5.2,1.4c1.1,0.9,1.6,2.7,1.6,5.2v4.3c3-0.6,6.9-1.1,11.6-1.6c4.7-0.5,8.8-0.8,12.1-0.8c2.6,0,4.3,0.5,5.2,1.6
				c0.9,1.1,1.4,2.8,1.4,5.2v4.9c0,2.4-0.5,4.1-1.4,5.2c-0.9,1.1-2.7,1.6-5.2,1.6h-35.6C540.5,248.7,537.9,247.9,536.3,246.2z"/>
			<path fill="#2B2133" d="M589.6,293.1V262c0-2.3,0.5-4,1.6-5.2c1.1-1.1,2.9-1.7,5.6-1.7h14.3c2.7,0,4.6,0.5,5.7,1.6
				c1.1,1.1,1.6,2.8,1.6,5.2v30.2c0,2.7,0.4,4.7,1.3,5.8c0.8,1.2,2.3,1.7,4.5,1.7c2.2,0,3.8-0.6,4.6-1.7c0.8-1.1,1.2-3.1,1.2-5.9
				V262c0-2.3,0.5-4,1.6-5.2c1.1-1.1,2.9-1.7,5.6-1.7h14.3c2.7,0,4.6,0.5,5.7,1.6c1.1,1.1,1.6,2.8,1.6,5.2v31.1
				c0,17.9-11.5,26.9-34.6,26.9S589.6,311,589.6,293.1z"/>
			<path fill="#2B2133" d="M685.8,316.5c-1.1-1.1-1.6-2.8-1.6-5.2v-31.8c0-3.4,0.7-6.4,2.2-9c1.5-2.6,3.7-5.6,6.7-9
				c2.2-2.6,3.9-4.7,5-6.4c1.1-1.7,1.6-3.5,1.6-5.5c0-1-0.2-1.8-0.5-2.3c-0.4-0.5-1-0.8-2-0.8c-1.4,0-2.3,0.7-2.8,2.1
				c-0.5,1.4-0.7,3.3-0.7,5.7c0,1.7-0.8,2.5-2.3,2.5h-18.6c-1.4,0-2.2-0.8-2.2-2.5c0-8,2.2-14.4,6.7-19.1c4.5-4.7,11.6-7.1,21.5-7.1
				c9.4,0,16.3,1.6,20.9,4.9c4.6,3.3,6.9,8.2,6.9,14.9c0,3.4-0.6,6.2-1.8,8.6c-1.2,2.4-3,5.2-5.4,8.5c-2.2,2.8-3.8,5.2-4.9,7.3
				c-1.1,2.1-1.6,4.5-1.6,7.3v18h1.6c1.8,0,3.1,0.4,3.8,1.1c0.7,0.7,1,2,1,3.7v10.8c0,1.8-0.3,3-1,3.7c-0.7,0.7-1.9,1.1-3.8,1.1
				h-23.2C688.7,318.2,686.9,317.7,685.8,316.5z"/>
			<path fill="#2B2133" d="M742.6,316.5c-1.1-1.1-1.6-2.8-1.6-5.2v-31.1c0-8.9,2.8-15.6,8.3-20.1c5.6-4.5,14.1-6.8,25.6-6.8
				c22.7,0,34.1,9,34.1,26.9v31.1c0,2.3-0.5,4-1.6,5.2c-1.1,1.1-3,1.7-5.7,1.7h-14.3c-2.6,0-4.5-0.6-5.6-1.7
				c-1.1-1.1-1.6-2.8-1.6-5.2v-30.2c0-2.8-0.4-4.8-1.1-5.9c-0.7-1.1-2.1-1.7-4.2-1.7c-2,0-3.4,0.6-4.1,1.7c-0.7,1.1-1.1,3.1-1.1,5.9
				v4c0.9-0.9,2.1-1.3,3.7-1.3h1.6c1,0,1.6,0.2,1.9,0.6c0.3,0.4,0.5,1.3,0.5,2.6v13.6c0,1.4-0.2,2.2-0.5,2.6c-0.3,0.4-1,0.6-1.9,0.6
				h-2.5c-0.8,0-1.5,0.2-2,0.7c-0.5,0.5-0.8,1.2-0.8,2v4.8c0,2.3-0.5,4-1.6,5.2c-1.1,1.1-3,1.7-5.7,1.7h-14.3
				C745.5,318.2,743.6,317.7,742.6,316.5z"/>
			<path fill="#2B2133" d="M829.5,313.5c-1.8-1-2.6-1.9-2.6-2.9c0-0.6,0.2-1.2,0.7-2l5.9-10.6c0.6-1,1.2-1.4,2-1.4
				c0.6,0,1.4,0.2,2.4,0.7c2.2,1.2,5,2.3,8.2,3.2c3.2,1,6.1,1.4,8.6,1.4c1.8,0,3.1-0.2,3.9-0.6c0.8-0.4,1.1-1.1,1.1-2.2
				c0-1-0.6-1.9-1.7-2.5c-1.2-0.6-3.4-1.5-6.7-2.6l-4.1-1.4c-6.4-2.3-11-5-13.9-7.9c-2.8-3-4.3-6.8-4.3-11.4c0-6.2,2.7-11,8-14.6
				c5.4-3.6,12.5-5.4,21.4-5.4c5.6,0,10.4,0.5,14.3,1.4c4,0.9,7.9,2.4,11.7,4.4c1.7,1,2.5,2,2.5,3c0,0.6-0.3,1.5-1,2.5l-5.8,9.1
				c-0.6,1-1.2,1.4-1.8,1.4c-0.2,0-1-0.3-2.3-0.8c-1.8-0.9-4-1.6-6.4-2.2c-2.4-0.6-4.6-0.9-6.6-0.9c-4.3,0-6.5,0.8-6.5,2.5
				c0,1,0.9,1.9,2.8,2.8c1.9,0.9,4.6,1.9,8.2,3l6.4,2.3c3.8,1.5,6.7,3,8.8,4.6c2.1,1.5,3.5,3.3,4.4,5.3c0.8,2,1.3,4.5,1.3,7.6
				c0,3.8-1.1,7.3-3.3,10.4c-2.2,3.1-5.5,5.6-10,7.5c-4.5,1.9-10.1,2.8-16.8,2.8C847,320,837.3,317.8,829.5,313.5z"/>
			<path fill="#2B2133" d="M906.5,293.1V262c0-2.3,0.5-4,1.6-5.2c1.1-1.1,2.9-1.7,5.6-1.7H928c2.7,0,4.6,0.5,5.7,1.6
				c1.1,1.1,1.6,2.8,1.6,5.2v30.2c0,2.7,0.4,4.7,1.3,5.8c0.8,1.2,2.3,1.7,4.5,1.7c2.2,0,3.8-0.6,4.6-1.7c0.8-1.1,1.2-3.1,1.2-5.9
				V262c0-2.3,0.5-4,1.6-5.2c1.1-1.1,2.9-1.7,5.6-1.7h14.3c2.7,0,4.6,0.5,5.7,1.6c1.1,1.1,1.6,2.8,1.6,5.2v31.1
				c0,17.9-11.5,26.9-34.6,26.9S906.5,311,906.5,293.1z"/>
			<path fill="#2B2133" d="M1015.3,316.7c-1.1-1-1.6-2.5-1.6-4.5v-31c0-2.9-0.5-4.9-1.4-6c-1-1.1-2.6-1.7-4.9-1.7
				c-2.2,0-4.4,0.6-6.8,1.9c-1.1,0.6-1.9,0.8-2.4,0.8c-0.9,0-1.4-0.5-1.7-1.4l-3.5-14.2c-0.2-1-0.4-1.6-0.4-2c0-0.6,0.4-1.2,1.3-1.6
				c2.7-1.2,5.6-2.1,8.6-2.8c3-0.6,6.6-1,10.7-1c10.1,0,17.5,2.1,22.2,6.2c4.7,4.2,7.1,10.6,7.1,19.2v33.4c0,2-0.5,3.5-1.6,4.5
				c-1.1,1-2.6,1.5-4.6,1.5h-16.3C1017.9,318.2,1016.4,317.7,1015.3,316.7z"/>
			<path fill="#2B2133" d="M1075.7,315.1c-4.5-3.3-7.7-8-9.7-14l-6.1-19.2c-0.4-1.4-0.6-2.3-0.6-2.9c0-0.7,0.2-1.3,0.7-1.7
				c0.4-0.4,1.1-0.8,2.1-1.1l17.9-6.1c1.2-0.5,2.2-0.7,2.9-0.7c0.7,0,1.3,0.3,1.7,0.8c0.4,0.5,0.9,1.4,1.3,2.6l7.1,22.3
				c0.6,1.7,1.1,2.9,1.7,3.7c0.6,0.8,1.5,1.1,2.7,1.1c1.5,0,2.6-1.1,3.4-3.4c0.7-2.2,1.1-5.8,1.1-10.7c0-4.3-0.4-7.4-1.1-9.4
				s-1.9-2.9-3.6-2.9c-1.4,0-2.8,0.2-4,0.7c-0.6,0.2-1.2,0.4-1.6,0.4c-1,0-1.8-0.7-2.3-2l-4.3-11c-0.3-1-0.5-1.6-0.5-1.9
				c0-0.7,0.5-1.4,1.4-1.9c3-1.6,5.9-2.7,8.5-3.4c2.6-0.6,5.9-1,9.7-1c8.1,0,14.4,2.8,19.1,8.5c4.6,5.7,7,13.6,7,23.9
				c0,11-3.1,19.5-9.3,25.4c-6.2,5.9-14.8,8.8-25.9,8.8C1086.7,320,1080.2,318.4,1075.7,315.1z"/>
			<path fill="#2B2133" d="M1149.7,316.5c-1.1-1.1-1.6-2.8-1.6-5.2v-31.1c0-8.9,2.8-15.6,8.3-20.1c5.6-4.5,14.1-6.8,25.6-6.8
				c22.7,0,34.1,9,34.1,26.9v31.1c0,2.3-0.5,4-1.6,5.2c-1.1,1.1-3,1.7-5.7,1.7h-14.3c-2.6,0-4.5-0.6-5.6-1.7
				c-1.1-1.1-1.6-2.8-1.6-5.2v-30.2c0-2.8-0.4-4.8-1.1-5.9c-0.7-1.1-2.1-1.7-4.2-1.7c-2,0-3.4,0.6-4.1,1.7c-0.7,1.1-1.1,3.1-1.1,5.9
				v4c0.9-0.9,2.1-1.3,3.7-1.3h1.6c1,0,1.6,0.2,1.9,0.6c0.3,0.4,0.5,1.3,0.5,2.6v13.6c0,1.4-0.2,2.2-0.5,2.6c-0.3,0.4-1,0.6-1.9,0.6
				h-2.5c-0.8,0-1.5,0.2-2,0.7c-0.5,0.5-0.8,1.2-0.8,2v4.8c0,2.3-0.5,4-1.6,5.2c-1.1,1.1-3,1.7-5.7,1.7h-14.3
				C1152.7,318.2,1150.8,317.7,1149.7,316.5z"/>
			<path fill="#2B2133" d="M1242.9,314.4c-4.3-3.7-6.5-9.3-6.5-16.9V262c0-2.3,0.5-4,1.6-5.2c1.1-1.1,2.9-1.7,5.6-1.7h14.3
				c2.7,0,4.6,0.5,5.7,1.6c1.1,1.1,1.6,2.8,1.6,5.2v34.2c0,1.5,0.4,2.7,1.3,3.5c0.9,0.8,2.1,1.2,3.7,1.2c1.7,0,3-0.4,3.8-1.2
				c0.9-0.8,1.3-2,1.3-3.5V262c0-2.3,0.5-4,1.6-5.2c1.1-1.1,2.9-1.7,5.6-1.7h14.3c2.7,0,4.6,0.5,5.7,1.6c1.1,1.1,1.6,2.8,1.6,5.2
				v50.2c0,2-0.5,3.5-1.6,4.5c-1.1,1-2.6,1.5-4.6,1.5h-13.2c-2.2,0-3.5-0.9-3.8-2.6l-0.5-2c-2.2,1.9-5,3.5-8.4,4.7
				c-3.4,1.2-7.2,1.8-11.6,1.8C1253.1,320,1247.2,318.1,1242.9,314.4z"/>
		</g>
		<g display="inline">
			<path fill="#2B2133" d="M281.8,407.4c2.1,0,4.1,0.3,5.8,1s3,1.7,4,3.1c1,1.4,1.5,3.1,1.5,5.3v17.8h-5v-17.1c0-2-0.6-3.6-1.8-4.5
				c-1.2-1-2.7-1.4-4.5-1.4c-1.9,0-3.4,0.4-4.5,1.3s-1.7,2.1-1.9,3.6l5.6,2.1l-0.5,3.1c-1.3,0-2.3,0.4-3,1.1
				c-0.8,0.7-1.1,1.9-1.1,3.6v8.3h-5v-8.4c0-1.7,0.4-3.1,1.3-4.2c0.8-1.1,1.9-1.8,3.2-2.1v-0.1l-5.5-1.9v-1.7c0-1.7,0.5-3.2,1.4-4.5
				s2.2-2.4,4-3.2C277.4,407.8,279.4,407.4,281.8,407.4z"/>
			<path fill="#2B2133" d="M301.5,412.9l-1.5-3.7c1.1-0.5,2.3-0.9,3.8-1.3c1.5-0.4,3-0.6,4.6-0.6c6.6,0,9.9,3,9.9,9.1v18.1h-5v-17.4
				c0-1.9-0.4-3.3-1.2-4.2c-0.8-1-2.2-1.4-4.3-1.4c-1.1,0-2.1,0.1-3.3,0.4S302.4,412.5,301.5,412.9z"/>
			<path fill="#2B2133" d="M344.5,421.6v7.7c0,1.8-0.5,3.2-1.5,4.2c-1,1-2.3,1.5-4,1.5c-1.6,0-2.9-0.4-3.8-1.3
				c-0.9-0.9-1.4-2.1-1.4-3.6c0-1.4,0.5-2.6,1.4-3.5s2.1-1.3,3.6-1.3c0.2,0,0.4,0,0.6,0v-2.7c0-0.8-0.2-1.4-0.5-1.8
				c-0.3-0.4-1-0.6-1.9-0.6l-10.5-0.8v-4c0-2.4,0.7-4.4,2.2-5.8c1.5-1.4,3.5-2.1,6-2.1c1.1,0,2,0.1,2.7,0.2c0.7,0.1,1.4,0.2,2,0.3
				c0.6,0.1,1.3,0.1,2.1,0.1c0.7,0,1.3,0,2-0.1c0.7,0,1.3-0.1,1.8-0.3l0.6,4c-0.6,0.2-1.2,0.3-1.8,0.3c-0.6,0-1.3,0.1-2.1,0.1
				c-1.1,0-2.2-0.1-3.4-0.3c-1.2-0.2-2.3-0.3-3.3-0.3c-1.4,0-2.4,0.3-3,1c-0.7,0.6-1,1.5-1,2.6v0.8l7.6,0.6c2,0.2,3.4,0.7,4.2,1.5
				C344.1,418.9,344.5,420.1,344.5,421.6z M339,427.7c-1.6,0-2.4,0.8-2.4,2.4c0,1.6,0.8,2.4,2.4,2.4c1.6,0,2.4-0.8,2.4-2.4
				C341.4,428.5,340.6,427.7,339,427.7z"/>
			<path fill="#2B2133" d="M376.5,416.7v10.1c0,2.7-0.6,4.6-1.9,5.9c-1.3,1.2-3.5,1.8-6.5,1.8h-12.9v-12.7c0-1.8,0.5-3.2,1.5-4.2
				c1-1,2.3-1.5,4-1.5c1.6,0,2.9,0.4,3.8,1.3c0.9,0.9,1.4,2.1,1.4,3.6c0,1.4-0.4,2.6-1.3,3.5c-0.9,0.9-2.1,1.3-3.6,1.3
				c-0.2,0-0.4,0-0.6,0v4.7h7.5c1.5,0,2.6-0.3,3.1-1c0.5-0.7,0.8-1.7,0.8-3.1v-9.1c0-1.9-0.5-3.4-1.6-4.4c-1-1.1-2.8-1.6-5.2-1.6
				c-1.5,0-3,0.2-4.3,0.6s-2.7,0.9-3.9,1.5l-1.3-3.8c1.4-0.7,3-1.3,4.8-1.7c1.7-0.4,3.5-0.6,5.3-0.6c3.7,0,6.6,0.8,8.4,2.4
				C375.6,411.4,376.5,413.7,376.5,416.7z M360.7,423.4c1.6,0,2.4-0.8,2.4-2.4c0-1.6-0.8-2.4-2.4-2.4c-1.6,0-2.4,0.8-2.4,2.4
				C358.3,422.6,359.1,423.4,360.7,423.4z"/>
			<path fill="#2B2133" d="M407.4,416.7v10.1c0,2.7-0.6,4.6-1.9,5.9c-1.3,1.2-3.5,1.8-6.5,1.8h-12.9v-12.7c0-1.8,0.5-3.2,1.5-4.2
				c1-1,2.3-1.5,4-1.5c1.6,0,2.9,0.4,3.8,1.3c0.9,0.9,1.4,2.1,1.4,3.6c0,1.4-0.4,2.6-1.3,3.5c-0.9,0.9-2.1,1.3-3.6,1.3
				c-0.2,0-0.4,0-0.6,0v4.7h7.5c1.5,0,2.6-0.3,3.1-1c0.5-0.7,0.8-1.7,0.8-3.1v-9.1c0-1.9-0.5-3.4-1.6-4.4c-1-1.1-2.8-1.6-5.2-1.6
				c-1.5,0-3,0.2-4.3,0.6s-2.7,0.9-3.9,1.5l-1.3-3.8c1.4-0.7,3-1.3,4.8-1.7c1.7-0.4,3.5-0.6,5.3-0.6c3.7,0,6.6,0.8,8.4,2.4
				C406.4,411.4,407.4,413.7,407.4,416.7z M391.5,423.4c1.6,0,2.4-0.8,2.4-2.4c0-1.6-0.8-2.4-2.4-2.4c-1.6,0-2.4,0.8-2.4,2.4
				C389.1,422.6,389.9,423.4,391.5,423.4z"/>
			<path fill="#2B2133" d="M427.6,407.4c2.1,0,4.1,0.3,5.8,1s3,1.7,4,3.1c1,1.4,1.5,3.1,1.5,5.3v17.8h-5v-17.1c0-2-0.6-3.6-1.8-4.5
				c-1.2-1-2.7-1.4-4.5-1.4c-1.9,0-3.4,0.4-4.5,1.3s-1.7,2.1-1.9,3.6l5.6,2.1l-0.5,3.1c-1.3,0-2.3,0.4-3,1.1
				c-0.8,0.7-1.1,1.9-1.1,3.6v8.3h-5v-8.4c0-1.7,0.4-3.1,1.3-4.2c0.8-1.1,1.9-1.8,3.2-2.1v-0.1l-5.5-1.9v-1.7c0-1.7,0.5-3.2,1.4-4.5
				s2.2-2.4,4-3.2C423.3,407.8,425.3,407.4,427.6,407.4z"/>
			<path fill="#2B2133" d="M454.3,407.9v17.4c0.2,0,0.4,0,0.7,0c1.5,0,2.7,0.4,3.6,1.3s1.3,2,1.3,3.5c0,1.5-0.5,2.7-1.4,3.6
				c-0.9,0.9-2.2,1.3-3.8,1.3c-1.7,0-3-0.5-4-1.5c-1-1-1.5-2.4-1.5-4.2v-21.4H454.3z M454.8,427.7c-1.6,0-2.4,0.8-2.4,2.4
				c0,1.6,0.8,2.4,2.4,2.4c1.6,0,2.4-0.8,2.4-2.4C457.1,428.5,456.4,427.7,454.8,427.7z"/>
			<path fill="#2B2133" d="M473.4,407.9v17.4c0.2,0,0.4,0,0.7,0c1.5,0,2.7,0.4,3.6,1.3s1.3,2,1.3,3.5c0,1.5-0.5,2.7-1.4,3.6
				c-0.9,0.9-2.2,1.3-3.8,1.3c-1.7,0-3-0.5-4-1.5c-1-1-1.5-2.4-1.5-4.2v-21.4H473.4z M473.8,427.7c-1.6,0-2.4,0.8-2.4,2.4
				c0,1.6,0.8,2.4,2.4,2.4c1.6,0,2.4-0.8,2.4-2.4C476.2,428.5,475.4,427.7,473.8,427.7z"/>
			<path fill="#2B2133" d="M495.5,430.4h6.7c1.5,0,2.5-0.3,3-0.9c0.5-0.6,0.7-1.6,0.7-2.9v-18.7h5V427c0,2.6-0.6,4.5-1.9,5.7
				c-1.3,1.2-3.3,1.8-6.1,1.8h-12.4v-17.4c-0.2,0-0.4,0-0.7,0c-1.5,0-2.7-0.4-3.6-1.3c-0.9-0.9-1.3-2-1.3-3.5c0-1.5,0.5-2.6,1.4-3.5
				c0.9-0.9,2.2-1.3,3.8-1.3c1.6,0,2.9,0.5,3.9,1.4s1.5,2.4,1.5,4.2V430.4z M490,414.8c1.6,0,2.4-0.8,2.4-2.4c0-1.6-0.8-2.4-2.4-2.4
				c-1.6,0-2.4,0.8-2.4,2.4C487.7,414,488.5,414.8,490,414.8z"/>
			<path fill="#2B2133" d="M529.9,430.4h6.7c1.5,0,2.5-0.3,3-0.9c0.5-0.6,0.7-1.6,0.7-2.9v-18.7h5V427c0,2.6-0.6,4.5-1.9,5.7
				c-1.3,1.2-3.3,1.8-6.1,1.8h-12.4v-17.4c-0.2,0-0.4,0-0.7,0c-1.5,0-2.7-0.4-3.6-1.3c-0.9-0.9-1.3-2-1.3-3.5c0-1.5,0.5-2.6,1.4-3.5
				c0.9-0.9,2.2-1.3,3.8-1.3c1.6,0,2.9,0.5,3.9,1.4s1.5,2.4,1.5,4.2V430.4z M524.3,414.8c1.6,0,2.4-0.8,2.4-2.4
				c0-1.6-0.8-2.4-2.4-2.4c-1.6,0-2.4,0.8-2.4,2.4C522,414,522.8,414.8,524.3,414.8z"/>
			<path fill="#2B2133" d="M559.2,434.5v-17.4c-0.2,0-0.4,0-0.7,0c-1.5,0-2.7-0.4-3.6-1.3c-0.9-0.9-1.3-2-1.3-3.5
				c0-1.5,0.5-2.6,1.4-3.5c0.9-0.9,2.2-1.3,3.8-1.3c1.6,0,2.9,0.5,3.9,1.4c1,1,1.5,2.4,1.5,4.2v0.5h0c0.8-2,2-3.5,3.5-4.7
				c1.5-1.1,3.3-1.7,5.3-1.7c2.5,0,4.3,0.7,5.6,2.1c1.3,1.4,1.9,3.2,1.9,5.5v19.6h-5v-18.9c0-1.3-0.3-2.3-0.9-3.1
				c-0.6-0.8-1.5-1.2-2.8-1.2c-1.1,0-2.2,0.4-3.1,1.1c-0.9,0.8-1.8,1.8-2.4,3.1c-0.7,1.3-1.2,2.8-1.6,4.5s-0.6,3.4-0.6,5.3v9.1
				H559.2z M558.7,414.8c1.6,0,2.4-0.8,2.4-2.4c0-1.6-0.8-2.4-2.4-2.4c-1.6,0-2.4,0.8-2.4,2.4C556.3,414,557.1,414.8,558.7,414.8z"
				/>
			<path fill="#2B2133" d="M558.9,403.9l-0.2-1.8c0-2.4,0.7-4.4,2.1-5.8c1.4-1.4,3.5-2.2,6.2-2.2c2,0,3.8,0.4,5.3,1.1
				c1.5,0.8,2.8,1.7,3.9,3v-4.1h4v9.7H558.9z M563.2,400.9h11.6c-0.8-0.9-1.8-1.7-3.1-2.5c-1.3-0.8-2.7-1.1-4.2-1.1
				c-1.5,0-2.6,0.4-3.3,1.1S563.2,399.9,563.2,400.9z"/>
			<path fill="#2B2133" d="M575.8,382.5h4.6v3.2l-0.3,5.1h-4l-0.3-5.1V382.5z"/>
			<path fill="#2B2133" d="M601.9,407.4c2.2,0,4.3,0.4,6,1.1c1.8,0.7,3.2,1.8,4.3,3.1c1.1,1.4,1.6,3.2,1.6,5.3v17.7h-5v-17
				c0-2-0.6-3.5-1.9-4.5s-3-1.5-5-1.5c-2.3,0-4.1,0.6-5.4,1.8s-1.9,2.9-1.9,5.2c0,1,0,1.8,0.1,2.6c0.1,0.7,0.1,1.4,0.2,1.9h0
				c0.7-1.6,1.6-3,2.9-4c1.2-1.1,2.6-1.6,4.1-1.6c1.6,0,2.8,0.4,3.8,1.3c0.9,0.8,1.4,2,1.4,3.5s-0.5,2.7-1.4,3.5s-2.1,1.2-3.6,1.2
				c-0.9,0-1.8-0.2-2.6-0.7c-0.8-0.4-1.4-1.1-1.8-2.1c-0.5,0.6-0.9,1.5-1.2,2.7c-0.3,1.2-0.5,2.6-0.5,4.2v3.5h-5v-3.8
				c0-1.2-0.1-2.3-0.2-3.3c-0.1-1-0.3-1.9-0.5-2.8c-0.2-0.9-0.4-1.9-0.5-3c-0.1-1.1-0.2-2.3-0.2-3.7c0-3.5,1.1-6.1,3.2-7.9
				C595,408.3,598,407.4,601.9,407.4z M602.1,419.7c-0.7,0-1.3,0.2-1.7,0.7c-0.4,0.4-0.6,1-0.6,1.7c0,0.7,0.2,1.3,0.6,1.8
				c0.4,0.4,1,0.6,1.7,0.6c0.8,0,1.3-0.2,1.7-0.7c0.4-0.4,0.6-1,0.6-1.7c0-0.7-0.2-1.2-0.6-1.7C603.4,420,602.9,419.7,602.1,419.7z"
				/>
			<path fill="#2B2133" d="M640,421.6v7.7c0,1.8-0.5,3.2-1.5,4.2c-1,1-2.3,1.5-4,1.5c-1.6,0-2.9-0.4-3.8-1.3
				c-0.9-0.9-1.4-2.1-1.4-3.6c0-1.4,0.5-2.6,1.4-3.5s2.1-1.3,3.6-1.3c0.2,0,0.4,0,0.6,0v-2.7c0-0.8-0.2-1.4-0.5-1.8
				c-0.3-0.4-1-0.6-1.9-0.6l-10.5-0.8v-4c0-2.4,0.7-4.4,2.2-5.8c1.5-1.4,3.5-2.1,6-2.1c1.1,0,2,0.1,2.7,0.2c0.7,0.1,1.4,0.2,2,0.3
				c0.6,0.1,1.3,0.1,2.1,0.1c0.7,0,1.3,0,2-0.1c0.7,0,1.3-0.1,1.8-0.3l0.6,4c-0.6,0.2-1.2,0.3-1.8,0.3c-0.6,0-1.3,0.1-2.1,0.1
				c-1.1,0-2.2-0.1-3.4-0.3c-1.2-0.2-2.3-0.3-3.3-0.3c-1.4,0-2.4,0.3-3,1c-0.7,0.6-1,1.5-1,2.6v0.8l7.6,0.6c2,0.2,3.4,0.7,4.2,1.5
				C639.6,418.9,640,420.1,640,421.6z M634.6,427.7c-1.6,0-2.4,0.8-2.4,2.4c0,1.6,0.8,2.4,2.4,2.4c1.6,0,2.4-0.8,2.4-2.4
				C637,428.5,636.2,427.7,634.6,427.7z"/>
			<path fill="#2B2133" d="M672,416.7v10.1c0,2.7-0.6,4.6-1.9,5.9c-1.3,1.2-3.5,1.8-6.5,1.8h-12.9v-12.7c0-1.8,0.5-3.2,1.5-4.2
				c1-1,2.3-1.5,4-1.5c1.6,0,2.9,0.4,3.8,1.3c0.9,0.9,1.4,2.1,1.4,3.6c0,1.4-0.4,2.6-1.3,3.5c-0.9,0.9-2.1,1.3-3.6,1.3
				c-0.2,0-0.4,0-0.6,0v4.7h7.5c1.5,0,2.6-0.3,3.1-1c0.5-0.7,0.8-1.7,0.8-3.1v-9.1c0-1.9-0.5-3.4-1.6-4.4c-1-1.1-2.8-1.6-5.2-1.6
				c-1.5,0-3,0.2-4.3,0.6s-2.7,0.9-3.9,1.5l-1.3-3.8c1.4-0.7,3-1.3,4.8-1.7c1.7-0.4,3.5-0.6,5.3-0.6c3.7,0,6.6,0.8,8.4,2.4
				C671.1,411.4,672,413.7,672,416.7z M656.2,423.4c1.6,0,2.4-0.8,2.4-2.4c0-1.6-0.8-2.4-2.4-2.4c-1.6,0-2.4,0.8-2.4,2.4
				C653.8,422.6,654.6,423.4,656.2,423.4z"/>
			<path fill="#2B2133" d="M690.7,430.4h6.7c1.5,0,2.5-0.3,3-0.9c0.5-0.6,0.7-1.6,0.7-2.9v-18.7h5V427c0,2.6-0.6,4.5-1.9,5.7
				c-1.3,1.2-3.3,1.8-6.1,1.8h-12.4v-17.4c-0.2,0-0.4,0-0.7,0c-1.5,0-2.7-0.4-3.6-1.3c-0.9-0.9-1.3-2-1.3-3.5c0-1.5,0.5-2.6,1.4-3.5
				c0.9-0.9,2.2-1.3,3.8-1.3c1.6,0,2.9,0.5,3.9,1.4s1.5,2.4,1.5,4.2V430.4z M685.2,414.8c1.6,0,2.4-0.8,2.4-2.4
				c0-1.6-0.8-2.4-2.4-2.4c-1.6,0-2.4,0.8-2.4,2.4C682.8,414,683.6,414.8,685.2,414.8z"/>
			<path fill="#2B2133" d="M727.7,407.4c2.2,0,4.3,0.4,6,1.1c1.8,0.7,3.2,1.8,4.3,3.1c1.1,1.4,1.6,3.2,1.6,5.3v17.7h-5v-17
				c0-2-0.6-3.5-1.9-4.5s-3-1.5-5-1.5c-2.3,0-4.1,0.6-5.4,1.8s-1.9,2.9-1.9,5.2c0,1,0,1.8,0.1,2.6c0.1,0.7,0.1,1.4,0.2,1.9h0
				c0.7-1.6,1.6-3,2.9-4c1.2-1.1,2.6-1.6,4.1-1.6c1.6,0,2.8,0.4,3.8,1.3c0.9,0.8,1.4,2,1.4,3.5s-0.5,2.7-1.4,3.5s-2.1,1.2-3.6,1.2
				c-0.9,0-1.8-0.2-2.6-0.7c-0.8-0.4-1.4-1.1-1.8-2.1c-0.5,0.6-0.9,1.5-1.2,2.7c-0.3,1.2-0.5,2.6-0.5,4.2v3.5h-5v-3.8
				c0-1.2-0.1-2.3-0.2-3.3c-0.1-1-0.3-1.9-0.5-2.8c-0.2-0.9-0.4-1.9-0.5-3c-0.1-1.1-0.2-2.3-0.2-3.7c0-3.5,1.1-6.1,3.2-7.9
				C720.8,408.3,723.8,407.4,727.7,407.4z M727.9,419.7c-0.7,0-1.3,0.2-1.7,0.7c-0.4,0.4-0.6,1-0.6,1.7c0,0.7,0.2,1.3,0.6,1.8
				c0.4,0.4,1,0.6,1.7,0.6c0.8,0,1.3-0.2,1.7-0.7c0.4-0.4,0.6-1,0.6-1.7c0-0.7-0.2-1.2-0.6-1.7C729.2,420,728.6,419.7,727.9,419.7z"
				/>
			<path fill="#2B2133" d="M754.2,434.9c-1.6,0-2.9-0.5-3.9-1.5c-1-1-1.5-2.4-1.5-4.2v-4.1c0-2.7,0.9-4.6,2.6-5.9
				c1.7-1.3,3.9-1.9,6.6-1.9c1.2,0,2.4,0.2,3.6,0.5c1.2,0.4,2.3,0.9,3.3,1.7h0.1v-2.4c0-1.9-0.5-3.3-1.5-4.3s-2.7-1.5-5.1-1.5
				c-1.5,0-2.9,0.2-4.3,0.6c-1.4,0.4-2.6,0.9-3.9,1.5l-1.4-3.9c1.4-0.7,3-1.3,4.8-1.7c1.7-0.4,3.5-0.6,5.3-0.6
				c3.7,0,6.5,0.8,8.4,2.4s2.8,3.9,2.8,6.9v17.9h-5V427c0-1.7-0.6-3.1-1.8-4.1c-1.2-1-2.8-1.5-4.8-1.5c-1.8,0-3.1,0.4-3.9,1.2
				s-1.2,1.7-1.2,2.7v0.1c0.3,0,0.7,0,1.1,0c1.5,0,2.7,0.4,3.6,1.3s1.3,2,1.3,3.5c0,1.5-0.5,2.7-1.4,3.6
				C757,434.5,755.8,434.9,754.2,434.9z M754.2,432.5c1.6,0,2.4-0.8,2.4-2.4c0-1.6-0.8-2.4-2.4-2.4c-1.6,0-2.4,0.8-2.4,2.4
				C751.9,431.7,752.6,432.5,754.2,432.5z"/>
			<path fill="#2B2133" d="M765.4,449.7v-4.4h0c-1.3,0-2.4-0.4-3.1-1.1c-0.8-0.7-1.2-1.7-1.2-3c0-1.3,0.4-2.3,1.2-3
				c0.8-0.7,1.9-1.1,3.2-1.1c1.4,0,2.6,0.4,3.4,1.2c0.8,0.8,1.3,1.9,1.3,3.4v8H765.4z M765.4,443.2c1.3,0,2-0.7,2-2
				c0-1.4-0.7-2.1-2-2.1c-1.3,0-2,0.7-2,2.1C763.5,442.6,764.1,443.2,765.4,443.2z"/>
			<path fill="#2B2133" d="M791,429.5c0,1.5-0.5,2.7-1.4,3.8s-2.4,1.6-4.4,1.6c-1.8,0-3.2-0.5-4.2-1.4s-1.6-2.3-1.6-4
				c0-1.7,0.5-3,1.6-4c1.1-1,2.5-1.5,4.2-1.5c-0.1-0.6-0.1-1.2-0.1-2v-4.8c-0.2,0-0.4,0-0.6,0c-1.5,0-2.7-0.4-3.6-1.3
				c-0.9-0.9-1.4-2-1.4-3.5c0-1.5,0.5-2.6,1.4-3.5c0.9-0.9,2.2-1.3,3.8-1.3c1.7,0,3,0.5,4,1.4c1,1,1.5,2.4,1.5,4.2v9.3
				c0,0.8,0,1.4,0.1,2c1.4,0.5,2.9,1.1,4.3,2c1.5,0.8,2.8,1.8,4,2.8h0.1v-21.4h5v26.6h-5.4c-1.1-1.3-2.2-2.5-3.4-3.4
				c-1.2-0.9-2.5-1.7-3.8-2.3C791,429.1,791,429.3,791,429.5z M784.6,414.8c1.6,0,2.4-0.8,2.4-2.4c0-1.6-0.8-2.4-2.4-2.4
				c-1.6,0-2.4,0.8-2.4,2.4C782.2,414,783,414.8,784.6,414.8z M784.6,432c1.3,0,2-0.9,2-2.6c0-0.4,0-0.9-0.1-1.2s-0.1-0.8-0.2-1.2
				c-0.4-0.1-0.8-0.2-1.4-0.2c-1.6,0-2.4,0.9-2.4,2.6c0,0.8,0.2,1.4,0.6,1.9C783.4,431.8,783.9,432,784.6,432z"/>
			<path fill="#2B2133" d="M813.8,413.2c0-1.9,0.5-3.3,1.5-4.2c1-1,2.3-1.4,3.9-1.4c1.6,0,2.9,0.4,3.8,1.3c0.9,0.9,1.4,2.1,1.4,3.5
				c0,1.4-0.4,2.6-1.3,3.5c-0.9,0.9-2.1,1.3-3.6,1.3c-0.2,0-0.4,0-0.7,0v11.6h0.2l5.4-7.2h2.3l5.3,7.1h0.2v-20.8h5v26.6h-5.5l-6-8
				h-0.2l-6,8h-5.6V413.2z M819.3,414.8c1.6,0,2.4-0.8,2.4-2.4c0-1.6-0.8-2.4-2.4-2.4c-1.6,0-2.4,0.8-2.4,2.4
				C816.9,414,817.7,414.8,819.3,414.8z"/>
			<path fill="#2B2133" d="M830.7,449.3c-2.1,0-3.7-0.4-4.6-1.2c-0.9-0.8-1.5-1.8-1.6-2.8h-0.2c-1.2,0-2.2-0.4-3-1.1
				s-1.2-1.7-1.2-2.9c0-1.2,0.4-2.2,1.2-3c0.8-0.7,1.8-1.1,3.1-1.1c1.4,0,2.5,0.4,3.3,1.2s1.2,1.9,1.2,3.2v2.4
				c0,1.2,0.6,1.9,1.8,1.9c1.2,0,1.9-0.6,1.9-1.9v-6.6h4.5v6.7c0,1.4-0.5,2.6-1.4,3.6C834.7,448.8,833.1,449.3,830.7,449.3z
				 M824.3,443.1c1.3,0,1.9-0.6,1.9-1.9c0-1.3-0.6-2-1.9-2c-1.3,0-1.9,0.7-1.9,2C822.4,442.4,823.1,443.1,824.3,443.1z"/>
			<path fill="#2B2133" d="M829.1,404.1c-1.2,0-2.2,0-3.1,0c-0.9,0-1.9-0.1-3-0.2v-2.3c0.9-0.1,1.6-0.3,2.3-0.6s1.1-0.7,1.4-1.2
				h-0.1c-1.2,0-2.3-0.3-3-1c-0.8-0.7-1.2-1.7-1.2-2.9s0.4-2.2,1.2-2.9c0.8-0.7,1.9-1.1,3.2-1.1c1.5,0,2.7,0.4,3.5,1.3
				c0.8,0.8,1.3,1.9,1.3,3.2c0,0.8-0.2,1.6-0.6,2.4c-0.4,0.8-0.9,1.5-1.5,2.1c2.3-0.1,4-1,5.2-2.5c1.2-1.5,2-3.6,2.2-6.3l4.2,0.8
				c-0.3,2.1-0.9,4.1-1.8,5.8s-2.2,3.1-3.9,4.1C833.9,403.6,831.7,404.1,829.1,404.1z M826.8,397.6c1.3,0,2-0.6,2-1.8
				c0-1.2-0.7-1.8-2-1.8c-0.6,0-1.1,0.2-1.4,0.5c-0.4,0.3-0.5,0.8-0.5,1.3s0.2,1,0.5,1.3C825.8,397.4,826.2,397.6,826.8,397.6z"/>
			<path fill="#2B2133" d="M858.2,429.5c0,1.5-0.5,2.7-1.4,3.8s-2.4,1.6-4.4,1.6c-1.8,0-3.2-0.5-4.2-1.4s-1.6-2.3-1.6-4
				c0-1.7,0.5-3,1.6-4c1.1-1,2.5-1.5,4.2-1.5c-0.1-0.6-0.1-1.2-0.1-2v-4.8c-0.2,0-0.4,0-0.6,0c-1.5,0-2.7-0.4-3.6-1.3
				c-0.9-0.9-1.4-2-1.4-3.5c0-1.5,0.5-2.6,1.4-3.5c0.9-0.9,2.2-1.3,3.8-1.3c1.7,0,3,0.5,4,1.4c1,1,1.5,2.4,1.5,4.2v9.3
				c0,0.8,0,1.4,0.1,2c1.4,0.5,2.9,1.1,4.3,2c1.5,0.8,2.8,1.8,4,2.8h0.1v-21.4h5v26.6h-5.4c-1.1-1.3-2.2-2.5-3.4-3.4
				c-1.2-0.9-2.5-1.7-3.8-2.3C858.2,429.1,858.2,429.3,858.2,429.5z M851.8,414.8c1.6,0,2.4-0.8,2.4-2.4c0-1.6-0.8-2.4-2.4-2.4
				c-1.6,0-2.4,0.8-2.4,2.4C849.4,414,850.2,414.8,851.8,414.8z M851.8,432c1.3,0,2-0.9,2-2.6c0-0.4,0-0.9-0.1-1.2s-0.1-0.8-0.2-1.2
				c-0.4-0.1-0.8-0.2-1.4-0.2c-1.6,0-2.4,0.9-2.4,2.6c0,0.8,0.2,1.4,0.6,1.9C850.6,431.8,851.1,432,851.8,432z"/>
			<path fill="#2B2133" d="M849.4,403.9l-0.2-1.8c0-2.4,0.7-4.4,2.1-5.8c1.4-1.4,3.5-2.2,6.2-2.2c2,0,3.8,0.4,5.3,1.1
				c1.5,0.8,2.8,1.7,3.9,3v-4.1h4v9.7H849.4z M853.7,400.9h11.6c-0.8-0.9-1.8-1.7-3.1-2.5c-1.3-0.8-2.7-1.1-4.2-1.1
				c-1.5,0-2.6,0.4-3.3,1.1S853.7,399.9,853.7,400.9z"/>
			<path fill="#2B2133" d="M274.2,506.9c-1.6,0-2.9-0.4-3.8-1.3c-0.9-0.9-1.4-2.1-1.4-3.6c0-1.4,0.4-2.6,1.3-3.5
				c0.9-0.9,2.1-1.3,3.6-1.3c0.2,0,0.4,0,0.6,0v-0.4c0-1.5,0.3-2.7,0.9-3.7c0.6-0.9,1.5-1.6,2.8-1.9v-0.1l-5.6-1.9v-1.6
				c0-1.6,0.5-3,1.4-4.2c0.9-1.2,2.2-2.2,3.9-3c1.7-0.7,3.6-1.1,5.9-1.1c2,0,3.9,0.3,5.5,1c1.6,0.7,3,1.7,3.9,3.1
				c1,1.4,1.5,3.1,1.5,5.3v17.8h-5v-17.1c0-2-0.6-3.6-1.7-4.5s-2.6-1.4-4.3-1.4c-1.8,0-3.2,0.4-4.3,1.2c-1,0.8-1.6,1.8-1.8,3.1
				l5.6,2l-0.5,3c-1.2,0-2,0.4-2.5,1.1c-0.5,0.7-0.7,1.7-0.7,3v4.4c0,1.8-0.5,3.2-1.5,4.2C277.2,506.4,275.8,506.9,274.2,506.9z
				 M274.1,504.5c1.6,0,2.4-0.8,2.4-2.4c0-1.6-0.8-2.4-2.4-2.4c-1.6,0-2.4,0.8-2.4,2.4C271.8,503.7,272.6,504.5,274.1,504.5z"/>
			<path fill="#2B2133" d="M303.3,484.9l-1.5-3.7c1.1-0.5,2.3-0.9,3.8-1.3c1.5-0.4,3-0.6,4.6-0.6c6.6,0,9.9,3,9.9,9.1v18.1h-5v-17.4
				c0-1.9-0.4-3.3-1.2-4.2c-0.8-1-2.2-1.4-4.3-1.4c-1.1,0-2.1,0.1-3.3,0.4S304.2,484.5,303.3,484.9z"/>
			<path fill="#2B2133" d="M346.2,488.6v12.7c0,1.8-0.5,3.2-1.5,4.2c-1,1-2.3,1.5-3.9,1.5c-1.6,0-2.9-0.4-3.8-1.3
				c-0.9-0.9-1.4-2.1-1.4-3.6c0-1.4,0.4-2.6,1.3-3.5c0.9-0.9,2.1-1.3,3.6-1.3c0.3,0,0.5,0,0.7,0v-8.1c0-1.9-0.4-3.3-1.1-4.3
				s-2.2-1.5-4.2-1.5c-1.3,0-2.5,0.2-3.7,0.5c-1.2,0.3-2.3,0.7-3.3,1.1l-1.5-3.8c1-0.5,2.3-0.9,3.8-1.3s3.1-0.5,4.9-0.5
				c3.6,0,6.1,0.8,7.8,2.3C345.4,483.2,346.2,485.5,346.2,488.6z M340.7,499.7c-1.6,0-2.4,0.8-2.4,2.4c0,1.6,0.8,2.4,2.4,2.4
				c1.6,0,2.4-0.8,2.4-2.4C343.1,500.5,342.3,499.7,340.7,499.7z"/>
			<path fill="#2B2133" d="M362.7,490.5c-2.5,0-4.5-0.5-6.1-1.5s-2.4-2.4-2.4-4.3c0-1.2,0.4-2.3,1.3-3.1s2-1.3,3.6-1.3
				c1.4,0,2.5,0.4,3.4,1.2c0.9,0.8,1.3,1.8,1.3,3.1c0,0.9-0.3,1.7-0.9,2.5c0.2,0,0.3,0,0.5,0c1.4,0,2.7-0.4,3.9-1.3s2.1-2.1,2.8-3.8
				l3.6,2.1c-1.2,2.1-2.6,3.8-4.4,4.8C367.5,490,365.3,490.5,362.7,490.5z M362.7,505c-2.5,0-4.5-0.5-6.1-1.5s-2.4-2.4-2.4-4.3
				c0-1.2,0.4-2.3,1.3-3.1c0.8-0.8,2-1.3,3.6-1.3c1.4,0,2.5,0.4,3.4,1.2c0.9,0.8,1.3,1.8,1.3,3c0,0.9-0.3,1.8-0.9,2.5
				c0.2,0,0.3,0,0.5,0c1.4,0,2.7-0.4,3.9-1.3c1.1-0.9,2.1-2.1,2.8-3.7l3.6,2.1c-1.2,2.1-2.6,3.8-4.4,4.8S365.4,505,362.7,505z
				 M359.1,486.5c0.6,0,1.2-0.2,1.5-0.5s0.6-0.8,0.6-1.5c0-0.6-0.2-1.1-0.6-1.5c-0.4-0.4-0.9-0.5-1.5-0.5c-1.3,0-2,0.7-2,2
				C357.1,485.8,357.8,486.5,359.1,486.5z M359.1,500.9c0.6,0,1.2-0.2,1.5-0.5s0.6-0.8,0.6-1.4c0-0.6-0.2-1.1-0.6-1.5
				c-0.4-0.4-0.9-0.5-1.5-0.5c-1.3,0-2,0.7-2,2C357.1,500.3,357.8,500.9,359.1,500.9z"/>
			<path fill="#2B2133" d="M382.1,506.5v-3.6c0-1.1-0.1-2.1-0.2-3c-0.1-0.9-0.3-1.8-0.5-2.7c-0.2-0.9-0.4-1.9-0.5-3
				c-0.1-1.1-0.2-2.5-0.2-4.2c0-1.9,0.3-3.7,1-5.2c0.6-1.6,1.6-2.8,2.9-3.7c1.3-0.9,2.9-1.4,4.9-1.5l3.8,3l3.9-3
				c2.7,0.1,4.7,0.8,6.2,2.3c1.5,1.4,2.2,3.6,2.2,6.3v18.4h-5v-18.8c0-1.2-0.3-2.2-0.8-2.9c-0.5-0.7-1.3-1.1-2.2-1.1l-4.1,3h-0.3
				l-4.1-3.1c-0.9,0.1-1.7,0.7-2.4,1.9c-0.7,1.2-1,3-1,5.2c0,1.3,0.1,2.4,0.2,3.4c0.1,0.9,0.2,1.8,0.4,2.6c0.1,0.8,0.2,1.5,0.3,2.3
				s0.1,1.7,0.1,2.7v0.4l4.6-4.1c-0.8-0.4-1.5-0.9-2-1.6c-0.5-0.7-0.7-1.6-0.7-2.6c0-1.5,0.5-2.7,1.4-3.5c0.9-0.8,2.2-1.3,3.6-1.3
				c1.5,0,2.8,0.5,3.6,1.4c0.9,0.9,1.3,2.1,1.3,3.6c0,1.2-0.3,2.2-0.9,3s-1.3,1.7-2.3,2.5l-7.5,7H382.1z M393.5,496.1
				c0.7,0,1.3-0.2,1.7-0.6c0.4-0.4,0.6-1,0.6-1.7s-0.2-1.3-0.6-1.7c-0.4-0.4-1-0.7-1.7-0.7c-0.7,0-1.3,0.2-1.7,0.7
				c-0.4,0.4-0.6,1-0.6,1.7c0,0.7,0.2,1.2,0.6,1.7C392.2,495.9,392.8,496.1,393.5,496.1z"/>
			<path fill="#2B2133" d="M414,484.9l-1.5-3.7c1.1-0.5,2.3-0.9,3.8-1.3c1.5-0.4,3-0.6,4.6-0.6c6.6,0,9.9,3,9.9,9.1v18.1h-5v-17.4
				c0-1.9-0.4-3.3-1.2-4.2c-0.8-1-2.2-1.4-4.3-1.4c-1.1,0-2.1,0.1-3.3,0.4S415,484.5,414,484.9z"/>
			<path fill="#2B2133" d="M449.8,502.4h6.7c1.5,0,2.5-0.3,3-0.9c0.5-0.6,0.7-1.6,0.7-2.9v-18.7h5V499c0,2.6-0.6,4.5-1.9,5.7
				c-1.3,1.2-3.3,1.8-6.1,1.8h-12.4v-17.4c-0.2,0-0.4,0-0.7,0c-1.5,0-2.7-0.4-3.6-1.3c-0.9-0.9-1.3-2-1.3-3.5c0-1.5,0.5-2.6,1.4-3.5
				c0.9-0.9,2.2-1.3,3.8-1.3c1.6,0,2.9,0.5,3.9,1.4s1.5,2.4,1.5,4.2V502.4z M444.3,486.8c1.6,0,2.4-0.8,2.4-2.4
				c0-1.6-0.8-2.4-2.4-2.4c-1.6,0-2.4,0.8-2.4,2.4C441.9,486,442.7,486.8,444.3,486.8z"/>
			<path fill="#2B2133" d="M496.3,488.7v10.1c0,2.7-0.6,4.6-1.9,5.9c-1.3,1.2-3.5,1.8-6.5,1.8H475v-12.7c0-1.8,0.5-3.2,1.5-4.2
				c1-1,2.3-1.5,4-1.5c1.6,0,2.9,0.4,3.8,1.3c0.9,0.9,1.4,2.1,1.4,3.6c0,1.4-0.4,2.6-1.3,3.5c-0.9,0.9-2.1,1.3-3.6,1.3
				c-0.2,0-0.4,0-0.6,0v4.7h7.5c1.5,0,2.6-0.3,3.1-1c0.5-0.7,0.8-1.7,0.8-3.1v-9.1c0-1.9-0.5-3.4-1.6-4.4c-1-1.1-2.8-1.6-5.2-1.6
				c-1.5,0-3,0.2-4.3,0.6s-2.7,0.9-3.9,1.5l-1.3-3.8c1.4-0.7,3-1.3,4.8-1.7c1.7-0.4,3.5-0.6,5.3-0.6c3.7,0,6.6,0.8,8.4,2.4
				C495.4,483.4,496.3,485.7,496.3,488.7z M480.5,495.4c1.6,0,2.4-0.8,2.4-2.4c0-1.6-0.8-2.4-2.4-2.4c-1.6,0-2.4,0.8-2.4,2.4
				C478.1,494.6,478.9,495.4,480.5,495.4z"/>
			<path fill="#2B2133" d="M506.5,506.5v-3.4c0-1.5-0.1-2.8-0.3-4.1c-0.2-1.2-0.4-2.5-0.6-3.9c-0.2-1.4-0.3-3-0.3-4.9
				c0-2.3,0.5-4.2,1.6-5.9c1-1.6,2.5-2.9,4.3-3.7c1.9-0.9,4-1.3,6.4-1.3c3.7,0,6.7,0.9,8.8,2.8s3.2,4.4,3.2,7.5v16.8h-5v-16.2
				c0-2-0.6-3.7-1.7-5c-1.2-1.3-2.9-1.9-5.4-1.9c-2.1,0-3.9,0.6-5.3,1.8c-1.4,1.2-2,3.2-2,5.8c0,1.5,0.1,2.9,0.2,4
				c0.1,1.1,0.3,2.2,0.4,3.3c0.1,1.1,0.2,2.3,0.2,3.6v0.4l4.4-4.3c-1.8-0.7-2.6-2.2-2.6-4.3c0-1.5,0.5-2.6,1.4-3.5
				c0.9-0.9,2.1-1.3,3.6-1.3c1.5,0,2.8,0.5,3.7,1.4s1.4,2.1,1.4,3.6c0,1.2-0.3,2.1-0.9,3c-0.6,0.8-1.4,1.7-2.3,2.5l-7.5,7.1H506.5z
				 M517.8,496.1c0.8,0,1.4-0.2,1.8-0.7c0.4-0.4,0.6-1,0.6-1.7c0-0.7-0.2-1.2-0.6-1.7c-0.4-0.4-1-0.7-1.8-0.7
				c-0.7,0-1.3,0.2-1.7,0.7c-0.4,0.4-0.6,1-0.6,1.7c0,0.7,0.2,1.3,0.6,1.7C516.5,495.8,517.1,496.1,517.8,496.1z"/>
			<path fill="#2B2133" d="M544.3,506.9c-1.6,0-2.9-0.5-3.9-1.5c-1-1-1.5-2.4-1.5-4.2v-4.1c0-2.7,0.9-4.6,2.6-5.9
				c1.7-1.3,3.9-1.9,6.6-1.9c1.2,0,2.4,0.2,3.6,0.5c1.2,0.4,2.3,0.9,3.3,1.7h0.1v-2.4c0-1.9-0.5-3.3-1.5-4.3s-2.7-1.5-5.1-1.5
				c-1.5,0-2.9,0.2-4.3,0.6c-1.4,0.4-2.6,0.9-3.9,1.5l-1.4-3.9c1.4-0.7,3-1.3,4.8-1.7c1.7-0.4,3.5-0.6,5.3-0.6
				c1.2,0,2.3,0.1,3.2,0.2c0.9,0.1,1.6,0.3,2.4,0.5c0.7,0.2,1.4,0.2,2.2,0.2c1.1,0,2.2-0.1,3.2-0.4c1-0.3,2-0.7,2.9-1.2l1.3,4.8
				c-0.9,0.4-1.9,0.6-3.1,0.6c-0.3,0-0.6,0-0.9-0.1s-0.8-0.1-1.2-0.2v0.1c0.8,1.4,1.2,3,1.2,4.8v17.9h-5V499c0-1.7-0.6-3.1-1.8-4.1
				c-1.2-1-2.8-1.5-4.8-1.5c-1.8,0-3.1,0.4-3.9,1.2s-1.2,1.7-1.2,2.7v0.1c0.3,0,0.7,0,1.1,0c1.5,0,2.7,0.4,3.6,1.3s1.3,2,1.3,3.5
				c0,1.5-0.5,2.7-1.4,3.6C547.1,506.5,545.9,506.9,544.3,506.9z M544.3,504.5c1.6,0,2.4-0.8,2.4-2.4c0-1.6-0.8-2.4-2.4-2.4
				c-1.6,0-2.4,0.8-2.4,2.4C542,503.7,542.7,504.5,544.3,504.5z"/>
			<path fill="#2B2133" d="M538.6,475.9l-0.2-1.8c0-2.4,0.7-4.4,2.1-5.8c1.4-1.4,3.5-2.2,6.2-2.2c2,0,3.8,0.4,5.3,1.1
				c1.5,0.8,2.8,1.7,3.9,3v-4.1h4v9.7H538.6z M543,472.9h11.6c-0.8-0.9-1.8-1.7-3.1-2.5c-1.3-0.8-2.7-1.1-4.2-1.1
				c-1.5,0-2.6,0.4-3.3,1.1S543,471.9,543,472.9z"/>
		</g>
	</g>
	<g id="bg3" display="none">
		
			<rect id="bg2_00000034808363007438780890000017264479521084238476_" y="781.8" display="inline" fill="#382E3F" width="1920" height="325.8"/>
		<rect x="215.4" y="702.3" display="inline" fill="#382E3F" width="358.9" height="104.8"/>
		<rect x="261" y="651.8" display="inline" fill="#382E3F" width="102.1" height="50.5"/>
		
			<rect x="454.9" y="638" transform="matrix(6.123234e-17 -1 1 6.123234e-17 -179.2417 1134.3983)" display="inline" fill="#382E3F" width="45.4" height="37.7"/>
		
			<rect x="248.3" y="658.2" transform="matrix(-1 -1.224647e-16 1.224647e-16 -1 542.0956 1354.0995)" display="inline" fill="#382E3F" width="45.4" height="37.7"/>
		<rect x="426.5" y="651.8" display="inline" fill="#382E3F" width="102.1" height="50.5"/>
		<path display="inline" fill="none" stroke="#382E3F" stroke-width="20" stroke-miterlimit="10" d="M265.6,677.2
			c0,0-110.7-9-110.7,132.3"/>
		<path display="inline" fill="none" stroke="#382E3F" stroke-width="20" stroke-miterlimit="10" d="M477.6,651.8
			c0,0,9.2-77-61.2-77c-58.4,0-32.2,150.8-32.2,204.5"/>
		<polygon display="inline" fill="#382E3F" points="1461.8,782.2 1138.6,782.2 1168.4,733.5 1432.1,733.5 		"/>
		<rect x="1260.9" y="684.7" display="inline" fill="#382E3F" width="78.7" height="48.7"/>
		<path display="inline" fill="#382E3F" d="M1591,691.7h-581.6c-10.9,0-19.7-8.8-19.7-19.7V384.2c0-10.9,8.8-19.7,19.7-19.7H1591
			c10.9,0,19.7,8.8,19.7,19.7v287.8C1610.7,682.8,1601.9,691.7,1591,691.7z"/>
	</g>
	<g id="bg4" display="none">
		<rect y="875.9" display="inline" fill="#2B2133" width="1920" height="326.2"/>
		<path display="inline" fill="#2B2133" d="M1632,902.5h-169.4c-12.5,0-22.6-10.1-22.6-22.6V695.6c0-12.5,10.1-22.6,22.6-22.6H1632
			c12.5,0,22.6,10.1,22.6,22.6v184.3C1654.6,892.4,1644.5,902.5,1632,902.5z"/>
		<path display="inline" fill="none" stroke="#2B2133" stroke-width="40" stroke-miterlimit="10" d="M1654.6,734.9
			c0,0,39.8,0,39.8,44.7s-39.8,44.7-39.8,44.7"/>
		<path display="inline" fill="#2B2133" d="M1668,519.4l-2.8-0.7l2.5-10.7c0,0,3.1-13.3-9.8-16.4c-12.9-3-16,10.3-16,10.3l-2.5,10.7
			l-2.8-0.7l-2.5,10.7l2.8,0.7l-48.1,205.2l25.8,6l48.1-205.2l2.8,0.7L1668,519.4z"/>
		<polygon display="inline" fill="#2B2133" points="1316.3,860.2 1316.7,860.2 1212.5,651 721.3,651 721.5,651.4 721.1,651.4 
			721.3,651.9 720.8,651.9 721,652.3 720.6,652.3 720.8,652.7 720.3,652.7 720.5,653.2 720.1,653.2 720.3,653.6 719.8,653.6 
			720.1,654 719.6,654 719.8,654.4 719.3,654.4 719.6,654.9 719.1,654.9 719.3,655.3 718.9,655.3 719.1,655.7 718.6,655.7 
			718.8,656.2 718.4,656.2 718.6,656.6 718.1,656.6 718.3,657 717.9,657 718.1,657.5 717.6,657.5 717.8,657.9 717.4,657.9 
			717.6,658.3 717.1,658.3 717.3,658.7 716.9,658.7 717.1,659.2 716.6,659.2 716.9,659.6 716.4,659.6 716.6,660 716.1,660 
			716.4,660.5 715.9,660.5 716.1,660.9 715.7,660.9 715.9,661.3 715.4,661.3 715.6,661.8 715.2,661.8 715.4,662.2 714.9,662.2 
			715.1,662.6 714.7,662.6 714.9,663 714.4,663 714.6,663.5 714.2,663.5 714.4,663.9 713.9,663.9 714.2,664.3 713.7,664.3 
			713.9,664.8 713.4,664.8 713.7,665.2 713.2,665.2 713.4,665.6 713,665.6 713.2,666.1 712.7,666.1 712.9,666.5 712.5,666.5 
			712.7,666.9 712.2,666.9 712.4,667.3 712,667.3 712.2,667.8 711.7,667.8 711.9,668.2 711.5,668.2 711.7,668.6 711.2,668.6 
			711.4,669.1 711,669.1 711.2,669.5 710.7,669.5 711,669.9 710.5,669.9 710.7,670.4 710.3,670.4 710.5,670.8 710,670.8 
			710.2,671.2 709.8,671.2 710,671.6 709.5,671.6 709.7,672.1 709.3,672.1 709.5,672.5 709,672.5 709.2,672.9 708.8,672.9 
			738,731.7 737.9,731.9 737.9,731.9 737.7,732.3 737.7,732.3 737.5,732.7 737.5,732.6 737.3,733 737.3,733 737.1,733.4 
			737.1,733.4 736.9,733.8 736.9,733.8 650,924.2 670.5,934.1 670.7,933.7 670.7,933.7 670.9,933.4 670.9,933.4 671.1,933 
			671.1,933 671.3,932.6 671.3,932.6 671.5,932.2 671.5,932.2 671.7,931.8 671.7,931.8 671.9,931.4 671.9,931.5 672.1,931.1 
			672.1,931.1 672.3,930.7 672.3,930.7 672.5,930.3 672.5,930.3 672.7,929.9 672.7,929.9 672.9,929.5 672.9,929.5 673.1,929.1 
			673.1,929.2 673.3,928.8 673.3,928.8 673.5,928.4 673.5,928.4 673.7,928 673.7,928 673.9,927.6 673.9,927.6 674.1,927.2 
			674.1,927.2 674.3,926.9 674.3,926.9 674.5,926.5 674.5,926.5 674.7,926.1 674.7,926.1 674.9,925.7 674.9,925.7 675.1,925.3 
			675.1,925.3 675.3,924.9 675.3,925 675.5,924.6 675.5,924.6 675.7,924.2 675.7,924.2 675.9,923.8 675.9,923.8 676.1,923.4 
			676.1,923.4 676.3,923 676.3,923 676.5,922.7 676.5,922.7 676.7,922.3 676.7,922.3 676.9,921.9 676.9,921.9 677.1,921.5 
			677.1,921.5 677.3,921.1 677.3,921.1 677.5,920.7 677.5,920.8 677.7,920.4 677.7,920.4 677.8,920 677.9,920 678,919.6 
			678.1,919.6 678.2,919.2 678.3,919.2 678.4,918.8 678.5,918.8 678.6,918.5 678.7,918.5 678.8,918.1 678.9,918.1 679,917.7 
			679.1,917.7 679.2,917.3 679.3,917.3 679.4,916.9 679.4,916.9 679.6,916.5 679.6,916.5 679.8,916.2 679.8,916.2 680,915.8 
			680,915.8 680.2,915.4 680.2,915.4 680.4,915 680.4,915 680.6,914.6 680.6,914.6 751.6,759 813,882.2 1304.2,882.2 1304,881.7 
			1304.5,881.7 1304.2,881.3 1304.7,881.3 1304.5,880.9 1304.9,880.9 1304.7,880.4 1305.2,880.4 1305,880 1305.4,880 1305.2,879.6 
			1305.7,879.6 1305.5,879.2 1305.9,879.2 1305.7,878.7 1306.2,878.7 1306,878.3 1306.4,878.3 1306.2,877.9 1306.7,877.9 
			1306.5,877.4 1306.9,877.4 1306.7,877 1307.2,877 1306.9,876.6 1307.4,876.6 1307.2,876.1 1307.7,876.1 1307.4,875.7 
			1307.9,875.7 1307.7,875.3 1308.1,875.3 1307.9,874.9 1308.4,874.9 1308.2,874.4 1308.6,874.4 1308.4,874 1308.9,874 
			1308.7,873.6 1309.1,873.6 1308.9,873.1 1309.4,873.1 1309.2,872.7 1309.6,872.7 1309.4,872.3 1309.9,872.3 1309.7,871.8 
			1310.1,871.8 1309.9,871.4 1310.4,871.4 1310.1,871 1310.6,871 1310.4,870.6 1310.8,870.6 1310.6,870.1 1311.1,870.1 
			1310.9,869.7 1311.3,869.7 1311.1,869.3 1311.6,869.3 1311.4,868.8 1311.8,868.8 1311.6,868.4 1312.1,868.4 1311.9,868 
			1312.3,868 1312.1,867.5 1312.6,867.5 1312.4,867.1 1312.8,867.1 1312.6,866.7 1313.1,866.7 1312.8,866.3 1313.3,866.3 
			1313.1,865.8 1313.6,865.8 1313.3,865.4 1313.8,865.4 1313.6,865 1314,865 1313.8,864.5 1314.3,864.5 1314.1,864.1 1314.5,864.1 
			1314.3,863.7 1314.8,863.7 1314.6,863.2 1315,863.2 1314.8,862.8 1315.3,862.8 1315.1,862.4 1315.5,862.4 1315.3,862 1315.8,862 
			1315.6,861.5 1316,861.5 1315.8,861.1 1316.3,861.1 1316,860.7 1316.5,860.7 		"/>
		<path display="inline" fill="#2B2133" d="M528.2,824.2h-1.5h-1.5h-1.5h-1.5h-1.5h-1.5h-1.5H516h-1.5h-1.2h-0.3h-1.2h-0.3h-1.2
			h-0.3h-1.2h-0.3h-1.2h-0.3h-1.2h-0.3h-1.2h-0.3h-1.2h-0.3H501h-0.3h-1.2h-0.3H498h-0.3h-1.2h-0.3h-1.2h-0.3h-1.2h-0.3h-1.2h-0.3
			h-1.2H490h-1.2h-0.3h-1.2H487h-1.2h-0.3h-1.2h-0.3h-1.2h-0.3h-1.2h-0.3h-1.2h-0.3h-1.2h-0.3h-1.2h-0.3H475h-0.3h-1.2h-0.3H472
			h-0.3h-1.2h-0.3h-1.2h-0.3h-1.2h-0.3h-1.2h-0.3h-1.2H464h-1.2h-0.3h-1.2H461h-1.2h-0.3h-1.2h-0.3h-1.2h-0.3h-1.2h-0.3h-1.2h-0.3
			h-1.2h-0.3h-1.2h-0.3H449h-1.5H446h-1.5h-1.5h-1.5h-1.5h-1.5h-1.5h-1.5c-28.5,0-51.7,23.1-51.7,51.7l0,0h1.5h1.5h1.5h1.5h1.5h1.5
			h1.5h1.5h1.5h1.5h1.5h1.5h1.5h1.5h1.5h1.5h1.5h1.5h1.5h1.5h1.5h1.5h1.5h1.5h1.5h1.5h1.5h1.5h1.5h1.5h1.5h1.5h1.5h1.5h1.5h1.5h1.5
			h1.5h1.5h1.5h1.5h1.5h1.5h1.5h1.5h1.5h1.5h1.5h1.5h1.5h1.5h40.4h1.5h1.5h1.5h1.5h1.5h1.5h1.5h1.5h1.5h1.5h1.5h1.5h1.5h1.5h1.5h1.5
			h1.5h1.5h1.5h1.5h1.5h1.5h1.5h1.5h1.5h1.5h1.5h1.5h1.5h1.5h1.5h1.5h1.5h1.5h1.5h1.5h1.5h1.5h1.5h1.5h1.5h1.5h1.5h1.5h1.5h1.5h1.5
			h1.5h1.5h1.5h1.5l0,0C579.9,847.4,556.8,824.2,528.2,824.2z"/>
	</g>
</g>
</svg>
