<?xml version="1.0" encoding="utf-8"?>
<!-- Generator: Adobe Illustrator 25.4.1, SVG Export Plug-In . SVG Version: 6.00 Build 0)  -->
<svg version="1.1" xmlns="http://www.w3.org/2000/svg" xmlns:xlink="http://www.w3.org/1999/xlink" x="0px" y="0px"
	 viewBox="0 0 1920 1080" enable-background="new 0 0 1920 1080" xml:space="preserve">
<g id="Layer_1">
	<g id="Layer_3">
	</g>
</g>
<g id="Layer_2">
</g>
<g id="desk_bg">
	
		<linearGradient id="bg1_00000016776571953403322780000017446811024265343881_" gradientUnits="userSpaceOnUse" x1="960" y1="0" x2="960" y2="1080">
		<stop  offset="0" style="stop-color:#F4C21B"/>
		<stop  offset="1" style="stop-color:#F15A29"/>
	</linearGradient>
	<rect id="bg1" display="none" fill="url(#bg1_00000016776571953403322780000017446811024265343881_)" width="1920" height="1080"/>
	<g id="bg2">
		<g>
			<path fill="#2B2133" d="M222.1,224.3c-2.8-3-4.2-7.2-4.2-12.4v-47.3h27v42.1c0,1.5,0.3,2.6,1,3.3c0.7,0.7,1.8,1,3.4,1h3.7v17.8
				h-19C228.9,228.8,224.9,227.3,222.1,224.3z"/>
			<path fill="#2B2133" d="M279.3,229.3c-5.4-0.9-9.7-2.2-12.9-3.8v-19.7c3.4,1.9,7.3,3.6,11.9,4.9c4.6,1.4,8.6,2,11.9,2
				c5.4,0,8.2-0.8,8.2-2.4c0-0.6-0.6-1.2-1.9-1.7c-1.2-0.5-3.5-1.3-6.9-2.5l-5.4-1.7c-6.8-2.2-11.6-4.9-14.5-7.9
				c-2.9-3-4.3-7.2-4.3-12.6c0-6.8,2.7-12,8-15.7c5.4-3.6,12.6-5.5,21.7-5.5c5.3,0,10.4,0.5,15.4,1.4c5,1,8.9,2.2,11.7,3.7v19.7
				c-2.5-1.8-5.7-3.2-9.7-4.4c-4-1.2-7.7-1.8-11-1.8c-5.4,0-8.2,0.8-8.2,2.5c0,1,0.8,1.8,2.4,2.4c1.6,0.6,4,1.4,7.2,2.2l4.9,1.4
				c5,1.6,8.9,3.3,11.5,5.2c2.6,1.9,4.5,4.1,5.5,6.5c1,2.5,1.5,5.6,1.5,9.2c0,6.3-2.6,11.2-7.8,14.6c-5.2,3.4-13.1,5.1-23.6,5.1
				C289.9,230.6,284.7,230.2,279.3,229.3z"/>
			<path fill="#2B2133" d="M262.8,142.3h19.4v-12.2h18.4v12.2h4.9v-12.2h18.4v28.8h-61.1V142.3z"/>
			<path fill="#2B2133" d="M299.2,107.4h24.6v18.5h-24.6V107.4z"/>
			<path fill="#2B2133" d="M354.1,229.1c-6-1-10.9-2.3-14.7-3.8V191h34.9v14.9h-9.4v3.5c0.6,0.2,1.5,0.3,2.9,0.5
				c1.4,0.2,2.7,0.3,3.9,0.3c4.2,0,7.3-1.2,9.4-3.5c2.1-2.3,3.1-5.7,3.1-10.1c0-8.7-6.9-13.1-20.8-13.1c-4.1,0-8.2,0.4-12.3,1.1
				c-4.1,0.8-7.7,1.8-10.7,3.1v-20.5c3.4-1.4,7.8-2.4,13-3.2c5.2-0.8,10.5-1.2,16-1.2c8.5,0,15.9,1.4,22.4,4.1
				c6.4,2.7,11.5,6.6,15.1,11.7c3.6,5.1,5.4,11.1,5.4,18.1c0,7-1.6,13.1-4.8,18.2c-3.2,5.1-7.8,9-13.9,11.7
				c-6.1,2.7-13.3,4.1-21.7,4.1C365.9,230.6,360,230.1,354.1,229.1z"/>
			<path fill="#2B2133" d="M425.1,172.7h26.3l10,37.2c3.4,0,6-1.4,7.9-4.3c1.9-2.8,2.8-6.8,2.8-11.8c0-3.4-0.7-6-2-7.7
				c-1.3-1.7-3.1-2.5-5.5-2.5c-2,0-4,0.4-6.1,1.3v-20c1.6-0.6,3.6-1.1,6-1.5c2.4-0.4,4.7-0.5,7-0.5c10.1,0,17.4,2.6,21.8,7.9
				c4.5,5.2,6.7,12.9,6.7,23.1c0,7.3-1.7,13.6-5,18.8c-3.3,5.3-7.7,9.3-13.3,12.1c-5.5,2.8-11.6,4.1-18.1,4.1h-22.9L425.1,172.7z"/>
			<path fill="#2B2133" d="M519.6,224.3c-2.8-3-4.2-7.2-4.2-12.4v-47.3h27v42.1c0,1.5,0.3,2.6,1,3.3c0.7,0.7,1.8,1,3.4,1h3.7v17.8
				h-19C526.4,228.8,522.4,227.3,519.6,224.3z"/>
			<path fill="#2B2133" d="M569.6,225.3c-4.5-3.6-6.7-8.9-6.7-15.9c0-7,2.4-12.5,7.1-16.4c4.7-3.9,11.2-5.9,19.3-5.9
				c3.1,0,6.5,0.3,10.1,0.9c3.6,0.6,6.6,1.4,8.9,2.3v-1.1c0-2.2-1.4-4-4.2-5.4c-2.8-1.4-6.6-2-11.4-2c-4,0-8,0.4-12.1,1.3
				c-4,0.8-7.6,2-10.6,3.5v-19c2.8-1.4,6.9-2.6,12.2-3.5c5.4-0.9,11-1.3,16.9-1.3c12.1,0,21.1,2.4,27.1,7.2s9,11.4,9,19.8v39h-27
				v-21.4c-1.3-0.7-2.9-1.3-5-1.8c-2-0.5-3.9-0.7-5.7-0.7c-2.2,0-3.9,0.4-5,1.2c-1.1,0.8-1.7,2.1-1.7,4c0,1.5,0.5,2.6,1.6,3.2
				c1,0.6,2.6,1,4.6,1c1.9,0,3.8-0.4,5.6-1.1v15.5c-3.8,1.3-8.6,1.9-14.6,1.9C580.2,230.6,574.1,228.9,569.6,225.3z"/>
			<path fill="#2B2133" d="M580.9,155.2c-3.2-2.8-4.8-6.5-4.8-11.2c0-6.2,1.8-10.8,5.3-13.9c3.5-3.1,8.3-4.6,14.4-4.6h33v13.2h-31.2
				c-2.9,0-4.3,1.1-4.3,3.2c0,1.1,0.3,2,1,2.5c0.6,0.6,1.5,0.8,2.6,0.8c2.6,0,3.8-1.4,3.8-4.3h13.2c0,1.4,0.4,2.4,1.3,3
				c0.8,0.6,2.1,0.8,3.7,0.8h7.9v14h-7.6c-2.9,0-5.4-0.4-7.7-1.3c-2.2-0.9-3.8-2-4.6-3.5c-0.9,1.5-2.5,2.8-5,3.8
				c-2.4,1-5.1,1.5-8.1,1.5C588.4,159.4,584.1,158,580.9,155.2z"/>
			<path fill="#2B2133" d="M656.1,193L650,182c5-6.2,10.9-10.9,17.5-14.2c6.6-3.3,14-5,22.2-5c11.4,0,20.1,2.4,26.3,7.3
				c6.2,4.9,9.2,11.6,9.2,20.2v38.5h-27v-36.5c0-5.8-2.9-8.6-8.6-8.6c-4.1,0-7.6,0.9-10.6,2.6l4.1,7.3v35.2h-27V193z"/>
			<path fill="#2B2133" d="M749.5,223.3c-4.3-4.9-6.5-11.2-6.5-18.8v-39.8h27v38c0,2.2,0.6,4,1.9,5.2c1.2,1.2,3,1.9,5.3,1.9
				c2.3,0,4.1-0.4,5.5-1.3c1.3-0.9,2.4-2.2,3.3-4.1v-39.7h27v64.2h-25.4v-5.4c-2.2,2.2-5.1,3.9-8.6,5.2c-3.5,1.3-7.2,2-11,2
				C759.9,230.6,753.8,228.2,749.5,223.3z"/>
			<path fill="#2B2133" d="M778.3,150.8c0-1.4-0.7-2-2-2h-6V131H785c6.4,0,9.6,2.8,9.6,8.3v3h22.9v16.6h-39.2V150.8z"/>
			<path fill="#2B2133" d="M843,229.1c-6-1-10.9-2.3-14.7-3.8V191h34.9v14.9h-9.4v3.5c0.6,0.2,1.5,0.3,2.9,0.5
				c1.4,0.2,2.7,0.3,3.9,0.3c4.2,0,7.3-1.2,9.4-3.5c2.1-2.3,3.1-5.7,3.1-10.1c0-8.7-6.9-13.1-20.8-13.1c-4.1,0-8.2,0.4-12.3,1.1
				c-4.1,0.8-7.7,1.8-10.7,3.1v-20.5c3.4-1.4,7.8-2.4,13-3.2c5.2-0.8,10.5-1.2,16-1.2c8.5,0,15.9,1.4,22.4,4.1
				c6.4,2.7,11.5,6.6,15.1,11.7c3.6,5.1,5.4,11.1,5.4,18.1c0,7-1.6,13.1-4.8,18.2c-3.2,5.1-7.8,9-13.9,11.7
				c-6.1,2.7-13.3,4.1-21.7,4.1C854.9,230.6,849,230.1,843,229.1z"/>
			<path fill="#2B2133" d="M924,225.4c-6.6-3.5-9.9-8.8-9.9-16c0-2.9,0.5-5.3,1.6-7.4s2.8-3.8,5.1-5.2c-1.9-1.4-3.5-3.4-4.7-5.9
				c-1.2-2.5-1.8-5-1.8-7.7c0-6.2,2.2-11.1,6.5-14.8c4.4-3.7,11.3-5.6,20.8-5.6c2.5,0,5.2,0.2,8,0.6c2.9,0.4,5,0.8,6.2,1.3v18.7
				c-1.2-0.6-2.5-1.1-4-1.5c-1.5-0.4-2.9-0.5-4.1-0.5c-3.7,0-5.5,1.3-5.5,4c0,2.6,1.8,4,5.5,4h8.2v14.9h-7.1c-4.5,0-6.7,1.3-6.7,3.8
				c0,3.1,3,4.7,9,4.7c3.6,0,6.3-0.8,8-2.4c1.7-1.6,2.6-4,2.6-7.3v-38.6h27V203c0,4.6-1.3,9.1-3.8,13.3c-2.6,4.2-6.6,7.6-12.2,10.3
				c-5.6,2.7-12.8,4-21.5,4C939.6,230.6,930.6,228.9,924,225.4z"/>
			<path fill="#2B2133" d="M1006.5,164.6h25.4v5.4c2.4-2.2,5.4-4,8.9-5.3c3.6-1.3,7.1-1.9,10.7-1.9c8.4,0,14.6,2.1,18.7,6.3
				s6.1,10,6.1,17.5v42.2h-27v-38.3c0-2.2-0.6-3.9-1.7-5.1c-1.1-1.2-2.7-1.7-4.8-1.7c-2.1,0-3.9,0.5-5.6,1.4c-1.6,0.9-2.9,2.3-3.9,4
				v39.7h-27V164.6z"/>
			<path fill="#2B2133" d="M1015.2,142.3h36.5v-12.2h24.6v28.8h-61.1V142.3z"/>
			<path fill="#2B2133" d="M1051.6,107.4h24.6v18.5h-24.6V107.4z"/>
			<path fill="#2B2133" d="M1101.4,224.3c-2.8-3-4.2-7.2-4.2-12.4v-35.8c0-9,2.3-15.6,7-19.8h-17.8v-17.8h50.2v15.5
				c-4.5,1.7-7.7,4.4-9.5,8.1c-1.9,3.7-2.8,8.3-2.8,13.7v30.8c0,1.5,0.3,2.6,1,3.3c0.7,0.7,1.8,1,3.4,1h4.9v17.8h-20.2
				C1108.2,228.8,1104.2,227.3,1101.4,224.3z"/>
			<path fill="#2B2133" d="M1182.4,228.7c-3.5-1.3-6.4-3.1-8.6-5.2v5.4h-25.4v-64.2h27v39.7c0.9,1.8,2,3.2,3.3,4.1
				c1.3,0.9,3.1,1.3,5.5,1.3c2.3,0,4.1-0.6,5.3-1.9c1.2-1.2,1.9-3,1.9-5.2v-38h27v39.8c0,7.7-2.2,14-6.5,18.8
				c-4.3,4.9-10.4,7.3-18.4,7.3C1189.6,230.6,1185.9,230,1182.4,228.7z"/>
			<path fill="#2B2133" d="M1191,135.6h27v23.3h-27V135.6z"/>
			<path fill="#2B2133" d="M1240.2,224.3c-2.8-3-4.2-7.2-4.2-12.4v-47.3h27v42.1c0,1.5,0.3,2.6,1,3.3c0.7,0.7,1.8,1,3.4,1h3.7v17.8
				h-19C1247,228.8,1243,227.3,1240.2,224.3z"/>
			<path fill="#2B2133" d="M1290.2,225.3c-4.5-3.6-6.7-8.9-6.7-15.9c0-7,2.4-12.5,7.1-16.4c4.7-3.9,11.2-5.9,19.3-5.9
				c3.1,0,6.5,0.3,10.1,0.9c3.6,0.6,6.6,1.4,8.9,2.3v-1.1c0-2.2-1.4-4-4.2-5.4c-2.8-1.4-6.6-2-11.4-2c-4,0-8,0.4-12.1,1.3
				c-4,0.8-7.6,2-10.6,3.5v-19c2.8-1.4,6.9-2.6,12.2-3.5c5.4-0.9,11-1.3,16.9-1.3c12.1,0,21.1,2.4,27.1,7.2s9,11.4,9,19.8v39h-27
				v-21.4c-1.3-0.7-2.9-1.3-5-1.8c-2-0.5-3.9-0.7-5.7-0.7c-2.2,0-3.9,0.4-5,1.2c-1.1,0.8-1.7,2.1-1.7,4c0,1.5,0.5,2.6,1.6,3.2
				c1,0.6,2.6,1,4.6,1c1.9,0,3.8-0.4,5.6-1.1v15.5c-3.8,1.3-8.6,1.9-14.6,1.9C1300.8,230.6,1294.7,228.9,1290.2,225.3z"/>
			<path fill="#2B2133" d="M1301.5,155.2c-3.2-2.8-4.8-6.5-4.8-11.2c0-6.2,1.8-10.8,5.3-13.9c3.5-3.1,8.3-4.6,14.4-4.6h33v13.2
				h-31.2c-2.9,0-4.3,1.1-4.3,3.2c0,1.1,0.3,2,1,2.5c0.6,0.6,1.5,0.8,2.6,0.8c2.6,0,3.8-1.4,3.8-4.3h13.2c0,1.4,0.4,2.4,1.3,3
				c0.8,0.6,2.1,0.8,3.7,0.8h7.9v14h-7.6c-2.9,0-5.4-0.4-7.7-1.3c-2.2-0.9-3.8-2-4.6-3.5c-0.9,1.5-2.5,2.8-5,3.8
				c-2.4,1-5.1,1.5-8.1,1.5C1309,159.4,1304.7,158,1301.5,155.2z"/>
			<path fill="#2B2133" d="M1376.8,193l-6.1-10.9c5-6.2,10.9-10.9,17.5-14.2c6.6-3.3,14-5,22.2-5c11.4,0,20.1,2.4,26.3,7.3
				c6.2,4.9,9.2,11.6,9.2,20.2v38.5h-27v-36.5c0-5.8-2.9-8.6-8.6-8.6c-4.1,0-7.6,0.9-10.6,2.6l4.1,7.3v35.2h-27V193z"/>
			<path fill="#2B2133" d="M222.3,345.3c-4.5-3.6-6.7-8.9-6.7-15.9c0-7,2.4-12.5,7.1-16.4c4.7-3.9,11.2-5.9,19.3-5.9
				c3.1,0,6.5,0.3,10.1,0.9c3.6,0.6,6.6,1.4,8.9,2.3v-1.1c0-2.2-1.4-4-4.2-5.4c-2.8-1.4-6.6-2-11.4-2c-4,0-8,0.4-12.1,1.3
				c-4,0.8-7.6,2-10.6,3.5v-19c2.8-1.4,6.8-2.6,12.1-3.5c5.2-0.9,10.8-1.3,16.7-1.3c3.7,0,7.1,0.4,10.3,1.3l3.1-4.3h28.7l-11.8,13.9
				c2.3,1.8,3.9,4.1,4.8,6.8c0.9,2.7,1.3,5.8,1.3,9.3v39h-27v-21.4c-1.3-0.7-2.9-1.3-5-1.8c-2-0.5-3.9-0.7-5.7-0.7
				c-2.2,0-3.9,0.4-5,1.2c-1.1,0.8-1.7,2.1-1.7,4c0,1.5,0.5,2.6,1.6,3.2c1,0.6,2.6,1,4.6,1c1.9,0,3.8-0.4,5.6-1.1v15.5
				c-3.8,1.3-8.6,1.9-14.6,1.9C232.9,350.6,226.7,348.9,222.3,345.3z"/>
			<path fill="#2B2133" d="M268.3,278.5c-2.5-1.4-4.4-3.4-5.9-5.8c-1.4-2.4-2.2-5.1-2.2-8s0.7-5.6,2.2-8c1.4-2.5,3.4-4.4,5.9-5.9
				c2.5-1.4,5.2-2.2,8-2.2s5.5,0.7,8,2.2c2.4,1.4,4.4,3.4,5.8,5.9c1.4,2.5,2.2,5.2,2.2,8s-0.7,5.5-2.2,8c-1.4,2.4-3.4,4.4-5.8,5.8
				c-2.4,1.4-5.1,2.2-8,2.2S270.8,280,268.3,278.5z M279.1,267.7c0.8-0.8,1.2-1.8,1.2-2.9c0-1.1-0.4-2.1-1.1-2.9
				c-0.8-0.8-1.7-1.2-2.8-1.2c-1.1,0-2.1,0.4-2.8,1.2c-0.8,0.8-1.1,1.8-1.1,2.9c0,1.1,0.4,2.1,1.1,2.9c0.8,0.8,1.7,1.2,2.8,1.2
				C277.4,268.9,278.3,268.5,279.1,267.7z"/>
			<path fill="#2B2133" d="M324.3,312.1c0-2.6-0.7-4.6-2.1-6.1c-1.4-1.5-3.6-2.3-6.7-2.3c-3.6,0-7,0.9-10.1,2.6v-19.9
				c1.8-1,4.4-1.8,7.9-2.5c3.5-0.7,6.8-1.1,9.7-1.1c9,0,16,2.3,20.9,6.8c4.9,4.5,7.3,11.2,7.3,20v39.2h-27V312.1z"/>
			<path fill="#2B2133" d="M371.5,284.6h27v15.2l14.3-15.2h30.5l-15.8,17c5.6,2,9.4,4.7,11.5,8c2.1,3.3,3.1,7.9,3.1,13.7v25.4h-27
				v-22.4c0-2.5-0.3-4.3-1-5.4c-0.7-1.1-2-2-3.9-2.5l-11.6,11.2v19.2h-27V284.6z"/>
			<path fill="#2B2133" d="M473.8,349.3c-5.4-0.9-9.7-2.2-12.9-3.8v-19.7c3.4,1.9,7.3,3.6,11.9,4.9c4.6,1.4,8.6,2,11.9,2
				c5.4,0,8.2-0.8,8.2-2.4c0-0.6-0.6-1.2-1.9-1.7c-1.2-0.5-3.5-1.3-6.9-2.5l-5.4-1.7c-6.8-2.2-11.6-4.9-14.5-7.9
				c-2.9-3-4.3-7.2-4.3-12.6c0-6.8,2.7-12,8-15.7c5.4-3.6,12.6-5.5,21.7-5.5c5.3,0,10.4,0.5,15.4,1.4c5,1,8.9,2.2,11.7,3.7v19.7
				c-2.5-1.8-5.7-3.2-9.7-4.4c-4-1.2-7.7-1.8-11-1.8c-5.4,0-8.2,0.8-8.2,2.5c0,1,0.8,1.8,2.4,2.4c1.6,0.6,4,1.4,7.2,2.2l4.9,1.4
				c5,1.6,8.9,3.3,11.5,5.2c2.6,1.9,4.5,4.1,5.5,6.5c1,2.5,1.5,5.6,1.5,9.2c0,6.3-2.6,11.2-7.8,14.6c-5.2,3.4-13.1,5.1-23.6,5.1
				C484.5,350.6,479.2,350.2,473.8,349.3z"/>
			<path fill="#2B2133" d="M482.7,275.9c-2.3-2-3.5-4.9-3.5-8.6v-14.4h24v7.2c0,0.7,0.2,1.3,0.7,1.7c0.4,0.4,1.1,0.6,1.9,0.6h23.8
				v16.6H493C488.4,278.9,485,277.9,482.7,275.9z"/>
			<path fill="#2B2133" d="M555.9,347c-5.4-2.4-9.6-5.8-12.6-10.1c-3-4.3-4.4-9.2-4.4-14.7v-37.6h27v34.4c0,3.7,0.7,6.4,2,8.1
				c1.3,1.7,3.7,2.6,7,2.6c3.3,0,5.6-0.9,7-2.6c1.4-1.7,2-4.4,2-8.1v-34.4h27v37.6c0,5.5-1.5,10.4-4.5,14.7
				c-3,4.3-7.2,7.6-12.7,10.1c-5.4,2.4-11.7,3.7-18.8,3.7C567.6,350.6,561.3,349.4,555.9,347z"/>
			<path fill="#2B2133" d="M632.8,344.3c-2.8-3-4.2-7.2-4.2-12.4v-24.2c0-3.5,0.7-6.5,2.1-9c1.4-2.5,3.4-5.1,5.9-7.9
				c0.2-0.3,0.8-1,1.7-2c0.9-1,1.5-2,2-2.9c0.4-0.9,0.7-1.7,0.7-2.4c0-1.8-0.5-3.1-1.4-4c-0.9-0.9-2.5-1.3-4.6-1.3
				c-2.3,0-4.5,0.5-6.6,1.4c-2.1,1-4,2.3-5.6,4v-21c2.7-1.6,6-2.9,9.8-3.8c3.8-0.9,7.9-1.4,12.2-1.4c8.1,0,14.1,1.7,18.1,5
				c4,3.4,6,7.9,6,13.6c0,3-0.6,5.8-1.7,8.2c-1.1,2.4-2.8,5.3-5.2,8.6c-2.2,3.1-3.8,5.8-4.9,8.1c-1.1,2.3-1.6,4.8-1.6,7.6v18.2
				c0,1.5,0.3,2.6,1,3.3c0.7,0.7,1.8,1,3.4,1h4.9v17.8h-20.2C639.6,348.8,635.6,347.3,632.8,344.3z"/>
			<path fill="#2B2133" d="M683.2,311.2c0-9.6,3.3-16.7,9.8-21.4c6.5-4.6,15.4-7,26.6-7c11.2,0,20.1,2.3,26.6,7
				c6.5,4.6,9.8,11.8,9.8,21.4v37.7h-27v-35.4c0-3-0.8-5.3-2.3-7.1c-1.6-1.8-3.9-2.6-7-2.6c-3.1,0-5.5,0.9-7,2.6
				c-1.6,1.8-2.3,4.1-2.3,7.1v3.8c1.8-1.2,4.2-1.8,7.2-1.8h8v17.8h-9.5c-2.1,0-3.6,0.5-4.4,1.6c-0.9,1-1.3,2.6-1.3,4.7v9.4h-27
				V311.2z"/>
			<path fill="#2B2133" d="M787.6,349.3c-5.4-0.9-9.7-2.2-12.9-3.8v-19.7c3.4,1.9,7.3,3.6,11.9,4.9c4.6,1.4,8.6,2,11.9,2
				c5.4,0,8.2-0.8,8.2-2.4c0-0.6-0.6-1.2-1.9-1.7c-1.2-0.5-3.5-1.3-6.9-2.5l-5.4-1.7c-6.8-2.2-11.6-4.9-14.5-7.9
				c-2.9-3-4.3-7.2-4.3-12.6c0-6.8,2.7-12,8-15.7c5.4-3.6,12.6-5.5,21.7-5.5c5.3,0,10.4,0.5,15.4,1.4c5,1,8.9,2.2,11.7,3.7v19.7
				c-2.5-1.8-5.7-3.2-9.7-4.4c-4-1.2-7.7-1.8-11-1.8c-5.4,0-8.2,0.8-8.2,2.5c0,1,0.8,1.8,2.4,2.4c1.6,0.6,4,1.4,7.2,2.2l4.9,1.4
				c5,1.6,8.9,3.3,11.5,5.2c2.6,1.9,4.5,4.1,5.5,6.5c1,2.5,1.5,5.6,1.5,9.2c0,6.3-2.6,11.2-7.8,14.6c-5.2,3.4-13.1,5.1-23.6,5.1
				C798.3,350.6,793,350.2,787.6,349.3z"/>
			<path fill="#2B2133" d="M869.7,347c-5.4-2.4-9.6-5.8-12.6-10.1c-3-4.3-4.4-9.2-4.4-14.7v-37.6h27v34.4c0,3.7,0.7,6.4,2,8.1
				c1.3,1.7,3.7,2.6,7,2.6c3.3,0,5.6-0.9,7-2.6c1.4-1.7,2-4.4,2-8.1v-34.4h27v37.6c0,5.5-1.5,10.4-4.5,14.7
				c-3,4.3-7.2,7.6-12.7,10.1c-5.4,2.4-11.7,3.7-18.8,3.7C881.4,350.6,875.1,349.4,869.7,347z"/>
			<path fill="#2B2133" d="M958.9,312.1c0-2.6-0.7-4.6-2.1-6.1c-1.4-1.5-3.6-2.3-6.7-2.3c-3.6,0-7,0.9-10.1,2.6v-19.9
				c1.8-1,4.4-1.8,7.9-2.5c3.5-0.7,6.8-1.1,9.7-1.1c9,0,16,2.3,20.9,6.8c4.9,4.5,7.3,11.2,7.3,20v39.2h-27V312.1z"/>
			<path fill="#2B2133" d="M1003.8,292.7h26.3l10,37.2c3.4,0,6-1.4,7.9-4.3c1.9-2.8,2.8-6.8,2.8-11.8c0-3.4-0.7-6-2-7.7
				c-1.3-1.7-3.1-2.5-5.5-2.5c-2,0-4,0.4-6.1,1.3v-20c1.6-0.6,3.6-1.1,6-1.5c2.4-0.4,4.7-0.5,7-0.5c10.1,0,17.4,2.6,21.8,7.9
				c4.5,5.2,6.7,12.9,6.7,23.1c0,7.3-1.7,13.6-5,18.8c-3.3,5.3-7.7,9.3-13.3,12.1c-5.5,2.8-11.6,4.1-18.1,4.1h-22.9L1003.8,292.7z"
				/>
			<path fill="#2B2133" d="M1096.6,311.2c0-9.6,3.3-16.7,9.8-21.4c6.5-4.6,15.4-7,26.6-7c11.2,0,20.1,2.3,26.6,7
				c6.5,4.6,9.8,11.8,9.8,21.4v37.7h-27v-35.4c0-3-0.8-5.3-2.3-7.1c-1.6-1.8-3.9-2.6-7-2.6c-3.1,0-5.5,0.9-7,2.6
				c-1.6,1.8-2.3,4.1-2.3,7.1v3.8c1.8-1.2,4.2-1.8,7.2-1.8h8v17.8h-9.5c-2.1,0-3.6,0.5-4.4,1.6c-0.9,1-1.3,2.6-1.3,4.7v9.4h-27
				V311.2z"/>
			<path fill="#2B2133" d="M1196.1,343.3c-4.3-4.9-6.5-11.2-6.5-18.8v-39.8h27v38c0,2.2,0.6,4,1.9,5.2c1.2,1.2,3,1.9,5.3,1.9
				c2.3,0,4.1-0.4,5.5-1.3c1.3-0.9,2.4-2.2,3.3-4.1v-39.7h27v64.2h-25.4v-5.4c-2.2,2.2-5.1,3.9-8.6,5.2c-3.5,1.3-7.2,2-11,2
				C1206.5,350.6,1200.4,348.2,1196.1,343.3z"/>
		</g>
		<g>
			<path fill="#2B2133" d="M221.4,408.1c0-0.9,0.2-1.7,0.7-2.4c0.5-0.7,1.1-1.3,1.9-1.6c-1-0.3-2.2-0.5-3.9-0.6
				c0.1-1.5,0.5-2.8,1.3-3.9s1.8-2,3-2.6c1.3-0.6,2.7-0.9,4.4-0.9c2.4,0,4.3,0.7,5.7,2c1.4,1.3,2.2,3.1,2.2,5.3v13.8h-3.1v-13.5
				c0-1.6-0.5-2.8-1.4-3.7s-2.1-1.4-3.7-1.4c-1.3,0-2.4,0.3-3.4,0.9c-1,0.6-1.7,1.4-2,2.4c0.9,0.1,1.7,0.3,2.4,0.6
				c0.8,0.3,1.4,0.7,1.8,1.2v0.6c-0.9,0.3-1.6,0.7-2.1,1.4c-0.5,0.7-0.8,1.4-0.8,2.3v9.2h-3.1V408.1z"/>
			<path fill="#2B2133" d="M252.8,401.8c0-1-0.3-1.8-1-2.4c-0.7-0.6-1.6-0.9-2.7-0.9c-1.2,0-2.2,0.3-2.9,1c-0.7,0.7-1.1,1.6-1.1,2.7
				h-3c0-1.9,0.6-3.4,1.9-4.6c1.2-1.1,2.9-1.7,5.1-1.7c2.1,0,3.7,0.5,4.9,1.5c1.2,1,1.8,2.4,1.8,4.2v15.4h-3.1V401.8z"/>
			<path fill="#2B2133" d="M265.6,399.1c-0.4,0.4-0.7,0.9-0.7,1.6c2.7,0.3,5,0.9,6.8,1.8c1.9,0.8,2.8,1.9,2.8,3.1v8.1
				c0,1.1-0.4,2-1.1,2.8c-0.7,0.7-1.7,1.1-2.8,1.1c-1.1,0-2-0.3-2.8-1s-1.1-1.6-1.1-2.6c0-1.1,0.3-2,1-2.7s1.5-1,2.6-1
				c0.3,0,0.7,0.1,1,0.2V406c0-0.7-0.9-1.3-2.7-1.9s-4.2-1.1-7.2-1.5c0-2.1,0.5-3.7,1.4-4.9c0.9-1.1,2.2-1.7,3.8-1.7
				c0.6,0,1.2,0.1,1.7,0.2c0.6,0.1,1.3,0.3,2.3,0.6c1,0.3,1.7,0.5,2,0.5c0.3,0,0.6-0.1,0.8-0.4c0.2-0.2,0.4-0.6,0.5-1l2.3,0.6
				c-0.3,1-0.7,1.8-1.3,2.3c-0.6,0.6-1.2,0.8-1.9,0.8c-0.3,0-0.8-0.1-1.3-0.2c-0.5-0.1-1.1-0.3-1.6-0.4c-0.1,0-0.6-0.2-1.3-0.3
				c-0.7-0.2-1.4-0.3-1.9-0.3C266.5,398.6,266,398.7,265.6,399.1z M271.6,415.1c0.3-0.3,0.5-0.7,0.5-1.2c0-0.5-0.2-0.9-0.5-1.2
				c-0.3-0.3-0.7-0.5-1.2-0.5s-0.9,0.2-1.2,0.5c-0.3,0.3-0.5,0.7-0.5,1.2c0,0.5,0.2,0.9,0.5,1.2c0.3,0.3,0.7,0.5,1.2,0.5
				S271.3,415.4,271.6,415.1z"/>
			<path fill="#2B2133" d="M295.8,397.8c1.5,1.1,2.2,2.6,2.2,4.5v10.2c0,1.6-0.7,2.9-2,3.8c-1.3,0.9-3.2,1.4-5.5,1.4
				s-4.2-0.5-5.5-1.4c-1.3-0.9-1.9-2.2-1.9-3.8v-5.8c0-1.1,0.4-2,1.1-2.7c0.7-0.7,1.6-1.1,2.8-1.1s2,0.3,2.8,1
				c0.7,0.7,1.1,1.5,1.1,2.6s-0.3,2-1,2.6c-0.7,0.7-1.5,1-2.6,1c-0.3,0-0.7,0-1-0.1v2.1c0,0.9,0.4,1.7,1.2,2.2s1.9,0.8,3.3,0.8
				s2.5-0.3,3.2-0.8c0.7-0.5,1.1-1.3,1.1-2.2v-9.8c0-1.1-0.5-2-1.4-2.7c-0.9-0.7-2.2-1-3.8-1c-1.5,0-2.8,0.3-3.8,0.9
				s-1.7,1.5-1.9,2.5h-3c0.2-1.8,1.1-3.3,2.7-4.3c1.6-1.1,3.6-1.6,6.1-1.6C292.3,396.1,294.3,396.6,295.8,397.8z M285.8,405.3
				c-0.3,0.3-0.5,0.7-0.5,1.2c0,0.5,0.2,0.9,0.5,1.2s0.7,0.5,1.2,0.5c0.5,0,0.9-0.2,1.2-0.5c0.3-0.3,0.5-0.7,0.5-1.2
				c0-0.5-0.2-0.9-0.5-1.2c-0.3-0.3-0.7-0.5-1.2-0.5C286.5,404.9,286.1,405,285.8,405.3z"/>
			<path fill="#2B2133" d="M318.7,397.8c1.5,1.1,2.2,2.6,2.2,4.5v10.2c0,1.6-0.7,2.9-2,3.8c-1.3,0.9-3.2,1.4-5.5,1.4
				s-4.2-0.5-5.5-1.4c-1.3-0.9-1.9-2.2-1.9-3.8v-5.8c0-1.1,0.4-2,1.1-2.7c0.7-0.7,1.6-1.1,2.8-1.1s2,0.3,2.8,1
				c0.7,0.7,1.1,1.5,1.1,2.6s-0.3,2-1,2.6c-0.7,0.7-1.5,1-2.6,1c-0.3,0-0.7,0-1-0.1v2.1c0,0.9,0.4,1.7,1.2,2.2s1.9,0.8,3.3,0.8
				s2.5-0.3,3.2-0.8c0.7-0.5,1.1-1.3,1.1-2.2v-9.8c0-1.1-0.5-2-1.4-2.7c-0.9-0.7-2.2-1-3.8-1c-1.5,0-2.8,0.3-3.8,0.9
				s-1.7,1.5-1.9,2.5h-3c0.2-1.8,1.1-3.3,2.7-4.3c1.6-1.1,3.6-1.6,6.1-1.6C315.2,396.1,317.2,396.6,318.7,397.8z M308.7,405.3
				c-0.3,0.3-0.5,0.7-0.5,1.2c0,0.5,0.2,0.9,0.5,1.2s0.7,0.5,1.2,0.5c0.5,0,0.9-0.2,1.2-0.5c0.3-0.3,0.5-0.7,0.5-1.2
				c0-0.5-0.2-0.9-0.5-1.2c-0.3-0.3-0.7-0.5-1.2-0.5C309.4,404.9,309,405,308.7,405.3z"/>
			<path fill="#2B2133" d="M328.1,408.1c0-0.9,0.2-1.7,0.7-2.4c0.5-0.7,1.1-1.3,1.9-1.6c-1-0.3-2.2-0.5-3.9-0.6
				c0.1-1.5,0.5-2.8,1.3-3.9s1.8-2,3-2.6c1.3-0.6,2.7-0.9,4.4-0.9c2.4,0,4.3,0.7,5.7,2c1.4,1.3,2.2,3.1,2.2,5.3v13.8h-3.1v-13.5
				c0-1.6-0.5-2.8-1.4-3.7s-2.1-1.4-3.7-1.4c-1.3,0-2.4,0.3-3.4,0.9c-1,0.6-1.7,1.4-2,2.4c0.9,0.1,1.7,0.3,2.4,0.6
				c0.8,0.3,1.4,0.7,1.8,1.2v0.6c-0.9,0.3-1.6,0.7-2.1,1.4c-0.5,0.7-0.8,1.4-0.8,2.3v9.2h-3.1V408.1z"/>
			<path fill="#2B2133" d="M357.3,411.2c0.7,0.7,1,1.6,1,2.7c0,1.1-0.4,1.9-1.1,2.6c-0.7,0.7-1.6,1-2.8,1c-1.2,0-2.1-0.4-2.8-1.1
				c-0.7-0.7-1.1-1.6-1.1-2.8v-17.3h3v13.9c0.4-0.1,0.7-0.2,1-0.2C355.8,410.2,356.6,410.5,357.3,411.2z M355.9,415.1
				c0.3-0.3,0.5-0.7,0.5-1.2c0-0.5-0.2-0.9-0.5-1.2c-0.3-0.3-0.7-0.5-1.2-0.5s-0.9,0.2-1.2,0.5c-0.3,0.3-0.5,0.7-0.5,1.2
				c0,0.5,0.2,0.9,0.5,1.2c0.3,0.3,0.7,0.5,1.2,0.5S355.6,415.4,355.9,415.1z"/>
			<path fill="#2B2133" d="M370.2,411.2c0.7,0.7,1,1.6,1,2.7c0,1.1-0.4,1.9-1.1,2.6c-0.7,0.7-1.6,1-2.8,1c-1.2,0-2.1-0.4-2.8-1.1
				c-0.7-0.7-1.1-1.6-1.1-2.8v-17.3h3v13.9c0.4-0.1,0.7-0.2,1-0.2C368.7,410.2,369.6,410.5,370.2,411.2z M368.8,415.1
				c0.3-0.3,0.5-0.7,0.5-1.2c0-0.5-0.2-0.9-0.5-1.2c-0.3-0.3-0.7-0.5-1.2-0.5s-0.9,0.2-1.2,0.5c-0.3,0.3-0.5,0.7-0.5,1.2
				c0,0.5,0.2,0.9,0.5,1.2c0.3,0.3,0.7,0.5,1.2,0.5S368.5,415.4,368.8,415.1z"/>
			<path fill="#2B2133" d="M394.2,396.4v16.2c0,1.5-0.7,2.7-2,3.6c-1.3,0.9-3.2,1.3-5.5,1.3c-2.4,0-4.2-0.4-5.5-1.3
				c-1.3-0.9-2-2.1-2-3.6v-9.4c-0.4,0.1-0.7,0.2-1,0.2c-1.1,0-1.9-0.3-2.6-1c-0.7-0.7-1-1.6-1-2.7c0-1.1,0.4-1.9,1.1-2.6
				c0.7-0.7,1.6-1,2.7-1c1.2,0,2.1,0.4,2.8,1.1c0.7,0.7,1.1,1.6,1.1,2.8v12.5c0,0.8,0.4,1.5,1.2,2s1.9,0.7,3.3,0.7
				c1.4,0,2.5-0.2,3.3-0.7s1.2-1.1,1.2-2v-15.9H394.2z M377,400.9c0.3,0.3,0.7,0.5,1.2,0.5c0.5,0,0.9-0.2,1.2-0.5s0.5-0.7,0.5-1.2
				s-0.2-0.9-0.5-1.2s-0.7-0.5-1.2-0.5c-0.5,0-0.9,0.2-1.2,0.5s-0.5,0.7-0.5,1.2S376.6,400.6,377,400.9z"/>
			<path fill="#2B2133" d="M419.2,396.4v16.2c0,1.5-0.7,2.7-2,3.6c-1.3,0.9-3.2,1.3-5.5,1.3c-2.4,0-4.2-0.4-5.5-1.3
				c-1.3-0.9-2-2.1-2-3.6v-9.4c-0.4,0.1-0.7,0.2-1,0.2c-1.1,0-1.9-0.3-2.6-1c-0.7-0.7-1-1.6-1-2.7c0-1.1,0.4-1.9,1.1-2.6
				c0.7-0.7,1.6-1,2.7-1c1.2,0,2.1,0.4,2.8,1.1c0.7,0.7,1.1,1.6,1.1,2.8v12.5c0,0.8,0.4,1.5,1.2,2s1.9,0.7,3.3,0.7
				c1.4,0,2.5-0.2,3.3-0.7s1.2-1.1,1.2-2v-15.9H419.2z M401.9,400.9c0.3,0.3,0.7,0.5,1.2,0.5c0.5,0,0.9-0.2,1.2-0.5s0.5-0.7,0.5-1.2
				s-0.2-0.9-0.5-1.2s-0.7-0.5-1.2-0.5c-0.5,0-0.9,0.2-1.2,0.5s-0.5,0.7-0.5,1.2S401.6,400.6,401.9,400.9z"/>
			<path fill="#2B2133" d="M444.6,400.5v16.7h-3.1v-16.6c0-1.2-0.4-1.8-1.2-1.8c-0.4,0-0.7,0.1-0.9,0.3c-0.2,0.2-0.4,0.5-0.5,0.8
				l-6.6,17.4h-3.2v-13.9c-0.4,0.1-0.7,0.2-1,0.2c-1.1,0-1.9-0.3-2.6-1c-0.7-0.7-1-1.6-1-2.7c0-1.1,0.4-1.9,1.1-2.6
				c0.7-0.7,1.6-1,2.7-1c1.2,0,2.1,0.4,2.8,1.1c0.7,0.7,1.1,1.6,1.1,2.8v9.4c0,1-0.1,2.2-0.3,3.7l1-3.8l3.6-9.9
				c0.8-2.2,2.2-3.2,4.2-3.2C443.3,396.1,444.6,397.5,444.6,400.5z M426.9,400.9c0.3,0.3,0.7,0.5,1.2,0.5c0.5,0,0.9-0.2,1.2-0.5
				s0.5-0.7,0.5-1.2s-0.2-0.9-0.5-1.2s-0.7-0.5-1.2-0.5c-0.5,0-0.9,0.2-1.2,0.5s-0.5,0.7-0.5,1.2S426.6,400.6,426.9,400.9z"/>
			<path fill="#2B2133" d="M444.5,393.3c-1.8-0.7-3.8-1.2-6-1.6c-2.3-0.4-4.5-0.6-6.6-0.6c-1.5,0-2.7,0.1-3.8,0.3
				c0.1-2,0.9-3.6,2.3-4.8c1.4-1.2,3.2-1.8,5.5-1.8c2.4,0,4.3,0.7,5.8,2v-4h2.6v8.6C444.3,391.9,444.4,392.5,444.5,393.3z
				 M437.7,389.8c1.5,0.2,2.9,0.6,4,1c-0.6-1.3-1.3-2.3-2.4-2.9c-1-0.6-2.2-1-3.6-1c-1.2,0-2.2,0.2-3.1,0.7
				c-0.9,0.5-1.4,1.1-1.7,1.9c0.5,0,1.2-0.1,2.2-0.1C434.7,389.4,436.2,389.5,437.7,389.8z"/>
			<path fill="#2B2133" d="M441.7,374h2.5v6.9h-2.5V374z"/>
			<path fill="#2B2133" d="M465.8,397.9c1.5,1.2,2.3,2.9,2.3,5v14.2H465v-13.9c0-1.4-0.5-2.6-1.5-3.4s-2.3-1.3-4-1.3
				c-1.8,0-3.3,0.5-4.4,1.4c-1.1,0.9-1.6,2.2-1.6,3.8c0,0.5,0.1,1.2,0.2,2c0.1,0.8,0.2,1.3,0.3,1.5c0.1,0.3,0.2,0.7,0.3,1.3
				c0.4-1.8,1-3.2,1.9-4.3c0.9-1.1,2-1.6,3.3-1.6c1.1,0,1.9,0.3,2.5,0.8c0.6,0.6,0.9,1.3,0.9,2.4c0,1-0.3,1.7-0.9,2.4
				c-0.6,0.6-1.4,0.9-2.3,0.9c-0.6,0-1.1-0.1-1.6-0.4s-0.9-0.6-1.2-1.1c-0.5,0.7-0.9,1.7-1.2,2.8c-0.3,1.1-0.5,2.1-0.5,3.1v3.7h-3
				V412c0-0.4-0.1-0.9-0.2-1.5c-0.1-0.6-0.3-1.3-0.5-2c-0.6-2.3-0.9-3.9-0.9-4.9c0-2.3,0.8-4.1,2.4-5.5c1.6-1.4,3.8-2,6.6-2
				C462.2,396.1,464.2,396.7,465.8,397.9z M458.5,404.7c-0.3,0.3-0.4,0.6-0.4,1.1c0,0.5,0.1,0.8,0.4,1.1c0.3,0.3,0.6,0.4,1.1,0.4
				s0.8-0.1,1.1-0.4c0.3-0.3,0.4-0.7,0.4-1.1c0-0.5-0.1-0.8-0.4-1.1c-0.3-0.3-0.6-0.4-1.1-0.4S458.8,404.4,458.5,404.7z"/>
			<path fill="#2B2133" d="M477.8,399.1c-0.4,0.4-0.7,0.9-0.7,1.6c2.7,0.3,5,0.9,6.8,1.8c1.9,0.8,2.8,1.9,2.8,3.1v8.1
				c0,1.1-0.4,2-1.1,2.8c-0.7,0.7-1.7,1.1-2.8,1.1c-1.1,0-2-0.3-2.8-1s-1.1-1.6-1.1-2.6c0-1.1,0.3-2,1-2.7s1.5-1,2.6-1
				c0.3,0,0.7,0.1,1,0.2V406c0-0.7-0.9-1.3-2.7-1.9s-4.2-1.1-7.2-1.5c0-2.1,0.5-3.7,1.4-4.9c0.9-1.1,2.2-1.7,3.8-1.7
				c0.6,0,1.2,0.1,1.7,0.2c0.6,0.1,1.3,0.3,2.3,0.6c1,0.3,1.7,0.5,2,0.5c0.3,0,0.6-0.1,0.8-0.4c0.2-0.2,0.4-0.6,0.5-1l2.3,0.6
				c-0.3,1-0.7,1.8-1.3,2.3c-0.6,0.6-1.2,0.8-1.9,0.8c-0.3,0-0.8-0.1-1.3-0.2c-0.5-0.1-1.1-0.3-1.6-0.4c-0.1,0-0.6-0.2-1.3-0.3
				c-0.7-0.2-1.4-0.3-1.9-0.3C478.7,398.6,478.2,398.7,477.8,399.1z M483.8,415.1c0.3-0.3,0.5-0.7,0.5-1.2c0-0.5-0.2-0.9-0.5-1.2
				c-0.3-0.3-0.7-0.5-1.2-0.5s-0.9,0.2-1.2,0.5c-0.3,0.3-0.5,0.7-0.5,1.2c0,0.5,0.2,0.9,0.5,1.2c0.3,0.3,0.7,0.5,1.2,0.5
				S483.5,415.4,483.8,415.1z"/>
			<path fill="#2B2133" d="M507.9,397.8c1.5,1.1,2.2,2.6,2.2,4.5v10.2c0,1.6-0.7,2.9-2,3.8c-1.3,0.9-3.2,1.4-5.5,1.4
				s-4.2-0.5-5.5-1.4c-1.3-0.9-1.9-2.2-1.9-3.8v-5.8c0-1.1,0.4-2,1.1-2.7c0.7-0.7,1.6-1.1,2.8-1.1s2,0.3,2.8,1
				c0.7,0.7,1.1,1.5,1.1,2.6s-0.3,2-1,2.6c-0.7,0.7-1.5,1-2.6,1c-0.3,0-0.7,0-1-0.1v2.1c0,0.9,0.4,1.7,1.2,2.2s1.9,0.8,3.3,0.8
				s2.5-0.3,3.2-0.8c0.7-0.5,1.1-1.3,1.1-2.2v-9.8c0-1.1-0.5-2-1.4-2.7c-0.9-0.7-2.2-1-3.8-1c-1.5,0-2.8,0.3-3.8,0.9
				s-1.7,1.5-1.9,2.5h-3c0.2-1.8,1.1-3.3,2.7-4.3c1.6-1.1,3.6-1.6,6.1-1.6C504.5,396.1,506.5,396.6,507.9,397.8z M498,405.3
				c-0.3,0.3-0.5,0.7-0.5,1.2c0,0.5,0.2,0.9,0.5,1.2s0.7,0.5,1.2,0.5c0.5,0,0.9-0.2,1.2-0.5c0.3-0.3,0.5-0.7,0.5-1.2
				c0-0.5-0.2-0.9-0.5-1.2c-0.3-0.3-0.7-0.5-1.2-0.5C498.7,404.9,498.3,405,498,405.3z"/>
			<path fill="#2B2133" d="M535.2,396.4v16.2c0,1.5-0.7,2.7-2,3.6c-1.3,0.9-3.2,1.3-5.5,1.3c-2.4,0-4.2-0.4-5.5-1.3
				c-1.3-0.9-2-2.1-2-3.6v-9.4c-0.4,0.1-0.7,0.2-1,0.2c-1.1,0-1.9-0.3-2.6-1c-0.7-0.7-1-1.6-1-2.7c0-1.1,0.4-1.9,1.1-2.6
				c0.7-0.7,1.6-1,2.7-1c1.2,0,2.1,0.4,2.8,1.1c0.7,0.7,1.1,1.6,1.1,2.8v12.5c0,0.8,0.4,1.5,1.2,2s1.9,0.7,3.3,0.7
				c1.4,0,2.5-0.2,3.3-0.7s1.2-1.1,1.2-2v-15.9H535.2z M517.9,400.9c0.3,0.3,0.7,0.5,1.2,0.5c0.5,0,0.9-0.2,1.2-0.5s0.5-0.7,0.5-1.2
				s-0.2-0.9-0.5-1.2s-0.7-0.5-1.2-0.5c-0.5,0-0.9,0.2-1.2,0.5s-0.5,0.7-0.5,1.2S517.6,400.6,517.9,400.9z"/>
			<path fill="#2B2133" d="M556.3,397.9c1.5,1.2,2.3,2.9,2.3,5v14.2h-3.1v-13.9c0-1.4-0.5-2.6-1.5-3.4s-2.3-1.3-4-1.3
				c-1.8,0-3.3,0.5-4.4,1.4c-1.1,0.9-1.6,2.2-1.6,3.8c0,0.5,0.1,1.2,0.2,2c0.1,0.8,0.2,1.3,0.3,1.5c0.1,0.3,0.2,0.7,0.3,1.3
				c0.4-1.8,1-3.2,1.9-4.3c0.9-1.1,2-1.6,3.3-1.6c1.1,0,1.9,0.3,2.5,0.8c0.6,0.6,0.9,1.3,0.9,2.4c0,1-0.3,1.7-0.9,2.4
				c-0.6,0.6-1.4,0.9-2.3,0.9c-0.6,0-1.1-0.1-1.6-0.4s-0.9-0.6-1.2-1.1c-0.5,0.7-0.9,1.7-1.2,2.8c-0.3,1.1-0.5,2.1-0.5,3.1v3.7h-3
				V412c0-0.4-0.1-0.9-0.2-1.5c-0.1-0.6-0.3-1.3-0.5-2c-0.6-2.3-0.9-3.9-0.9-4.9c0-2.3,0.8-4.1,2.4-5.5c1.6-1.4,3.8-2,6.6-2
				C552.7,396.1,554.8,396.7,556.3,397.9z M549.1,404.7c-0.3,0.3-0.4,0.6-0.4,1.1c0,0.5,0.1,0.8,0.4,1.1c0.3,0.3,0.6,0.4,1.1,0.4
				s0.8-0.1,1.1-0.4c0.3-0.3,0.4-0.7,0.4-1.1c0-0.5-0.1-0.8-0.4-1.1c-0.3-0.3-0.6-0.4-1.1-0.4S549.3,404.4,549.1,404.7z"/>
			<path fill="#2B2133" d="M579,397.7c1.5,1.1,2.2,2.6,2.2,4.5v14.9h-3v-8.5c0-1.1-0.5-1.9-1.5-2.6s-2.2-0.9-3.5-0.9
				c-1.3,0-2.3,0.3-3.2,0.9c-0.9,0.6-1.3,1.5-1.3,2.5v1.7c0.4-0.1,0.7-0.2,1-0.2c1.1,0,1.9,0.3,2.6,1c0.7,0.7,1,1.6,1,2.7
				c0,1.1-0.4,1.9-1.1,2.6s-1.6,1-2.8,1c-1.2,0-2.1-0.4-2.8-1.1c-0.7-0.7-1.1-1.6-1.1-2.8v-5c0-1.2,0.3-2.2,1-3.1
				c0.6-0.9,1.5-1.5,2.6-2s2.4-0.7,3.7-0.7c1,0,1.9,0.2,2.8,0.5c0.9,0.3,1.7,0.8,2.4,1.5v-2.7c0-1.1-0.5-2-1.4-2.6
				c-0.9-0.6-2.2-1-3.8-1c-1.5,0-2.8,0.3-3.9,0.9c-1,0.6-1.7,1.5-1.9,2.5h-3c0.2-1.8,1-3.3,2.6-4.3c1.6-1.1,3.6-1.6,6.1-1.6
				C575.5,396.1,577.6,396.6,579,397.7z M570.9,412.6c-0.3-0.3-0.7-0.5-1.2-0.5c-0.5,0-0.9,0.2-1.2,0.5c-0.3,0.3-0.5,0.7-0.5,1.2
				c0,0.5,0.2,0.9,0.5,1.2c0.3,0.3,0.7,0.5,1.2,0.5c0.5,0,0.9-0.2,1.2-0.5c0.3-0.3,0.5-0.7,0.5-1.2
				C571.4,413.4,571.3,413,570.9,412.6z"/>
			<path fill="#2B2133" d="M578.5,425.1c-0.3,0.1-0.6,0.1-1,0.1c-0.9,0-1.6-0.3-2.1-0.8c-0.6-0.6-0.8-1.3-0.8-2.1
				c0-0.9,0.3-1.6,1-2.1c0.6-0.6,1.4-0.8,2.4-0.8c1.1,0,1.9,0.3,2.5,0.8c0.6,0.6,1,1.3,1,2.1v6.8h-2.8V425.1z M578.4,423.2
				c0.2-0.2,0.4-0.6,0.4-0.9c0-0.4-0.1-0.7-0.4-0.9c-0.2-0.2-0.6-0.4-0.9-0.4c-0.4,0-0.7,0.1-0.9,0.4c-0.2,0.2-0.4,0.6-0.4,0.9
				c0,0.4,0.1,0.7,0.4,0.9c0.2,0.2,0.6,0.4,0.9,0.4C577.8,423.6,578.2,423.5,578.4,423.2z"/>
			<path fill="#2B2133" d="M605.1,396.4v20.7h-2.9c-1-0.9-2.2-1.7-3.5-2.4c-1.3-0.7-2.5-1.2-3.6-1.6c0,0.1,0,0.2,0,0.4
				c0,1.2-0.4,2.1-1.2,2.8c-0.8,0.7-1.7,1.1-2.9,1.1s-2.1-0.4-2.9-1.1c-0.7-0.7-1.1-1.7-1.1-2.8c0-1.1,0.4-2,1.1-2.8
				c0.7-0.7,1.7-1.1,2.9-1.1c0.2,0,0.3,0,0.4,0v-6.6c-0.4,0.1-0.7,0.2-1,0.2c-1.1,0-1.9-0.3-2.6-1c-0.7-0.7-1-1.6-1-2.7
				c0-1.1,0.4-1.9,1.1-2.6c0.7-0.7,1.6-1,2.8-1c1.2,0,2.1,0.4,2.8,1.1c0.7,0.7,1.1,1.6,1.1,2.8v10.5c1.4,0.4,2.7,0.9,4,1.6
				c1.3,0.6,2.4,1.3,3.3,2v-17.5H605.1z M589.5,400.9c0.3,0.3,0.7,0.5,1.2,0.5c0.5,0,0.9-0.2,1.2-0.5s0.5-0.7,0.5-1.2
				s-0.2-0.9-0.5-1.2s-0.7-0.5-1.2-0.5c-0.5,0-0.9,0.2-1.2,0.5c-0.3,0.3-0.5,0.7-0.5,1.2S589.2,400.6,589.5,400.9z M592.4,414.9
				c0.3-0.3,0.5-0.8,0.5-1.3c0-0.5-0.2-0.9-0.5-1.2c-0.3-0.3-0.8-0.5-1.3-0.5c-0.5,0-0.9,0.2-1.2,0.5c-0.3,0.3-0.5,0.7-0.5,1.2
				c0,0.5,0.2,1,0.5,1.3s0.7,0.5,1.2,0.5C591.6,415.4,592.1,415.3,592.4,414.9z"/>
			<path fill="#2B2133" d="M629.3,396.4v20.7h-3.2l-5.4-8l-5.4,8h-3.2v-17.3c0-1.1,0.4-2,1.1-2.8c0.7-0.7,1.7-1.1,2.8-1.1
				c1.1,0,2,0.3,2.8,1c0.7,0.7,1.1,1.6,1.1,2.6c0,1.1-0.3,2-1,2.7c-0.7,0.7-1.5,1-2.6,1c-0.3,0-0.6,0-1-0.1v9.6l4.5-6.4h2.2l4.5,6.4
				v-16.5H629.3z M614.9,398.5c-0.3,0.3-0.5,0.7-0.5,1.2s0.2,0.9,0.5,1.2c0.3,0.3,0.7,0.5,1.2,0.5s0.9-0.2,1.2-0.5
				c0.3-0.3,0.5-0.7,0.5-1.2s-0.2-0.9-0.5-1.2c-0.3-0.3-0.7-0.5-1.2-0.5S615.2,398.2,614.9,398.5z"/>
			<path fill="#2B2133" d="M622,428.3c-0.7-0.6-1.1-1.4-1.1-2.4v-0.8c-0.4,0.1-0.7,0.1-1,0.1c-0.9,0-1.6-0.3-2.1-0.8
				c-0.5-0.6-0.8-1.3-0.8-2.1c0-0.9,0.3-1.6,0.9-2.1c0.6-0.6,1.3-0.8,2.2-0.8c1,0,1.8,0.3,2.4,0.8c0.6,0.5,1,1.2,1,2v3.8
				c0,0.4,0.1,0.7,0.4,0.9c0.3,0.2,0.7,0.3,1.2,0.3c0.5,0,0.9-0.1,1.2-0.3c0.3-0.2,0.4-0.5,0.4-0.9v-6.4h2.6v6.4
				c0,1-0.4,1.8-1.1,2.4c-0.7,0.6-1.8,0.8-3.2,0.8C623.7,429.1,622.7,428.8,622,428.3z M620.9,423.2c0.2-0.2,0.4-0.6,0.4-0.9
				c0-0.4-0.1-0.7-0.4-0.9s-0.6-0.4-0.9-0.4c-0.4,0-0.7,0.1-0.9,0.4s-0.4,0.6-0.4,0.9c0,0.4,0.1,0.7,0.4,0.9s0.6,0.4,0.9,0.4
				C620.4,423.6,620.7,423.5,620.9,423.2z"/>
			<path fill="#2B2133" d="M633.1,383.1c-0.2,1.8-0.9,3.5-2,4.9c-1.1,1.4-2.6,2.5-4.4,3.2c-1.8,0.8-3.8,1.1-6,1.1h-1.4v-1.4
				c0.6-0.2,1.2-0.6,1.8-1s1.1-0.9,1.5-1.4c-0.1,0-0.3,0-0.5,0c-0.9,0-1.6-0.3-2.1-0.8c-0.5-0.5-0.8-1.2-0.8-2.1
				c0-0.8,0.3-1.5,0.9-2.1s1.3-0.8,2.2-0.8s1.7,0.3,2.2,0.9s0.9,1.3,0.9,2.3c0,0.7-0.2,1.5-0.6,2.3c-0.4,0.8-0.9,1.5-1.5,2
				c1.9-0.3,3.5-1.1,4.8-2.4c1.3-1.3,2-2.9,2.2-4.7H633.1z M621.3,386.6c0.3,0.3,0.6,0.4,1,0.4s0.7-0.1,1-0.4c0.3-0.3,0.4-0.6,0.4-1
				s-0.1-0.7-0.4-1c-0.3-0.3-0.6-0.4-1-0.4c-0.4,0-0.7,0.1-1,0.4c-0.2,0.2-0.4,0.6-0.4,1C620.9,386,621.1,386.4,621.3,386.6z"/>
			<path fill="#2B2133" d="M653.2,396.4v20.7h-2.9c-1-0.9-2.2-1.7-3.5-2.4c-1.3-0.7-2.5-1.2-3.6-1.6c0,0.1,0,0.2,0,0.4
				c0,1.2-0.4,2.1-1.2,2.8c-0.8,0.7-1.7,1.1-2.9,1.1s-2.1-0.4-2.9-1.1c-0.7-0.7-1.1-1.7-1.1-2.8c0-1.1,0.4-2,1.1-2.8
				c0.7-0.7,1.7-1.1,2.9-1.1c0.2,0,0.3,0,0.4,0v-6.6c-0.4,0.1-0.7,0.2-1,0.2c-1.1,0-1.9-0.3-2.6-1c-0.7-0.7-1-1.6-1-2.7
				c0-1.1,0.4-1.9,1.1-2.6c0.7-0.7,1.6-1,2.8-1c1.2,0,2.1,0.4,2.8,1.1c0.7,0.7,1.1,1.6,1.1,2.8v10.5c1.4,0.4,2.7,0.9,4,1.6
				c1.3,0.6,2.4,1.3,3.3,2v-17.5H653.2z M637.5,400.9c0.3,0.3,0.7,0.5,1.2,0.5c0.5,0,0.9-0.2,1.2-0.5s0.5-0.7,0.5-1.2
				s-0.2-0.9-0.5-1.2s-0.7-0.5-1.2-0.5c-0.5,0-0.9,0.2-1.2,0.5c-0.3,0.3-0.5,0.7-0.5,1.2S637.2,400.6,637.5,400.9z M640.4,414.9
				c0.3-0.3,0.5-0.8,0.5-1.3c0-0.5-0.2-0.9-0.5-1.2c-0.3-0.3-0.8-0.5-1.3-0.5c-0.5,0-0.9,0.2-1.2,0.5c-0.3,0.3-0.5,0.7-0.5,1.2
				c0,0.5,0.2,1,0.5,1.3s0.7,0.5,1.2,0.5C639.7,415.4,640.1,415.3,640.4,414.9z"/>
			<path fill="#2B2133" d="M653.4,393.3c-1.8-0.7-3.8-1.2-6-1.6c-2.3-0.4-4.5-0.6-6.6-0.6c-1.5,0-2.7,0.1-3.8,0.3
				c0.1-2,0.9-3.6,2.3-4.8c1.4-1.2,3.2-1.8,5.5-1.8c2.4,0,4.3,0.7,5.8,2v-4h2.6v8.6C653.2,391.9,653.3,392.5,653.4,393.3z
				 M646.6,389.8c1.5,0.2,2.9,0.6,4,1c-0.6-1.3-1.3-2.3-2.4-2.9c-1-0.6-2.2-1-3.6-1c-1.2,0-2.2,0.2-3.1,0.7
				c-0.9,0.5-1.4,1.1-1.7,1.9c0.5,0,1.2-0.1,2.2-0.1C643.6,389.4,645.1,389.5,646.6,389.8z"/>
			<path fill="#2B2133" d="M675,398c1.4,1.3,2.1,3.1,2.1,5.3v13.8H674v-13.5c0-1.6-0.5-2.8-1.4-3.7c-0.9-0.9-2.2-1.4-3.7-1.4
				c-1.2,0-2.4,0.3-3.3,0.9c-1,0.6-1.6,1.4-2,2.4c0.9,0.1,1.7,0.3,2.5,0.6c0.8,0.3,1.4,0.7,1.8,1.2v0.6c-0.8,0.2-1.4,0.6-1.8,1.2
				c-0.4,0.6-0.6,1.3-0.6,2.1c0,0.5,0.1,1.4,0.3,2.5c0.3,1.5,0.4,2.7,0.4,3.5c0,1.2-0.4,2.1-1.1,2.8c-0.7,0.7-1.7,1.1-2.9,1.1
				c-1.1,0-2-0.3-2.8-1c-0.7-0.7-1.1-1.5-1.1-2.6s0.3-2,1-2.7c0.7-0.7,1.5-1,2.6-1c0.3,0,0.6,0,1,0.1c-0.3-0.9-0.4-1.8-0.4-2.6
				s0.2-1.5,0.5-2.2s0.8-1.2,1.4-1.5c-0.9-0.3-2.2-0.5-3.9-0.6c0.1-1.4,0.5-2.7,1.2-3.8s1.7-2,3-2.6c1.3-0.6,2.7-0.9,4.3-0.9
				C671.6,396.1,673.5,396.7,675,398z M663.3,415.1c0.3-0.3,0.5-0.7,0.5-1.2c0-0.5-0.2-0.9-0.5-1.2c-0.3-0.3-0.7-0.5-1.2-0.5
				c-0.5,0-0.9,0.2-1.2,0.5c-0.3,0.3-0.5,0.7-0.5,1.2c0,0.5,0.2,0.9,0.5,1.2c0.3,0.3,0.7,0.5,1.2,0.5
				C662.6,415.5,663,415.4,663.3,415.1z"/>
			<path fill="#2B2133" d="M693.3,401.8c0-1-0.3-1.8-1-2.4c-0.7-0.6-1.6-0.9-2.7-0.9c-1.2,0-2.2,0.3-2.9,1c-0.7,0.7-1.1,1.6-1.1,2.7
				h-3c0-1.9,0.6-3.4,1.9-4.6c1.2-1.1,2.9-1.7,5.1-1.7c2.1,0,3.7,0.5,4.9,1.5c1.2,1,1.8,2.4,1.8,4.2v15.4h-3.1V401.8z"/>
			<path fill="#2B2133" d="M714.5,397.8c1.3,1.1,2,2.7,2,4.6v11.4c0,1.1-0.4,2-1.1,2.8c-0.7,0.7-1.7,1.1-2.8,1.1c-1.1,0-2-0.3-2.8-1
				s-1.1-1.6-1.1-2.6c0-1.1,0.3-2,1-2.7s1.5-1,2.6-1c0.3,0,0.7,0.1,1,0.2v-7.7c0-1.3-0.4-2.3-1.2-3c-0.8-0.7-1.8-1.1-3.2-1.1
				c-1.2,0-2.3,0.3-3.1,1c-0.9,0.7-1.4,1.6-1.5,2.7h-3.1c0.2-1.9,1-3.4,2.4-4.5c1.4-1.1,3.2-1.7,5.4-1.7
				C711.4,396.1,713.2,396.6,714.5,397.8z M713.7,415.1c0.3-0.3,0.5-0.7,0.5-1.2c0-0.5-0.2-0.9-0.5-1.2c-0.3-0.3-0.7-0.5-1.2-0.5
				s-0.9,0.2-1.2,0.5c-0.3,0.3-0.5,0.7-0.5,1.2c0,0.5,0.2,0.9,0.5,1.2c0.3,0.3,0.7,0.5,1.2,0.5S713.4,415.4,713.7,415.1z"/>
			<path fill="#2B2133" d="M726,404.9c-1-0.4-1.9-1-2.5-1.7c-0.6-0.7-0.9-1.5-0.9-2.5c0-1.1,0.4-2,1.1-2.7s1.6-1.1,2.7-1.1
				c1.1,0,1.9,0.4,2.7,1.1c0.7,0.7,1.1,1.6,1.1,2.7c0,1-0.4,1.8-1.2,2.4c0.1,0,0.3,0,0.5,0c1.7,0,3.1-0.6,4-1.7
				c0.9-1.1,1.4-2.7,1.5-4.6h3c0,1.7-0.4,3.1-1.1,4.4c-0.7,1.3-1.6,2.3-2.9,3.1c-1.2,0.7-2.7,1.1-4.5,1.1
				C728.2,405.5,727.1,405.3,726,404.9z M726,415.9c-1-0.4-1.9-1-2.5-1.7s-0.9-1.5-0.9-2.5c0-1.1,0.4-2,1.1-2.7
				c0.7-0.7,1.6-1.1,2.7-1.1c1.1,0,1.9,0.4,2.7,1.1c0.7,0.7,1.1,1.6,1.1,2.7c0,1-0.4,1.8-1.2,2.4c0.1,0,0.3,0,0.5,0
				c1.8-0.1,3.1-0.7,4-1.7c0.9-1.1,1.4-2.6,1.4-4.6h3c0,1.7-0.4,3.1-1.1,4.4c-0.7,1.3-1.6,2.3-2.9,3.1c-1.2,0.7-2.7,1.1-4.5,1.1
				C728.2,416.5,727.1,416.3,726,415.9z M727.5,401.8c0.3-0.3,0.4-0.7,0.4-1.2c0-0.5-0.1-0.9-0.4-1.2s-0.7-0.4-1.2-0.4
				c-0.5,0-0.9,0.1-1.2,0.4s-0.4,0.7-0.4,1.2c0,0.5,0.1,0.9,0.4,1.2s0.7,0.4,1.2,0.4C726.9,402.2,727.3,402.1,727.5,401.8z
				 M727.5,412.8c0.3-0.3,0.4-0.7,0.4-1.2c0-0.5-0.1-0.9-0.4-1.2s-0.7-0.5-1.2-0.5c-0.5,0-0.9,0.2-1.2,0.5s-0.4,0.7-0.4,1.2
				c0,0.5,0.1,0.9,0.4,1.2c0.3,0.3,0.7,0.5,1.2,0.5C726.9,413.2,727.3,413.1,727.5,412.8z"/>
			<path fill="#2B2133" d="M759.7,398.4c0.9,1.3,1.4,2.9,1.4,4.8v13.9h-3.1v-13.8c0-1.2-0.2-2.1-0.5-2.9c-0.3-0.7-0.8-1.3-1.5-1.8
				l-3.6,2.7l-3.8-2.8c-0.8,0.5-1.3,1.2-1.7,1.9s-0.5,1.8-0.5,3c0,0.5,0.1,1.1,0.2,1.8c0.1,0.6,0.3,1.5,0.6,2.4
				c0.2,0.9,0.4,1.7,0.6,2.3c0.1,0.6,0.2,1.2,0.2,1.6v1.2c0.4-0.5,0.8-1,1.3-1.5c0.5-0.5,1.3-1.2,2.5-2.2c-0.8-0.1-1.4-0.4-1.9-1
				c-0.5-0.6-0.7-1.3-0.7-2.1c0-0.9,0.3-1.7,0.9-2.3c0.6-0.6,1.4-0.9,2.4-0.9c0.9,0,1.7,0.3,2.3,0.9c0.6,0.6,0.9,1.4,0.9,2.4
				c0,0.9-0.3,1.7-0.9,2.4c-0.6,0.7-1.5,1.7-2.7,2.7c-1.2,1.1-2.2,2.1-2.9,3c-0.7,0.8-1,1.8-1.1,2.8h-3v-5c0-0.5-0.2-1.7-0.7-3.5
				c-0.3-1.1-0.6-2.1-0.7-2.9c-0.2-0.8-0.3-1.5-0.3-2.2c0-1.9,0.5-3.6,1.4-4.9c1-1.4,2.3-2.2,4.1-2.6l3.5,2.8l3.5-2.8
				C757.5,396.3,758.8,397.1,759.7,398.4z M751.3,407.2c0.3,0.3,0.7,0.4,1.1,0.4c0.5,0,0.8-0.1,1.1-0.4c0.3-0.3,0.4-0.7,0.4-1.1
				c0-0.4-0.1-0.8-0.4-1.1c-0.3-0.3-0.6-0.4-1.1-0.4c-0.5,0-0.8,0.1-1.1,0.4s-0.4,0.6-0.4,1.1C750.8,406.5,751,406.9,751.3,407.2z"
				/>
			<path fill="#2B2133" d="M777.3,401.8c0-1-0.3-1.8-1-2.4c-0.7-0.6-1.6-0.9-2.7-0.9c-1.2,0-2.2,0.3-2.9,1c-0.7,0.7-1.1,1.6-1.1,2.7
				h-3c0-1.9,0.6-3.4,1.9-4.6c1.2-1.1,2.9-1.7,5.1-1.7c2.1,0,3.7,0.5,4.9,1.5c1.2,1,1.8,2.4,1.8,4.2v15.4h-3.1V401.8z"/>
			<path fill="#2B2133" d="M805.3,396.4v16.2c0,1.5-0.7,2.7-2,3.6c-1.3,0.9-3.2,1.3-5.5,1.3c-2.4,0-4.2-0.4-5.5-1.3
				c-1.3-0.9-2-2.1-2-3.6v-9.4c-0.4,0.1-0.7,0.2-1,0.2c-1.1,0-1.9-0.3-2.6-1c-0.7-0.7-1-1.6-1-2.7c0-1.1,0.4-1.9,1.1-2.6
				c0.7-0.7,1.6-1,2.7-1c1.2,0,2.1,0.4,2.8,1.1c0.7,0.7,1.1,1.6,1.1,2.8v12.5c0,0.8,0.4,1.5,1.2,2s1.9,0.7,3.3,0.7
				c1.4,0,2.5-0.2,3.3-0.7s1.2-1.1,1.2-2v-15.9H805.3z M788.1,400.9c0.3,0.3,0.7,0.5,1.2,0.5c0.5,0,0.9-0.2,1.2-0.5s0.5-0.7,0.5-1.2
				s-0.2-0.9-0.5-1.2s-0.7-0.5-1.2-0.5c-0.5,0-0.9,0.2-1.2,0.5s-0.5,0.7-0.5,1.2S787.8,400.6,788.1,400.9z"/>
			<path fill="#2B2133" d="M826,397.8c1.5,1.1,2.2,2.6,2.2,4.5v10.2c0,1.6-0.7,2.9-2,3.8c-1.3,0.9-3.2,1.4-5.5,1.4s-4.2-0.5-5.5-1.4
				c-1.3-0.9-1.9-2.2-1.9-3.8v-5.8c0-1.1,0.4-2,1.1-2.7c0.7-0.7,1.6-1.1,2.8-1.1s2,0.3,2.8,1c0.7,0.7,1.1,1.5,1.1,2.6s-0.3,2-1,2.6
				c-0.7,0.7-1.5,1-2.6,1c-0.3,0-0.7,0-1-0.1v2.1c0,0.9,0.4,1.7,1.2,2.2s1.9,0.8,3.3,0.8s2.5-0.3,3.2-0.8c0.7-0.5,1.1-1.3,1.1-2.2
				v-9.8c0-1.1-0.5-2-1.4-2.7c-0.9-0.7-2.2-1-3.8-1c-1.5,0-2.8,0.3-3.8,0.9s-1.7,1.5-1.9,2.5h-3c0.2-1.8,1.1-3.3,2.7-4.3
				c1.6-1.1,3.6-1.6,6.1-1.6C822.5,396.1,824.5,396.6,826,397.8z M816.1,405.3c-0.3,0.3-0.5,0.7-0.5,1.2c0,0.5,0.2,0.9,0.5,1.2
				s0.7,0.5,1.2,0.5c0.5,0,0.9-0.2,1.2-0.5c0.3-0.3,0.5-0.7,0.5-1.2c0-0.5-0.2-0.9-0.5-1.2c-0.3-0.3-0.7-0.5-1.2-0.5
				C816.8,404.9,816.4,405,816.1,405.3z"/>
			<path fill="#2B2133" d="M849.1,398c1.5,1.3,2.2,3.1,2.2,5.3v13.8h-3.1v-13.6c0-1.6-0.5-2.8-1.4-3.7s-2.2-1.3-3.9-1.3
				c-1.2,0-2.3,0.2-3.2,0.7c-0.9,0.5-1.5,1.1-1.9,1.8c-0.4,0.7-0.6,1.5-0.6,2.3c0,0.5,0.1,1.1,0.2,1.7c0.1,0.6,0.3,1.5,0.6,2.5
				c0.2,1,0.4,1.7,0.5,2.3c0.1,0.6,0.2,1.1,0.2,1.6v0.7c0.5-0.7,1.4-1.7,2.8-2.9l0.8-0.8c-0.8-0.1-1.5-0.5-2-1s-0.7-1.3-0.7-2.1
				c0-0.9,0.3-1.7,0.9-2.3c0.6-0.6,1.4-0.9,2.4-0.9c0.9,0,1.7,0.3,2.3,0.9c0.6,0.6,0.9,1.4,0.9,2.4c0,0.9-0.3,1.8-0.8,2.6
				c-0.6,0.8-1.4,1.8-2.6,2.9c-1.2,1.2-2.1,2.2-2.8,3.1c-0.6,0.9-1,1.9-1.1,3h-3v-5c0-0.5-0.2-1.7-0.7-3.5c-0.3-1.2-0.6-2.1-0.7-3
				s-0.3-1.6-0.3-2.2c0-1.3,0.3-2.6,1-3.7c0.7-1.1,1.7-2,3-2.7c1.3-0.7,2.9-1,4.7-1C845.5,396.1,847.6,396.7,849.1,398z
				 M841.8,406.7c0.3,0.3,0.7,0.4,1.1,0.4s0.8-0.1,1.1-0.4c0.3-0.3,0.4-0.7,0.4-1.1s-0.1-0.8-0.4-1.1c-0.3-0.3-0.6-0.4-1.1-0.4
				s-0.8,0.1-1.1,0.4c-0.3,0.3-0.4,0.6-0.4,1.1S841.5,406.4,841.8,406.7z"/>
			<path fill="#2B2133" d="M872.5,398.4c1,1.1,1.5,2.3,1.5,3.9v14.9h-3V409c0-1.1-0.5-1.9-1.5-2.6s-2.2-0.9-3.5-0.9
				c-1.3,0-2.3,0.3-3.2,0.9c-0.9,0.6-1.3,1.5-1.3,2.5v1.4c0.4-0.1,0.7-0.2,1-0.2c1.1,0,1.9,0.3,2.6,1c0.7,0.7,1,1.6,1,2.7
				c0,1.1-0.4,1.9-1.1,2.6s-1.6,1-2.8,1c-1.2,0-2.1-0.4-2.8-1.1c-0.7-0.7-1.1-1.6-1.1-2.8v-4.8c0-1.5,0.5-2.7,1.5-3.7
				c1-1,2.3-1.6,4-1.9c2-1.4,3.6-2.8,4.8-4.2c-0.9-0.3-1.9-0.5-3-0.5c-1.5,0-2.8,0.3-3.9,0.9c-1,0.6-1.7,1.5-1.9,2.5h-3
				c0.2-1.8,1-3.3,2.6-4.3c1.6-1.1,3.6-1.6,6.1-1.6c1.8,0,3.3,0.3,4.7,0.9c0.6-0.9,1-1.8,1.1-2.6h3.5
				C874.6,395.6,873.8,396.9,872.5,398.4z M863.6,412.6c-0.3-0.3-0.7-0.5-1.2-0.5c-0.5,0-0.9,0.2-1.2,0.5c-0.3,0.3-0.5,0.7-0.5,1.2
				c0,0.5,0.2,0.9,0.5,1.2c0.3,0.3,0.7,0.5,1.2,0.5c0.5,0,0.9-0.2,1.2-0.5c0.3-0.3,0.5-0.7,0.5-1.2
				C864.1,413.4,863.9,413,863.6,412.6z M870.9,402.2c0-0.6-0.2-1.2-0.5-1.7c-1.1,1-2.2,1.9-3.5,2.8c1.7,0.2,3,0.8,4,1.8V402.2z"/>
			<path fill="#2B2133" d="M874.2,393.3c-1.8-0.7-3.8-1.2-6-1.6c-2.3-0.4-4.5-0.6-6.6-0.6c-1.5,0-2.7,0.1-3.8,0.3
				c0.1-2,0.9-3.6,2.3-4.8c1.4-1.2,3.2-1.8,5.5-1.8c2.4,0,4.3,0.7,5.8,2v-4h2.6v8.6C874,391.9,874.1,392.5,874.2,393.3z
				 M867.4,389.8c1.5,0.2,2.9,0.6,4,1c-0.6-1.3-1.3-2.3-2.4-2.9c-1-0.6-2.2-1-3.6-1c-1.2,0-2.2,0.2-3.1,0.7
				c-0.9,0.5-1.4,1.1-1.7,1.9c0.5,0,1.2-0.1,2.2-0.1C864.4,389.4,865.9,389.5,867.4,389.8z"/>
		</g>
	</g>
	<path id="bg3" display="none" fill="#382E3F" d="M1461.6,781.8l-29.5-48.4h-92.5v-41.8H1591c10.9,0,19.7-8.8,19.7-19.7V412.3
		c0-10.9-8.8-19.7-19.7-19.7h-581.6c-10.9,0-19.7,8.8-19.7,19.7v259.6c0,10.9,8.8,19.7,19.7,19.7h251.5v41.8h-92.5l-29.5,48.4H574.3
		v-79.5h-45.6v-50.5h-32.2v-17.7h-8.8c-1.1-14.1-5.3-33.3-18.4-48.1c-12.5-14.1-30.3-21.2-52.9-21.2c-11,0-20.4,4.1-27.9,12.1
		c-21.3,23-21.9,75.2-19,125.4h-6.4v-50.5H261v6.4h-12.7v9.7c-16.5,2-41.5,8.4-63.1,28.2c-21.7,20-34.7,48.8-38.9,85.7H0v325.8h1920
		V781.8H1461.6z M403.1,590.5c3.6-3.9,7.8-5.7,13.2-5.7c16.6,0,29.3,4.8,37.8,14.4c9.1,10.2,12.3,24.1,13.3,34.9h-8.8v17.7h-32.2
		v50.5h-37C387,657.9,387,607.9,403.1,590.5z M198.6,711c16.6-15.4,36.2-20.9,49.7-22.9v7.8H261v6.4h-45.6v79.5h-48.9
		C170.4,751,181.1,727.2,198.6,711z"/>
	<path id="bg4" display="none" fill="#2B2133" d="M1654.6,875.9v-71.7h0v40c2.5,0,15.9-0.4,29.7-8.1c11.2-6.3,30.1-22,30.1-56.5
		c0-34.5-18.9-50.2-30.1-56.5c-13.8-7.7-27.1-8.1-29.7-8.1v40h0v-59.3c0-12.5-10.1-22.6-22.6-22.6h-2.9l33.6-143.5l2.8,0.7l2.5-10.7
		l-2.8-0.7l2.5-10.7c0,0,3.1-13.3-9.8-16.4c-12.9-3-16,10.3-16,10.3l-2.5,10.7l-2.8-0.7l-2.5,10.7l2.8,0.7l-35,149.5h-139.3
		c-12.5,0-22.6,10.1-22.6,22.6v180.3h-132.4l-0.1-0.2h0.5l-0.2-0.4h0.5l-0.2-0.4h0.5l-0.2-0.4h0.5l-0.2-0.4h0.5l-0.2-0.4h0.5
		l-0.2-0.4h0.5l-0.2-0.4h0.5l-0.2-0.4h0.5l-0.2-0.4h0.5l-0.2-0.4h0.5l-0.2-0.4h0.5l-0.2-0.4h0.5l-0.2-0.4h0.5l-0.2-0.4h0.5l-0.2-0.4
		h0.5l-0.2-0.4h0.5l-0.2-0.4h0.5l-0.2-0.4h0.5l-0.2-0.4h0.5l-0.2-0.4h0.5l-0.2-0.4h0.5l-0.2-0.4h0.5l-0.2-0.4h0.5l-0.2-0.4h0.5
		l-0.2-0.4h0.5l-0.2-0.4h0.5l-0.2-0.4h0.5l-0.2-0.4h0.5l-0.2-0.4h0.5l-0.2-0.4h0.5l-0.2-0.4h0.5l-0.2-0.4h0.5l-0.2-0.4h0.5l-0.2-0.4
		h0.5l-0.2-0.4h0.5l-0.2-0.4h0.5L1212.5,651H721.3l0.2,0.4h-0.5l0.2,0.4h-0.5l0.2,0.4h-0.5l0.2,0.4h-0.5l0.2,0.4h-0.5l0.2,0.4h-0.5
		l0.2,0.4h-0.5l0.2,0.4h-0.5l0.2,0.4h-0.5l0.2,0.4h-0.5l0.2,0.4h-0.5l0.2,0.4h-0.5l0.2,0.4h-0.5l0.2,0.4h-0.5l0.2,0.4h-0.5l0.2,0.4
		h-0.5l0.2,0.4h-0.5l0.2,0.4h-0.5l0.2,0.4h-0.5l0.2,0.4h-0.5l0.2,0.4h-0.5l0.2,0.4h-0.5l0.2,0.4h-0.5l0.2,0.4h-0.5l0.2,0.4h-0.5
		l0.2,0.4h-0.5l0.2,0.4h-0.5l0.2,0.4h-0.5l0.2,0.4h-0.5l0.2,0.4h-0.5l0.2,0.4h-0.5l0.2,0.4h-0.5l0.2,0.4h-0.5l0.2,0.4H713l0.2,0.4
		h-0.5l0.2,0.4h-0.5l0.2,0.4h-0.5l0.2,0.4H712l0.2,0.4h-0.5l0.2,0.4h-0.5l0.2,0.4h-0.5l0.2,0.4H711l0.2,0.4h-0.5l0.2,0.4h-0.5
		l0.2,0.4h-0.5l0.2,0.4H710l0.2,0.4h-0.5l0.2,0.4h-0.5l0.2,0.4h-0.5l0.2,0.4H709l0.2,0.4h-0.5l29.2,58.7l-0.1,0.2l0,0l-0.2,0.4l0,0
		l-0.2,0.4l0,0l-0.2,0.4l0,0l-0.2,0.4l0,0l-0.2,0.4l0,0l-64.8,142.1h-92.1c0-28.5-23.1-51.7-51.7-51.7h-1.5h-1.5h-1.5h-1.5h-1.5
		h-1.5h-1.5H516h-1.5h-1.2h-0.3h-1.2h-0.3h-1.2h-0.3h-1.2h-0.3h-1.2h-0.3h-1.2h-0.3h-1.2h-0.3h-1.2h-0.3H501h-0.3h-1.2h-0.3H498
		h-0.3h-1.2h-0.3h-1.2h-0.3h-1.2h-0.3h-1.2h-0.3h-1.2H490h-1.2h-0.3h-1.2H487h-1.2h-0.3h-1.2h-0.3h-1.2h-0.3h-1.2h-0.3h-1.2h-0.3
		h-1.2h-0.3h-1.2h-0.3H475h-0.3h-1.2h-0.3H472h-0.3h-1.2h-0.3h-1.2h-0.3h-1.2h-0.3h-1.2h-0.3h-1.2H464h-1.2h-0.3h-1.2H461h-1.2h-0.3
		h-1.2h-0.3h-1.2h-0.3h-1.2h-0.3h-1.2h-0.3h-1.2h-0.3h-1.2h-0.3H449h-1.5H446h-1.5h-1.5h-1.5h-1.5h-1.5h-1.5h-1.5
		c-28.5,0-51.7,23.1-51.7,51.7H0v326.2h1920V875.9H1654.6z M1665.5,758.4c3.8,2.4,8.9,7.2,8.9,21.1s-5.1,18.8-8.9,21.1
		c-4.5,2.9-9.6,3.4-10.9,3.5v-49.3C1655.9,755,1661,755.6,1665.5,758.4z M751.6,759l58.2,116.9H698.3L751.6,759z"/>
</g>
</svg>
