<?xml version="1.0" encoding="utf-8"?>
<!-- Generator: Adobe Illustrator 25.4.1, SVG Export Plug-In . SVG Version: 6.00 Build 0)  -->
<svg version="1.1" xmlns="http://www.w3.org/2000/svg" xmlns:xlink="http://www.w3.org/1999/xlink" x="0px" y="0px"
	 viewBox="0 0 1920 1080" style="enable-background:new 0 0 1920 1080;" xml:space="preserve">
<style type="text/css">
	.st0{fill:#F4C21B;}
	.st1{fill:none;stroke:#F0F0F0;stroke-width:2;stroke-miterlimit:10;}
	.st2{fill:#F0F0F0;}
	.st3{fill:#BDBEC0;}
	.st4{fill:#67AAC1;}
	.st5{fill:#C89D2C;}
	.st6{opacity:0.5;fill:#F4C21B;}
	.st7{fill:#121217;}
	.st8{fill:#CC3332;}
	.st9{opacity:0.6;}
	.st10{fill:#4DB748;}
	.st11{fill:#2C5EAA;}
	.st12{fill:#F7EB20;}
	.st13{fill:#BBAD31;}
	.st14{fill:#D7C527;}
	.st15{fill:#7C722E;}
	.st16{fill:#8C8131;}
	.st17{fill:#284A9E;}
	.st18{fill:#4A494B;}
	.st19{fill:#405FAA;}
	.st20{fill:#253C96;}
	.st21{fill:#B3A533;}
	.st22{fill:#7589C4;}
	.st23{fill:#F8E200;}
	.st24{fill:#F6EB39;}
	.st25{fill:#F7981D;}
	.st26{fill:#F7BA16;}
	.st27{fill:#ED3324;}
	.st28{fill:#F05623;}
	.st29{fill:#7D3693;}
	.st30{fill:#A61D4C;}
	.st31{fill:#3F5CA9;}
	.st32{fill:#462F90;}
	.st33{fill:#65AE45;}
	.st34{fill:#0D90CC;}
	.st35{fill:#CDDC37;}
	.st36{fill:#F8EC23;}
	.st37{fill:#D0BF2A;}
	.st38{fill:#E3D01E;}
	.st39{fill:#AB9E33;}
	.st40{fill:#B4A532;}
	.st41{fill:#375EAA;}
	.st42{fill:#6F6945;}
	.st43{fill:#3F61AC;}
	.st44{fill:#1F429A;}
	.st45{fill:#A49733;}
	.st46{fill:#647CBC;}
	.st47{fill:#EFDC0E;}
	.st48{fill:#FDF1F6;}
	.st49{fill:#F38D99;}
	.st50{fill:#F6AEBB;}
	.st51{fill:#ED302E;}
	.st52{fill:#EF5054;}
	.st53{fill:#77444A;}
	.st54{fill:#A52525;}
	.st55{fill:#016A6F;}
	.st56{fill:#023F44;}
	.st57{fill:#79A3B0;}
	.st58{fill:#0096A0;}
	.st59{fill:#E1D9EA;}
	.st60{fill:#E7E6E6;}
	.st61{fill:#A4A3A3;}
	.st62{fill:#B9B8B9;}
	.st63{fill:#656666;}
	.st64{fill:#7E7E7E;}
	.st65{fill:#3E3E3D;}
	.st66{fill:#4A4A4A;}
	.st67{fill:#474748;}
	.st68{fill:#262626;}
	.st69{fill:#8B8B8B;}
	.st70{fill:#6D6D6D;}
	.st71{fill:#CBCBCA;}
	.st72{fill:none;stroke:#F4C21B;stroke-width:4;stroke-miterlimit:10;}
	.st73{fill:none;stroke:#121217;stroke-width:2;stroke-miterlimit:10;}
	.st74{fill:#2B2133;}
	.st75{fill:#382E3F;}
	.st76{fill:#F0F0F0;stroke:#231F20;stroke-width:2;stroke-miterlimit:10;}
	.st77{fill:#1B75BB;}
	.st78{fill:none;stroke:#2B2133;stroke-width:2;stroke-miterlimit:10;}
	.st79{fill:#BCBDBF;}
	.st80{fill:#BCBEC0;}
	.st81{fill:#F4C21B;stroke:#BDBEC0;stroke-width:5.000000e-02;stroke-miterlimit:10;}
	.st82{opacity:0.5;fill:#67AAC1;}
	.st83{fill:#A6A8AB;}
	.st84{fill:none;stroke:#F0F0F0;stroke-width:2;}
	.st85{fill:none;stroke:#67AAC1;stroke-miterlimit:10;}
	.st86{fill:none;stroke:#F4C21B;stroke-miterlimit:10;}
	.st87{fill:none;stroke:#9B4B9D;stroke-miterlimit:10;}
	.st88{fill:none;stroke:#67AAC1;stroke-miterlimit:10;stroke-dasharray:1.8204,1.8204;}
	.st89{fill:none;stroke:#67AAC1;stroke-miterlimit:10;stroke-dasharray:1.7244,1.7244;}
	.st90{fill:none;stroke:#67AAC1;stroke-miterlimit:10;stroke-dasharray:2.1232,2.1232;}
	.st91{fill:none;stroke:#67AAC1;stroke-miterlimit:10;stroke-dasharray:1.9585,1.9585;}
	.st92{fill:none;stroke:#67AAC1;stroke-miterlimit:10;stroke-dasharray:2.0187,2.0187;}
	.st93{fill:none;stroke:#67AAC1;stroke-miterlimit:10;stroke-dasharray:2.1809,2.1809;}
	.st94{fill:none;stroke:#67AAC1;stroke-miterlimit:10;stroke-dasharray:1.998,1.998;}
	.st95{fill:none;stroke:#67AAC1;stroke-miterlimit:10;stroke-dasharray:1.9998,1.9998;}
	.st96{fill:none;stroke:#67AAC1;stroke-miterlimit:10;stroke-dasharray:1.9395,1.9395;}
	.st97{fill:none;stroke:#67AAC1;stroke-miterlimit:10;stroke-dasharray:2.0574,2.0574;}
	.st98{fill:none;stroke:#F4C21B;stroke-width:2;stroke-miterlimit:10;}
	.st99{fill:none;stroke:#F4C21B;stroke-width:2;stroke-miterlimit:10;stroke-dasharray:2.0905,2.0905;}
	.st100{fill:none;stroke:#F4C21B;stroke-width:2;stroke-miterlimit:10;stroke-dasharray:1.6689,1.6689;}
	.st101{fill:none;stroke:#F4C21B;stroke-width:2;stroke-miterlimit:10;stroke-dasharray:1.8799,1.8799;}
	.st102{fill:none;stroke:#F4C21B;stroke-width:2;stroke-miterlimit:10;stroke-dasharray:2.0915,2.0915;}
	.st103{fill:none;stroke:#F4C21B;stroke-width:2;stroke-miterlimit:10;stroke-dasharray:1.8571,1.8571;}
	.st104{fill:none;stroke:#F4C21B;stroke-width:2;stroke-miterlimit:10;stroke-dasharray:1.9608,1.9608;}
	.st105{fill:none;stroke:#F4C21B;stroke-width:2;stroke-miterlimit:10;stroke-dasharray:1.8946,1.8946;}
	.st106{fill:none;stroke:#9B4B9D;stroke-width:1.5;stroke-miterlimit:10;}
	.st107{fill:none;stroke:#9B4B9D;stroke-width:1.5;stroke-miterlimit:10;stroke-dasharray:1.8443,1.8443;}
	.st108{fill:none;stroke:#9B4B9D;stroke-width:1.5;stroke-miterlimit:10;stroke-dasharray:1.5715,1.5715;}
	.st109{fill:none;stroke:#9B4B9D;stroke-width:1.5;stroke-miterlimit:10;stroke-dasharray:1.9991,1.9991;}
	.st110{fill:none;stroke:#9B4B9D;stroke-width:1.5;stroke-miterlimit:10;stroke-dasharray:1.9831,1.9831;}
	.st111{fill:none;stroke:#9B4B9D;stroke-width:1.5;stroke-miterlimit:10;stroke-dasharray:2.009,2.009;}
	.st112{fill:#9B4B9D;}
	.st113{fill:#B86BAC;}
	.st114{fill:#1D1C54;}
	.st115{fill:url(#bg1_00000106835576433397301880000018228114427215220132_);}
	.st116{fill:none;stroke:#382E3F;stroke-width:20;stroke-miterlimit:10;}
	.st117{fill:none;stroke:#2B2133;stroke-width:40;stroke-miterlimit:10;}
	.st118{fill:none;stroke:#2B2133;stroke-width:20;stroke-miterlimit:10;}
	.st119{display:none;fill:url(#bg1_00000059995518929161073620000006554296915470305707_);}
	.st120{display:none;}
	.st121{display:inline;}
	.st122{display:none;fill:#2B2133;}
</style>
<g id="Layer_1">
	<g id="Layer_3">
	</g>
</g>
<g id="Layer_2">
</g>
<g id="desk_bg">
	
		<linearGradient id="bg1_00000058559864373039041000000011777008972193784459_" gradientUnits="userSpaceOnUse" x1="960" y1="0" x2="960" y2="1080">
		<stop  offset="0" style="stop-color:#F4C21B"/>
		<stop  offset="1" style="stop-color:#F15A29"/>
	</linearGradient>
	
		<rect id="bg1_00000026843344642299593040000012670136946662713224_" style="display:none;fill:url(#bg1_00000058559864373039041000000011777008972193784459_);" width="1920" height="1080"/>
	<g id="bg2_00000077295425772611534900000005179477332811090305_" class="st120">
		<g class="st121">
			<path class="st74" d="M222.1,236c-2.8-3-4.2-7.2-4.2-12.4v-47.3h27v42.1c0,1.5,0.3,2.6,1,3.3c0.7,0.7,1.8,1,3.4,1h3.7v17.8h-19
				C228.9,240.6,224.9,239.1,222.1,236z"/>
			<path class="st74" d="M279.3,241.1c-5.4-0.9-9.7-2.2-12.9-3.8v-19.7c3.4,1.9,7.3,3.6,11.9,4.9c4.6,1.4,8.6,2,11.9,2
				c5.4,0,8.2-0.8,8.2-2.4c0-0.6-0.6-1.2-1.9-1.7c-1.2-0.5-3.5-1.3-6.9-2.5l-5.4-1.7c-6.8-2.2-11.6-4.9-14.5-7.9
				c-2.9-3-4.3-7.2-4.3-12.6c0-6.8,2.7-12,8-15.7c5.4-3.6,12.6-5.5,21.7-5.5c5.3,0,10.4,0.5,15.4,1.4c5,1,8.9,2.2,11.7,3.7v19.7
				c-2.5-1.8-5.7-3.2-9.7-4.4c-4-1.2-7.7-1.8-11-1.8c-5.4,0-8.2,0.8-8.2,2.5c0,1,0.8,1.8,2.4,2.4c1.6,0.6,4,1.4,7.2,2.2l4.9,1.4
				c5,1.6,8.9,3.3,11.5,5.2c2.6,1.9,4.5,4.1,5.5,6.5c1,2.5,1.5,5.6,1.5,9.2c0,6.3-2.6,11.2-7.8,14.6c-5.2,3.4-13.1,5.1-23.6,5.1
				C289.9,242.4,284.7,242,279.3,241.1z"/>
			<path class="st74" d="M262.8,154.1h19.4v-12.2h18.4v12.2h4.9v-12.2h18.4v28.8h-61.1V154.1z"/>
			<path class="st74" d="M299.2,119.2h24.6v18.5h-24.6V119.2z"/>
			<path class="st74" d="M354.1,240.8c-6-1-10.9-2.3-14.7-3.8v-34.2h34.9v14.9h-9.4v3.5c0.6,0.2,1.5,0.3,2.9,0.5
				c1.4,0.2,2.7,0.3,3.9,0.3c4.2,0,7.3-1.2,9.4-3.5c2.1-2.3,3.1-5.7,3.1-10.1c0-8.7-6.9-13.1-20.8-13.1c-4.1,0-8.2,0.4-12.3,1.1
				c-4.1,0.8-7.7,1.8-10.7,3.1V179c3.4-1.4,7.8-2.4,13-3.2c5.2-0.8,10.5-1.2,16-1.2c8.5,0,15.9,1.4,22.4,4.1
				c6.4,2.7,11.5,6.6,15.1,11.7c3.6,5.1,5.4,11.1,5.4,18.1c0,7-1.6,13.1-4.8,18.2c-3.2,5.1-7.8,9-13.9,11.7
				c-6.1,2.7-13.3,4.1-21.7,4.1C365.9,242.4,360,241.9,354.1,240.8z"/>
			<path class="st74" d="M425.1,184.4h26.3l10,37.2c3.4,0,6-1.4,7.9-4.3c1.9-2.8,2.8-6.8,2.8-11.8c0-3.4-0.7-6-2-7.7
				c-1.3-1.7-3.1-2.5-5.5-2.5c-2,0-4,0.4-6.1,1.3v-20c1.6-0.6,3.6-1.1,6-1.5c2.4-0.4,4.7-0.5,7-0.5c10.1,0,17.4,2.6,21.8,7.9
				c4.5,5.2,6.7,12.9,6.7,23.1c0,7.3-1.7,13.6-5,18.8c-3.3,5.3-7.7,9.3-13.3,12.1c-5.5,2.8-11.6,4.1-18.1,4.1h-22.9L425.1,184.4z"/>
			<path class="st74" d="M519.6,236c-2.8-3-4.2-7.2-4.2-12.4v-47.3h27v42.1c0,1.5,0.3,2.6,1,3.3c0.7,0.7,1.8,1,3.4,1h3.7v17.8h-19
				C526.4,240.6,522.4,239.1,519.6,236z"/>
			<path class="st74" d="M569.6,237.1c-4.5-3.6-6.7-8.9-6.7-15.9c0-7,2.4-12.5,7.1-16.4c4.7-3.9,11.2-5.9,19.3-5.9
				c3.1,0,6.5,0.3,10.1,0.9c3.6,0.6,6.6,1.4,8.9,2.3V201c0-2.2-1.4-4-4.2-5.4c-2.8-1.4-6.6-2-11.4-2c-4,0-8,0.4-12.1,1.3
				c-4,0.8-7.6,2-10.6,3.5v-19c2.8-1.4,6.9-2.6,12.2-3.5c5.4-0.9,11-1.3,16.9-1.3c12.1,0,21.1,2.4,27.1,7.2s9,11.4,9,19.8v39h-27
				v-21.4c-1.3-0.7-2.9-1.3-5-1.8c-2-0.5-3.9-0.7-5.7-0.7c-2.2,0-3.9,0.4-5,1.2c-1.1,0.8-1.7,2.1-1.7,4c0,1.5,0.5,2.6,1.6,3.2
				c1,0.6,2.6,1,4.6,1c1.9,0,3.8-0.4,5.6-1.1v15.5c-3.8,1.3-8.6,1.9-14.6,1.9C580.2,242.4,574.1,240.6,569.6,237.1z"/>
			<path class="st74" d="M580.9,166.9c-3.2-2.8-4.8-6.5-4.8-11.2c0-6.2,1.8-10.8,5.3-13.9c3.5-3.1,8.3-4.6,14.4-4.6h33v13.2h-31.2
				c-2.9,0-4.3,1.1-4.3,3.2c0,1.1,0.3,2,1,2.5c0.6,0.6,1.5,0.8,2.6,0.8c2.6,0,3.8-1.4,3.8-4.3h13.2c0,1.4,0.4,2.4,1.3,3
				c0.8,0.6,2.1,0.8,3.7,0.8h7.9v14h-7.6c-2.9,0-5.4-0.4-7.7-1.3c-2.2-0.9-3.8-2-4.6-3.5c-0.9,1.5-2.5,2.8-5,3.8
				c-2.4,1-5.1,1.5-8.1,1.5C588.4,171.1,584.1,169.7,580.9,166.9z"/>
			<path class="st74" d="M656.1,204.7l-6.1-10.9c5-6.2,10.9-10.9,17.5-14.2c6.6-3.3,14-5,22.2-5c11.4,0,20.1,2.4,26.3,7.3
				c6.2,4.9,9.2,11.6,9.2,20.2v38.5h-27v-36.5c0-5.8-2.9-8.6-8.6-8.6c-4.1,0-7.6,0.9-10.6,2.6l4.1,7.3v35.2h-27V204.7z"/>
			<path class="st74" d="M749.5,235.1c-4.3-4.9-6.5-11.2-6.5-18.8v-39.8h27v38c0,2.2,0.6,4,1.9,5.2c1.2,1.2,3,1.9,5.3,1.9
				c2.3,0,4.1-0.4,5.5-1.3c1.3-0.9,2.4-2.2,3.3-4.1v-39.7h27v64.2h-25.4v-5.4c-2.2,2.2-5.1,3.9-8.6,5.2c-3.5,1.3-7.2,2-11,2
				C759.9,242.4,753.8,240,749.5,235.1z"/>
			<path class="st74" d="M778.3,162.6c0-1.4-0.7-2-2-2h-6v-17.8H785c6.4,0,9.6,2.8,9.6,8.3v3h22.9v16.6h-39.2V162.6z"/>
			<path class="st74" d="M843,240.8c-6-1-10.9-2.3-14.7-3.8v-34.2h34.9v14.9h-9.4v3.5c0.6,0.2,1.5,0.3,2.9,0.5
				c1.4,0.2,2.7,0.3,3.9,0.3c4.2,0,7.3-1.2,9.4-3.5c2.1-2.3,3.1-5.7,3.1-10.1c0-8.7-6.9-13.1-20.8-13.1c-4.1,0-8.2,0.4-12.3,1.1
				c-4.1,0.8-7.7,1.8-10.7,3.1V179c3.4-1.4,7.8-2.4,13-3.2c5.2-0.8,10.5-1.2,16-1.2c8.5,0,15.9,1.4,22.4,4.1
				c6.4,2.7,11.5,6.6,15.1,11.7c3.6,5.1,5.4,11.1,5.4,18.1c0,7-1.6,13.1-4.8,18.2c-3.2,5.1-7.8,9-13.9,11.7
				c-6.1,2.7-13.3,4.1-21.7,4.1C854.9,242.4,849,241.9,843,240.8z"/>
			<path class="st74" d="M924,237.2c-6.6-3.5-9.9-8.8-9.9-16c0-2.9,0.5-5.3,1.6-7.4s2.8-3.8,5.1-5.2c-1.9-1.4-3.5-3.4-4.7-5.9
				c-1.2-2.5-1.8-5-1.8-7.7c0-6.2,2.2-11.1,6.5-14.8c4.4-3.7,11.3-5.6,20.8-5.6c2.5,0,5.2,0.2,8,0.6c2.9,0.4,5,0.8,6.2,1.3v18.7
				c-1.2-0.6-2.5-1.1-4-1.5c-1.5-0.4-2.9-0.5-4.1-0.5c-3.7,0-5.5,1.3-5.5,4c0,2.6,1.8,4,5.5,4h8.2V216h-7.1c-4.5,0-6.7,1.3-6.7,3.8
				c0,3.1,3,4.7,9,4.7c3.6,0,6.3-0.8,8-2.4c1.7-1.6,2.6-4,2.6-7.3v-38.6h27v38.6c0,4.6-1.3,9.1-3.8,13.3c-2.6,4.2-6.6,7.6-12.2,10.3
				c-5.6,2.7-12.8,4-21.5,4C939.6,242.4,930.6,240.7,924,237.2z"/>
			<path class="st74" d="M1006.5,176.4h25.4v5.4c2.4-2.2,5.4-4,8.9-5.3c3.6-1.3,7.1-1.9,10.7-1.9c8.4,0,14.6,2.1,18.7,6.3
				s6.1,10,6.1,17.5v42.2h-27v-38.3c0-2.2-0.6-3.9-1.7-5.1c-1.1-1.2-2.7-1.7-4.8-1.7c-2.1,0-3.9,0.5-5.6,1.4c-1.6,0.9-2.9,2.3-3.9,4
				v39.7h-27V176.4z"/>
			<path class="st74" d="M1015.2,154.1h36.5v-12.2h24.6v28.8h-61.1V154.1z"/>
			<path class="st74" d="M1051.6,119.2h24.6v18.5h-24.6V119.2z"/>
			<path class="st74" d="M1101.4,236c-2.8-3-4.2-7.2-4.2-12.4v-35.8c0-9,2.3-15.6,7-19.8h-17.8v-17.8h50.2v15.5
				c-4.5,1.7-7.7,4.4-9.5,8.1c-1.9,3.7-2.8,8.3-2.8,13.7v30.8c0,1.5,0.3,2.6,1,3.3c0.7,0.7,1.8,1,3.4,1h4.9v17.8h-20.2
				C1108.2,240.6,1104.2,239.1,1101.4,236z"/>
			<path class="st74" d="M1182.4,240.4c-3.5-1.3-6.4-3.1-8.6-5.2v5.4h-25.4v-64.2h27v39.7c0.9,1.8,2,3.2,3.3,4.1
				c1.3,0.9,3.1,1.3,5.5,1.3c2.3,0,4.1-0.6,5.3-1.9c1.2-1.2,1.9-3,1.9-5.2v-38h27v39.8c0,7.7-2.2,14-6.5,18.8
				c-4.3,4.9-10.4,7.3-18.4,7.3C1189.6,242.4,1185.9,241.7,1182.4,240.4z"/>
			<path class="st74" d="M1191,147.4h27v23.3h-27V147.4z"/>
			<path class="st74" d="M1240.2,236c-2.8-3-4.2-7.2-4.2-12.4v-47.3h27v42.1c0,1.5,0.3,2.6,1,3.3c0.7,0.7,1.8,1,3.4,1h3.7v17.8h-19
				C1247,240.6,1243,239.1,1240.2,236z"/>
			<path class="st74" d="M1290.2,237.1c-4.5-3.6-6.7-8.9-6.7-15.9c0-7,2.4-12.5,7.1-16.4c4.7-3.9,11.2-5.9,19.3-5.9
				c3.1,0,6.5,0.3,10.1,0.9c3.6,0.6,6.6,1.4,8.9,2.3V201c0-2.2-1.4-4-4.2-5.4c-2.8-1.4-6.6-2-11.4-2c-4,0-8,0.4-12.1,1.3
				c-4,0.8-7.6,2-10.6,3.5v-19c2.8-1.4,6.9-2.6,12.2-3.5c5.4-0.9,11-1.3,16.9-1.3c12.1,0,21.1,2.4,27.1,7.2s9,11.4,9,19.8v39h-27
				v-21.4c-1.3-0.7-2.9-1.3-5-1.8c-2-0.5-3.9-0.7-5.7-0.7c-2.2,0-3.9,0.4-5,1.2c-1.1,0.8-1.7,2.1-1.7,4c0,1.5,0.5,2.6,1.6,3.2
				c1,0.6,2.6,1,4.6,1c1.9,0,3.8-0.4,5.6-1.1v15.5c-3.8,1.3-8.6,1.9-14.6,1.9C1300.8,242.4,1294.7,240.6,1290.2,237.1z"/>
			<path class="st74" d="M1301.5,166.9c-3.2-2.8-4.8-6.5-4.8-11.2c0-6.2,1.8-10.8,5.3-13.9c3.5-3.1,8.3-4.6,14.4-4.6h33v13.2h-31.2
				c-2.9,0-4.3,1.1-4.3,3.2c0,1.1,0.3,2,1,2.5c0.6,0.6,1.5,0.8,2.6,0.8c2.6,0,3.8-1.4,3.8-4.3h13.2c0,1.4,0.4,2.4,1.3,3
				c0.8,0.6,2.1,0.8,3.7,0.8h7.9v14h-7.6c-2.9,0-5.4-0.4-7.7-1.3c-2.2-0.9-3.8-2-4.6-3.5c-0.9,1.5-2.5,2.8-5,3.8
				c-2.4,1-5.1,1.5-8.1,1.5C1309,171.1,1304.7,169.7,1301.5,166.9z"/>
			<path class="st74" d="M1376.8,204.7l-6.1-10.9c5-6.2,10.9-10.9,17.5-14.2c6.6-3.3,14-5,22.2-5c11.4,0,20.1,2.4,26.3,7.3
				c6.2,4.9,9.2,11.6,9.2,20.2v38.5h-27v-36.5c0-5.8-2.9-8.6-8.6-8.6c-4.1,0-7.6,0.9-10.6,2.6l4.1,7.3v35.2h-27V204.7z"/>
			<path class="st74" d="M222.3,357.1c-4.5-3.6-6.7-8.9-6.7-15.9c0-7,2.4-12.5,7.1-16.4c4.7-3.9,11.2-5.9,19.3-5.9
				c3.1,0,6.5,0.3,10.1,0.9c3.6,0.6,6.6,1.4,8.9,2.3V321c0-2.2-1.4-4-4.2-5.4c-2.8-1.4-6.6-2-11.4-2c-4,0-8,0.4-12.1,1.3
				c-4,0.8-7.6,2-10.6,3.5v-19c2.8-1.4,6.8-2.6,12.1-3.5c5.2-0.9,10.8-1.3,16.7-1.3c3.7,0,7.1,0.4,10.3,1.3l3.1-4.3h28.7l-11.8,13.9
				c2.3,1.8,3.9,4.1,4.8,6.8c0.9,2.7,1.3,5.8,1.3,9.3v39h-27v-21.4c-1.3-0.7-2.9-1.3-5-1.8c-2-0.5-3.9-0.7-5.7-0.7
				c-2.2,0-3.9,0.4-5,1.2c-1.1,0.8-1.7,2.1-1.7,4c0,1.5,0.5,2.6,1.6,3.2c1,0.6,2.6,1,4.6,1c1.9,0,3.8-0.4,5.6-1.1v15.5
				c-3.8,1.3-8.6,1.9-14.6,1.9C232.9,362.4,226.7,360.6,222.3,357.1z"/>
			<path class="st74" d="M268.3,290.3c-2.5-1.4-4.4-3.4-5.9-5.8c-1.4-2.4-2.2-5.1-2.2-8s0.7-5.6,2.2-8c1.4-2.5,3.4-4.4,5.9-5.9
				c2.5-1.4,5.2-2.2,8-2.2s5.5,0.7,8,2.2c2.4,1.4,4.4,3.4,5.8,5.9c1.4,2.5,2.2,5.2,2.2,8s-0.7,5.5-2.2,8c-1.4,2.4-3.4,4.4-5.8,5.8
				c-2.4,1.4-5.1,2.2-8,2.2S270.8,291.7,268.3,290.3z M279.1,279.5c0.8-0.8,1.2-1.8,1.2-2.9c0-1.1-0.4-2.1-1.1-2.9
				c-0.8-0.8-1.7-1.2-2.8-1.2c-1.1,0-2.1,0.4-2.8,1.2c-0.8,0.8-1.1,1.8-1.1,2.9c0,1.1,0.4,2.1,1.1,2.9c0.8,0.8,1.7,1.2,2.8,1.2
				C277.4,280.7,278.3,280.3,279.1,279.5z"/>
			<path class="st74" d="M324.3,323.9c0-2.6-0.7-4.6-2.1-6.1c-1.4-1.5-3.6-2.3-6.7-2.3c-3.6,0-7,0.9-10.1,2.6v-19.9
				c1.8-1,4.4-1.8,7.9-2.5c3.5-0.7,6.8-1.1,9.7-1.1c9,0,16,2.3,20.9,6.8c4.9,4.5,7.3,11.2,7.3,20v39.2h-27V323.9z"/>
			<path class="st74" d="M371.5,296.4h27v15.2l14.3-15.2h30.5l-15.8,17c5.6,2,9.4,4.7,11.5,8c2.1,3.3,3.1,7.9,3.1,13.7v25.4h-27
				v-22.4c0-2.5-0.3-4.3-1-5.4c-0.7-1.1-2-2-3.9-2.5l-11.6,11.2v19.2h-27V296.4z"/>
			<path class="st74" d="M473.8,361.1c-5.4-0.9-9.7-2.2-12.9-3.8v-19.7c3.4,1.9,7.3,3.6,11.9,4.9c4.6,1.4,8.6,2,11.9,2
				c5.4,0,8.2-0.8,8.2-2.4c0-0.6-0.6-1.2-1.9-1.7c-1.2-0.5-3.5-1.3-6.9-2.5l-5.4-1.7c-6.8-2.2-11.6-4.9-14.5-7.9
				c-2.9-3-4.3-7.2-4.3-12.6c0-6.8,2.7-12,8-15.7c5.4-3.6,12.6-5.5,21.7-5.5c5.3,0,10.4,0.5,15.4,1.4c5,1,8.9,2.2,11.7,3.7v19.7
				c-2.5-1.8-5.7-3.2-9.7-4.4c-4-1.2-7.7-1.8-11-1.8c-5.4,0-8.2,0.8-8.2,2.5c0,1,0.8,1.8,2.4,2.4c1.6,0.6,4,1.4,7.2,2.2l4.9,1.4
				c5,1.6,8.9,3.3,11.5,5.2c2.6,1.9,4.5,4.1,5.5,6.5c1,2.5,1.5,5.6,1.5,9.2c0,6.3-2.6,11.2-7.8,14.6c-5.2,3.4-13.1,5.1-23.6,5.1
				C484.5,362.4,479.2,362,473.8,361.1z"/>
			<path class="st74" d="M482.7,287.6c-2.3-2-3.5-4.9-3.5-8.6v-14.4h24v7.2c0,0.7,0.2,1.3,0.7,1.7c0.4,0.4,1.1,0.6,1.9,0.6h23.8
				v16.6H493C488.4,290.6,485,289.6,482.7,287.6z"/>
			<path class="st74" d="M555.9,358.7c-5.4-2.4-9.6-5.8-12.6-10.1c-3-4.3-4.4-9.2-4.4-14.7v-37.6h27v34.4c0,3.7,0.7,6.4,2,8.1
				c1.3,1.7,3.7,2.6,7,2.6c3.3,0,5.6-0.9,7-2.6c1.4-1.7,2-4.4,2-8.1v-34.4h27V334c0,5.5-1.5,10.4-4.5,14.7c-3,4.3-7.2,7.6-12.7,10.1
				c-5.4,2.4-11.7,3.7-18.8,3.7C567.6,362.4,561.3,361.2,555.9,358.7z"/>
			<path class="st74" d="M632.8,356c-2.8-3-4.2-7.2-4.2-12.4v-24.2c0-3.5,0.7-6.5,2.1-9c1.4-2.5,3.4-5.1,5.9-7.9
				c0.2-0.3,0.8-1,1.7-2c0.9-1,1.5-2,2-2.9c0.4-0.9,0.7-1.7,0.7-2.4c0-1.8-0.5-3.1-1.4-4c-0.9-0.9-2.5-1.3-4.6-1.3
				c-2.3,0-4.5,0.5-6.6,1.4c-2.1,1-4,2.3-5.6,4v-21c2.7-1.6,6-2.9,9.8-3.8c3.8-0.9,7.9-1.4,12.2-1.4c8.1,0,14.1,1.7,18.1,5
				c4,3.4,6,7.9,6,13.6c0,3-0.6,5.8-1.7,8.2c-1.1,2.4-2.8,5.3-5.2,8.6c-2.2,3.1-3.8,5.8-4.9,8.1c-1.1,2.3-1.6,4.8-1.6,7.6v18.2
				c0,1.5,0.3,2.6,1,3.3c0.7,0.7,1.8,1,3.4,1h4.9v17.8h-20.2C639.6,360.6,635.6,359.1,632.8,356z"/>
			<path class="st74" d="M683.2,322.9c0-9.6,3.3-16.7,9.8-21.4c6.5-4.6,15.4-7,26.6-7c11.2,0,20.1,2.3,26.6,7
				c6.5,4.6,9.8,11.8,9.8,21.4v37.7h-27v-35.4c0-3-0.8-5.3-2.3-7.1c-1.6-1.8-3.9-2.6-7-2.6c-3.1,0-5.5,0.9-7,2.6
				c-1.6,1.8-2.3,4.1-2.3,7.1v3.8c1.8-1.2,4.2-1.8,7.2-1.8h8V345h-9.5c-2.1,0-3.6,0.5-4.4,1.6c-0.9,1-1.3,2.6-1.3,4.7v9.4h-27V322.9
				z"/>
			<path class="st74" d="M787.6,361.1c-5.4-0.9-9.7-2.2-12.9-3.8v-19.7c3.4,1.9,7.3,3.6,11.9,4.9c4.6,1.4,8.6,2,11.9,2
				c5.4,0,8.2-0.8,8.2-2.4c0-0.6-0.6-1.2-1.9-1.7c-1.2-0.5-3.5-1.3-6.9-2.5l-5.4-1.7c-6.8-2.2-11.6-4.9-14.5-7.9
				c-2.9-3-4.3-7.2-4.3-12.6c0-6.8,2.7-12,8-15.7c5.4-3.6,12.6-5.5,21.7-5.5c5.3,0,10.4,0.5,15.4,1.4c5,1,8.9,2.2,11.7,3.7v19.7
				c-2.5-1.8-5.7-3.2-9.7-4.4c-4-1.2-7.7-1.8-11-1.8c-5.4,0-8.2,0.8-8.2,2.5c0,1,0.8,1.8,2.4,2.4c1.6,0.6,4,1.4,7.2,2.2l4.9,1.4
				c5,1.6,8.9,3.3,11.5,5.2c2.6,1.9,4.5,4.1,5.5,6.5c1,2.5,1.5,5.6,1.5,9.2c0,6.3-2.6,11.2-7.8,14.6c-5.2,3.4-13.1,5.1-23.6,5.1
				C798.3,362.4,793,362,787.6,361.1z"/>
			<path class="st74" d="M869.7,358.7c-5.4-2.4-9.6-5.8-12.6-10.1c-3-4.3-4.4-9.2-4.4-14.7v-37.6h27v34.4c0,3.7,0.7,6.4,2,8.1
				c1.3,1.7,3.7,2.6,7,2.6c3.3,0,5.6-0.9,7-2.6c1.4-1.7,2-4.4,2-8.1v-34.4h27V334c0,5.5-1.5,10.4-4.5,14.7c-3,4.3-7.2,7.6-12.7,10.1
				c-5.4,2.4-11.7,3.7-18.8,3.7C881.4,362.4,875.1,361.2,869.7,358.7z"/>
			<path class="st74" d="M958.9,323.9c0-2.6-0.7-4.6-2.1-6.1c-1.4-1.5-3.6-2.3-6.7-2.3c-3.6,0-7,0.9-10.1,2.6v-19.9
				c1.8-1,4.4-1.8,7.9-2.5c3.5-0.7,6.8-1.1,9.7-1.1c9,0,16,2.3,20.9,6.8c4.9,4.5,7.3,11.2,7.3,20v39.2h-27V323.9z"/>
			<path class="st74" d="M1003.8,304.4h26.3l10,37.2c3.4,0,6-1.4,7.9-4.3c1.9-2.8,2.8-6.8,2.8-11.8c0-3.4-0.7-6-2-7.7
				c-1.3-1.7-3.1-2.5-5.5-2.5c-2,0-4,0.4-6.1,1.3v-20c1.6-0.6,3.6-1.1,6-1.5c2.4-0.4,4.7-0.5,7-0.5c10.1,0,17.4,2.6,21.8,7.9
				c4.5,5.2,6.7,12.9,6.7,23.1c0,7.3-1.7,13.6-5,18.8c-3.3,5.3-7.7,9.3-13.3,12.1c-5.5,2.8-11.6,4.1-18.1,4.1h-22.9L1003.8,304.4z"
				/>
			<path class="st74" d="M1096.6,322.9c0-9.6,3.3-16.7,9.8-21.4c6.5-4.6,15.4-7,26.6-7c11.2,0,20.1,2.3,26.6,7
				c6.5,4.6,9.8,11.8,9.8,21.4v37.7h-27v-35.4c0-3-0.8-5.3-2.3-7.1c-1.6-1.8-3.9-2.6-7-2.6c-3.1,0-5.5,0.9-7,2.6
				c-1.6,1.8-2.3,4.1-2.3,7.1v3.8c1.8-1.2,4.2-1.8,7.2-1.8h8V345h-9.5c-2.1,0-3.6,0.5-4.4,1.6c-0.9,1-1.3,2.6-1.3,4.7v9.4h-27V322.9
				z"/>
			<path class="st74" d="M1196.1,355.1c-4.3-4.9-6.5-11.2-6.5-18.8v-39.8h27v38c0,2.2,0.6,4,1.9,5.2c1.2,1.2,3,1.9,5.3,1.9
				c2.3,0,4.1-0.4,5.5-1.3c1.3-0.9,2.4-2.2,3.3-4.1v-39.7h27v64.2h-25.4v-5.4c-2.2,2.2-5.1,3.9-8.6,5.2c-3.5,1.3-7.2,2-11,2
				C1206.5,362.4,1200.4,360,1196.1,355.1z"/>
		</g>
		<g class="st121">
			<path class="st74" d="M221.4,419.9c0-0.9,0.2-1.7,0.7-2.4c0.5-0.7,1.1-1.3,1.9-1.6c-1-0.3-2.2-0.5-3.9-0.6
				c0.1-1.5,0.5-2.8,1.3-3.9s1.8-2,3-2.6c1.3-0.6,2.7-0.9,4.4-0.9c2.4,0,4.3,0.7,5.7,2c1.4,1.3,2.2,3.1,2.2,5.3v13.8h-3.1v-13.5
				c0-1.6-0.5-2.8-1.4-3.7s-2.1-1.4-3.7-1.4c-1.3,0-2.4,0.3-3.4,0.9c-1,0.6-1.7,1.4-2,2.4c0.9,0.1,1.7,0.3,2.4,0.6
				c0.8,0.3,1.4,0.7,1.8,1.2v0.6c-0.9,0.3-1.6,0.7-2.1,1.4c-0.5,0.7-0.8,1.4-0.8,2.3v9.2h-3.1V419.9z"/>
			<path class="st74" d="M252.8,413.6c0-1-0.3-1.8-1-2.4c-0.7-0.6-1.6-0.9-2.7-0.9c-1.2,0-2.2,0.3-2.9,1c-0.7,0.7-1.1,1.6-1.1,2.7
				h-3c0-1.9,0.6-3.4,1.9-4.6c1.2-1.1,2.9-1.7,5.1-1.7c2.1,0,3.7,0.5,4.9,1.5c1.2,1,1.8,2.4,1.8,4.2v15.4h-3.1V413.6z"/>
			<path class="st74" d="M265.6,410.9c-0.4,0.4-0.7,0.9-0.7,1.6c2.7,0.3,5,0.9,6.8,1.8c1.9,0.8,2.8,1.9,2.8,3.1v8.1
				c0,1.1-0.4,2-1.1,2.8c-0.7,0.7-1.7,1.1-2.8,1.1c-1.1,0-2-0.3-2.8-1s-1.1-1.6-1.1-2.6c0-1.1,0.3-2,1-2.7s1.5-1,2.6-1
				c0.3,0,0.7,0.1,1,0.2v-4.4c0-0.7-0.9-1.3-2.7-1.9s-4.2-1.1-7.2-1.5c0-2.1,0.5-3.7,1.4-4.9c0.9-1.1,2.2-1.7,3.8-1.7
				c0.6,0,1.2,0.1,1.7,0.2c0.6,0.1,1.3,0.3,2.3,0.6c1,0.3,1.7,0.5,2,0.5c0.3,0,0.6-0.1,0.8-0.4c0.2-0.2,0.4-0.6,0.5-1l2.3,0.6
				c-0.3,1-0.7,1.8-1.3,2.3c-0.6,0.6-1.2,0.8-1.9,0.8c-0.3,0-0.8-0.1-1.3-0.2c-0.5-0.1-1.1-0.3-1.6-0.4c-0.1,0-0.6-0.2-1.3-0.3
				c-0.7-0.2-1.4-0.3-1.9-0.3C266.5,410.3,266,410.5,265.6,410.9z M271.6,426.8c0.3-0.3,0.5-0.7,0.5-1.2c0-0.5-0.2-0.9-0.5-1.2
				c-0.3-0.3-0.7-0.5-1.2-0.5s-0.9,0.2-1.2,0.5c-0.3,0.3-0.5,0.7-0.5,1.2c0,0.5,0.2,0.9,0.5,1.2c0.3,0.3,0.7,0.5,1.2,0.5
				S271.3,427.1,271.6,426.8z"/>
			<path class="st74" d="M295.8,409.5c1.5,1.1,2.2,2.6,2.2,4.5v10.2c0,1.6-0.7,2.9-2,3.8c-1.3,0.9-3.2,1.4-5.5,1.4s-4.2-0.5-5.5-1.4
				c-1.3-0.9-1.9-2.2-1.9-3.8v-5.8c0-1.1,0.4-2,1.1-2.7c0.7-0.7,1.6-1.1,2.8-1.1s2,0.3,2.8,1c0.7,0.7,1.1,1.5,1.1,2.6s-0.3,2-1,2.6
				c-0.7,0.7-1.5,1-2.6,1c-0.3,0-0.7,0-1-0.1v2.1c0,0.9,0.4,1.7,1.2,2.2s1.9,0.8,3.3,0.8s2.5-0.3,3.2-0.8c0.7-0.5,1.1-1.3,1.1-2.2
				V414c0-1.1-0.5-2-1.4-2.7c-0.9-0.7-2.2-1-3.8-1c-1.5,0-2.8,0.3-3.8,0.9s-1.7,1.5-1.9,2.5h-3c0.2-1.8,1.1-3.3,2.7-4.3
				c1.6-1.1,3.6-1.6,6.1-1.6C292.3,407.8,294.3,408.4,295.8,409.5z M285.8,417.1c-0.3,0.3-0.5,0.7-0.5,1.2c0,0.5,0.2,0.9,0.5,1.2
				s0.7,0.5,1.2,0.5c0.5,0,0.9-0.2,1.2-0.5c0.3-0.3,0.5-0.7,0.5-1.2c0-0.5-0.2-0.9-0.5-1.2c-0.3-0.3-0.7-0.5-1.2-0.5
				C286.5,416.6,286.1,416.8,285.8,417.1z"/>
			<path class="st74" d="M318.7,409.5c1.5,1.1,2.2,2.6,2.2,4.5v10.2c0,1.6-0.7,2.9-2,3.8c-1.3,0.9-3.2,1.4-5.5,1.4s-4.2-0.5-5.5-1.4
				c-1.3-0.9-1.9-2.2-1.9-3.8v-5.8c0-1.1,0.4-2,1.1-2.7c0.7-0.7,1.6-1.1,2.8-1.1s2,0.3,2.8,1c0.7,0.7,1.1,1.5,1.1,2.6s-0.3,2-1,2.6
				c-0.7,0.7-1.5,1-2.6,1c-0.3,0-0.7,0-1-0.1v2.1c0,0.9,0.4,1.7,1.2,2.2s1.9,0.8,3.3,0.8s2.5-0.3,3.2-0.8c0.7-0.5,1.1-1.3,1.1-2.2
				V414c0-1.1-0.5-2-1.4-2.7c-0.9-0.7-2.2-1-3.8-1c-1.5,0-2.8,0.3-3.8,0.9s-1.7,1.5-1.9,2.5h-3c0.2-1.8,1.1-3.3,2.7-4.3
				c1.6-1.1,3.6-1.6,6.1-1.6C315.2,407.8,317.2,408.4,318.7,409.5z M308.7,417.1c-0.3,0.3-0.5,0.7-0.5,1.2c0,0.5,0.2,0.9,0.5,1.2
				s0.7,0.5,1.2,0.5c0.5,0,0.9-0.2,1.2-0.5c0.3-0.3,0.5-0.7,0.5-1.2c0-0.5-0.2-0.9-0.5-1.2c-0.3-0.3-0.7-0.5-1.2-0.5
				C309.4,416.6,309,416.8,308.7,417.1z"/>
			<path class="st74" d="M328.1,419.9c0-0.9,0.2-1.7,0.7-2.4c0.5-0.7,1.1-1.3,1.9-1.6c-1-0.3-2.2-0.5-3.9-0.6
				c0.1-1.5,0.5-2.8,1.3-3.9s1.8-2,3-2.6c1.3-0.6,2.7-0.9,4.4-0.9c2.4,0,4.3,0.7,5.7,2c1.4,1.3,2.2,3.1,2.2,5.3v13.8h-3.1v-13.5
				c0-1.6-0.5-2.8-1.4-3.7s-2.1-1.4-3.7-1.4c-1.3,0-2.4,0.3-3.4,0.9c-1,0.6-1.7,1.4-2,2.4c0.9,0.1,1.7,0.3,2.4,0.6
				c0.8,0.3,1.4,0.7,1.8,1.2v0.6c-0.9,0.3-1.6,0.7-2.1,1.4c-0.5,0.7-0.8,1.4-0.8,2.3v9.2h-3.1V419.9z"/>
			<path class="st74" d="M357.3,423c0.7,0.7,1,1.6,1,2.7c0,1.1-0.4,1.9-1.1,2.6c-0.7,0.7-1.6,1-2.8,1c-1.2,0-2.1-0.4-2.8-1.1
				c-0.7-0.7-1.1-1.6-1.1-2.8v-17.3h3v13.9c0.4-0.1,0.7-0.2,1-0.2C355.8,421.9,356.6,422.3,357.3,423z M355.9,426.8
				c0.3-0.3,0.5-0.7,0.5-1.2c0-0.5-0.2-0.9-0.5-1.2c-0.3-0.3-0.7-0.5-1.2-0.5s-0.9,0.2-1.2,0.5c-0.3,0.3-0.5,0.7-0.5,1.2
				c0,0.5,0.2,0.9,0.5,1.2c0.3,0.3,0.7,0.5,1.2,0.5S355.6,427.1,355.9,426.8z"/>
			<path class="st74" d="M370.2,423c0.7,0.7,1,1.6,1,2.7c0,1.1-0.4,1.9-1.1,2.6c-0.7,0.7-1.6,1-2.8,1c-1.2,0-2.1-0.4-2.8-1.1
				c-0.7-0.7-1.1-1.6-1.1-2.8v-17.3h3v13.9c0.4-0.1,0.7-0.2,1-0.2C368.7,421.9,369.6,422.3,370.2,423z M368.8,426.8
				c0.3-0.3,0.5-0.7,0.5-1.2c0-0.5-0.2-0.9-0.5-1.2c-0.3-0.3-0.7-0.5-1.2-0.5s-0.9,0.2-1.2,0.5c-0.3,0.3-0.5,0.7-0.5,1.2
				c0,0.5,0.2,0.9,0.5,1.2c0.3,0.3,0.7,0.5,1.2,0.5S368.5,427.1,368.8,426.8z"/>
			<path class="st74" d="M394.2,408.2v16.2c0,1.5-0.7,2.7-2,3.6c-1.3,0.9-3.2,1.3-5.5,1.3c-2.4,0-4.2-0.4-5.5-1.3
				c-1.3-0.9-2-2.1-2-3.6V415c-0.4,0.1-0.7,0.2-1,0.2c-1.1,0-1.9-0.3-2.6-1c-0.7-0.7-1-1.6-1-2.7c0-1.1,0.4-1.9,1.1-2.6
				c0.7-0.7,1.6-1,2.7-1c1.2,0,2.1,0.4,2.8,1.1c0.7,0.7,1.1,1.6,1.1,2.8v12.5c0,0.8,0.4,1.5,1.2,2s1.9,0.7,3.3,0.7
				c1.4,0,2.5-0.2,3.3-0.7s1.2-1.1,1.2-2v-15.9H394.2z M377,412.7c0.3,0.3,0.7,0.5,1.2,0.5c0.5,0,0.9-0.2,1.2-0.5s0.5-0.7,0.5-1.2
				s-0.2-0.9-0.5-1.2s-0.7-0.5-1.2-0.5c-0.5,0-0.9,0.2-1.2,0.5s-0.5,0.7-0.5,1.2S376.6,412.4,377,412.7z"/>
			<path class="st74" d="M419.2,408.2v16.2c0,1.5-0.7,2.7-2,3.6c-1.3,0.9-3.2,1.3-5.5,1.3c-2.4,0-4.2-0.4-5.5-1.3
				c-1.3-0.9-2-2.1-2-3.6V415c-0.4,0.1-0.7,0.2-1,0.2c-1.1,0-1.9-0.3-2.6-1c-0.7-0.7-1-1.6-1-2.7c0-1.1,0.4-1.9,1.1-2.6
				c0.7-0.7,1.6-1,2.7-1c1.2,0,2.1,0.4,2.8,1.1c0.7,0.7,1.1,1.6,1.1,2.8v12.5c0,0.8,0.4,1.5,1.2,2s1.9,0.7,3.3,0.7
				c1.4,0,2.5-0.2,3.3-0.7s1.2-1.1,1.2-2v-15.9H419.2z M401.9,412.7c0.3,0.3,0.7,0.5,1.2,0.5c0.5,0,0.9-0.2,1.2-0.5s0.5-0.7,0.5-1.2
				s-0.2-0.9-0.5-1.2s-0.7-0.5-1.2-0.5c-0.5,0-0.9,0.2-1.2,0.5s-0.5,0.7-0.5,1.2S401.6,412.4,401.9,412.7z"/>
			<path class="st74" d="M444.6,412.3v16.7h-3.1v-16.6c0-1.2-0.4-1.8-1.2-1.8c-0.4,0-0.7,0.1-0.9,0.3c-0.2,0.2-0.4,0.5-0.5,0.8
				l-6.6,17.4h-3.2V415c-0.4,0.1-0.7,0.2-1,0.2c-1.1,0-1.9-0.3-2.6-1c-0.7-0.7-1-1.6-1-2.7c0-1.1,0.4-1.9,1.1-2.6
				c0.7-0.7,1.6-1,2.7-1c1.2,0,2.1,0.4,2.8,1.1c0.7,0.7,1.1,1.6,1.1,2.8v9.4c0,1-0.1,2.2-0.3,3.7l1-3.8l3.6-9.9
				c0.8-2.2,2.2-3.2,4.2-3.2C443.3,407.8,444.6,409.3,444.6,412.3z M426.9,412.7c0.3,0.3,0.7,0.5,1.2,0.5c0.5,0,0.9-0.2,1.2-0.5
				s0.5-0.7,0.5-1.2s-0.2-0.9-0.5-1.2s-0.7-0.5-1.2-0.5c-0.5,0-0.9,0.2-1.2,0.5s-0.5,0.7-0.5,1.2S426.6,412.4,426.9,412.7z"/>
			<path class="st74" d="M444.5,405.1c-1.8-0.7-3.8-1.2-6-1.6c-2.3-0.4-4.5-0.6-6.6-0.6c-1.5,0-2.7,0.1-3.8,0.3
				c0.1-2,0.9-3.6,2.3-4.8c1.4-1.2,3.2-1.8,5.5-1.8c2.4,0,4.3,0.7,5.8,2v-4h2.6v8.6C444.3,403.7,444.4,404.3,444.5,405.1z
				 M437.7,401.5c1.5,0.2,2.9,0.6,4,1c-0.6-1.3-1.3-2.3-2.4-2.9c-1-0.6-2.2-1-3.6-1c-1.2,0-2.2,0.2-3.1,0.7
				c-0.9,0.5-1.4,1.1-1.7,1.9c0.5,0,1.2-0.1,2.2-0.1C434.7,401.2,436.2,401.3,437.7,401.5z"/>
			<path class="st74" d="M441.7,385.7h2.5v6.9h-2.5V385.7z"/>
			<path class="st74" d="M465.8,409.7c1.5,1.2,2.3,2.9,2.3,5v14.2H465V415c0-1.4-0.5-2.6-1.5-3.4s-2.3-1.3-4-1.3
				c-1.8,0-3.3,0.5-4.4,1.4c-1.1,0.9-1.6,2.2-1.6,3.8c0,0.5,0.1,1.2,0.2,2c0.1,0.8,0.2,1.3,0.3,1.5c0.1,0.3,0.2,0.7,0.3,1.3
				c0.4-1.8,1-3.2,1.9-4.3c0.9-1.1,2-1.6,3.3-1.6c1.1,0,1.9,0.3,2.5,0.8c0.6,0.6,0.9,1.3,0.9,2.4c0,1-0.3,1.7-0.9,2.4
				c-0.6,0.6-1.4,0.9-2.3,0.9c-0.6,0-1.1-0.1-1.6-0.4s-0.9-0.6-1.2-1.1c-0.5,0.7-0.9,1.7-1.2,2.8c-0.3,1.1-0.5,2.1-0.5,3.1v3.7h-3
				v-5.1c0-0.4-0.1-0.9-0.2-1.5c-0.1-0.6-0.3-1.3-0.5-2c-0.6-2.3-0.9-3.9-0.9-4.9c0-2.3,0.8-4.1,2.4-5.5c1.6-1.4,3.8-2,6.6-2
				C462.2,407.8,464.2,408.4,465.8,409.7z M458.5,416.4c-0.3,0.3-0.4,0.6-0.4,1.1c0,0.5,0.1,0.8,0.4,1.1c0.3,0.3,0.6,0.4,1.1,0.4
				s0.8-0.1,1.1-0.4c0.3-0.3,0.4-0.7,0.4-1.1c0-0.5-0.1-0.8-0.4-1.1c-0.3-0.3-0.6-0.4-1.1-0.4S458.8,416.1,458.5,416.4z"/>
			<path class="st74" d="M477.8,410.9c-0.4,0.4-0.7,0.9-0.7,1.6c2.7,0.3,5,0.9,6.8,1.8c1.9,0.8,2.8,1.9,2.8,3.1v8.1
				c0,1.1-0.4,2-1.1,2.8c-0.7,0.7-1.7,1.1-2.8,1.1c-1.1,0-2-0.3-2.8-1s-1.1-1.6-1.1-2.6c0-1.1,0.3-2,1-2.7s1.5-1,2.6-1
				c0.3,0,0.7,0.1,1,0.2v-4.4c0-0.7-0.9-1.3-2.7-1.9s-4.2-1.1-7.2-1.5c0-2.1,0.5-3.7,1.4-4.9c0.9-1.1,2.2-1.7,3.8-1.7
				c0.6,0,1.2,0.1,1.7,0.2c0.6,0.1,1.3,0.3,2.3,0.6c1,0.3,1.7,0.5,2,0.5c0.3,0,0.6-0.1,0.8-0.4c0.2-0.2,0.4-0.6,0.5-1l2.3,0.6
				c-0.3,1-0.7,1.8-1.3,2.3c-0.6,0.6-1.2,0.8-1.9,0.8c-0.3,0-0.8-0.1-1.3-0.2c-0.5-0.1-1.1-0.3-1.6-0.4c-0.1,0-0.6-0.2-1.3-0.3
				c-0.7-0.2-1.4-0.3-1.9-0.3C478.7,410.3,478.2,410.5,477.8,410.9z M483.8,426.8c0.3-0.3,0.5-0.7,0.5-1.2c0-0.5-0.2-0.9-0.5-1.2
				c-0.3-0.3-0.7-0.5-1.2-0.5s-0.9,0.2-1.2,0.5c-0.3,0.3-0.5,0.7-0.5,1.2c0,0.5,0.2,0.9,0.5,1.2c0.3,0.3,0.7,0.5,1.2,0.5
				S483.5,427.1,483.8,426.8z"/>
			<path class="st74" d="M507.9,409.5c1.5,1.1,2.2,2.6,2.2,4.5v10.2c0,1.6-0.7,2.9-2,3.8c-1.3,0.9-3.2,1.4-5.5,1.4s-4.2-0.5-5.5-1.4
				c-1.3-0.9-1.9-2.2-1.9-3.8v-5.8c0-1.1,0.4-2,1.1-2.7c0.7-0.7,1.6-1.1,2.8-1.1s2,0.3,2.8,1c0.7,0.7,1.1,1.5,1.1,2.6s-0.3,2-1,2.6
				c-0.7,0.7-1.5,1-2.6,1c-0.3,0-0.7,0-1-0.1v2.1c0,0.9,0.4,1.7,1.2,2.2s1.9,0.8,3.3,0.8s2.5-0.3,3.2-0.8c0.7-0.5,1.1-1.3,1.1-2.2
				V414c0-1.1-0.5-2-1.4-2.7c-0.9-0.7-2.2-1-3.8-1c-1.5,0-2.8,0.3-3.8,0.9s-1.7,1.5-1.9,2.5h-3c0.2-1.8,1.1-3.3,2.7-4.3
				c1.6-1.1,3.6-1.6,6.1-1.6C504.5,407.8,506.5,408.4,507.9,409.5z M498,417.1c-0.3,0.3-0.5,0.7-0.5,1.2c0,0.5,0.2,0.9,0.5,1.2
				s0.7,0.5,1.2,0.5c0.5,0,0.9-0.2,1.2-0.5c0.3-0.3,0.5-0.7,0.5-1.2c0-0.5-0.2-0.9-0.5-1.2c-0.3-0.3-0.7-0.5-1.2-0.5
				C498.7,416.6,498.3,416.8,498,417.1z"/>
			<path class="st74" d="M535.2,408.2v16.2c0,1.5-0.7,2.7-2,3.6c-1.3,0.9-3.2,1.3-5.5,1.3c-2.4,0-4.2-0.4-5.5-1.3
				c-1.3-0.9-2-2.1-2-3.6V415c-0.4,0.1-0.7,0.2-1,0.2c-1.1,0-1.9-0.3-2.6-1c-0.7-0.7-1-1.6-1-2.7c0-1.1,0.4-1.9,1.1-2.6
				c0.7-0.7,1.6-1,2.7-1c1.2,0,2.1,0.4,2.8,1.1c0.7,0.7,1.1,1.6,1.1,2.8v12.5c0,0.8,0.4,1.5,1.2,2s1.9,0.7,3.3,0.7
				c1.4,0,2.5-0.2,3.3-0.7s1.2-1.1,1.2-2v-15.9H535.2z M517.9,412.7c0.3,0.3,0.7,0.5,1.2,0.5c0.5,0,0.9-0.2,1.2-0.5s0.5-0.7,0.5-1.2
				s-0.2-0.9-0.5-1.2s-0.7-0.5-1.2-0.5c-0.5,0-0.9,0.2-1.2,0.5s-0.5,0.7-0.5,1.2S517.6,412.4,517.9,412.7z"/>
			<path class="st74" d="M556.3,409.7c1.5,1.2,2.3,2.9,2.3,5v14.2h-3.1V415c0-1.4-0.5-2.6-1.5-3.4s-2.3-1.3-4-1.3
				c-1.8,0-3.3,0.5-4.4,1.4c-1.1,0.9-1.6,2.2-1.6,3.8c0,0.5,0.1,1.2,0.2,2c0.1,0.8,0.2,1.3,0.3,1.5c0.1,0.3,0.2,0.7,0.3,1.3
				c0.4-1.8,1-3.2,1.9-4.3c0.9-1.1,2-1.6,3.3-1.6c1.1,0,1.9,0.3,2.5,0.8c0.6,0.6,0.9,1.3,0.9,2.4c0,1-0.3,1.7-0.9,2.4
				c-0.6,0.6-1.4,0.9-2.3,0.9c-0.6,0-1.1-0.1-1.6-0.4s-0.9-0.6-1.2-1.1c-0.5,0.7-0.9,1.7-1.2,2.8c-0.3,1.1-0.5,2.1-0.5,3.1v3.7h-3
				v-5.1c0-0.4-0.1-0.9-0.2-1.5c-0.1-0.6-0.3-1.3-0.5-2c-0.6-2.3-0.9-3.9-0.9-4.9c0-2.3,0.8-4.1,2.4-5.5c1.6-1.4,3.8-2,6.6-2
				C552.7,407.8,554.8,408.4,556.3,409.7z M549.1,416.4c-0.3,0.3-0.4,0.6-0.4,1.1c0,0.5,0.1,0.8,0.4,1.1c0.3,0.3,0.6,0.4,1.1,0.4
				s0.8-0.1,1.1-0.4c0.3-0.3,0.4-0.7,0.4-1.1c0-0.5-0.1-0.8-0.4-1.1c-0.3-0.3-0.6-0.4-1.1-0.4S549.3,416.1,549.1,416.4z"/>
			<path class="st74" d="M579,409.5c1.5,1.1,2.2,2.6,2.2,4.5v14.9h-3v-8.5c0-1.1-0.5-1.9-1.5-2.6s-2.2-0.9-3.5-0.9
				c-1.3,0-2.3,0.3-3.2,0.9c-0.9,0.6-1.3,1.5-1.3,2.5v1.7c0.4-0.1,0.7-0.2,1-0.2c1.1,0,1.9,0.3,2.6,1c0.7,0.7,1,1.6,1,2.7
				c0,1.1-0.4,1.9-1.1,2.6s-1.6,1-2.8,1c-1.2,0-2.1-0.4-2.8-1.1c-0.7-0.7-1.1-1.6-1.1-2.8v-5c0-1.2,0.3-2.2,1-3.1
				c0.6-0.9,1.5-1.5,2.6-2s2.4-0.7,3.7-0.7c1,0,1.9,0.2,2.8,0.5c0.9,0.3,1.7,0.8,2.4,1.5v-2.7c0-1.1-0.5-2-1.4-2.6
				c-0.9-0.6-2.2-1-3.8-1c-1.5,0-2.8,0.3-3.9,0.9c-1,0.6-1.7,1.5-1.9,2.5h-3c0.2-1.8,1-3.3,2.6-4.3c1.6-1.1,3.6-1.6,6.1-1.6
				C575.5,407.8,577.6,408.4,579,409.5z M570.9,424.4c-0.3-0.3-0.7-0.5-1.2-0.5c-0.5,0-0.9,0.2-1.2,0.5c-0.3,0.3-0.5,0.7-0.5,1.2
				c0,0.5,0.2,0.9,0.5,1.2c0.3,0.3,0.7,0.5,1.2,0.5c0.5,0,0.9-0.2,1.2-0.5c0.3-0.3,0.5-0.7,0.5-1.2
				C571.4,425.1,571.3,424.7,570.9,424.4z"/>
			<path class="st74" d="M578.5,436.8c-0.3,0.1-0.6,0.1-1,0.1c-0.9,0-1.6-0.3-2.1-0.8c-0.6-0.6-0.8-1.3-0.8-2.1c0-0.9,0.3-1.6,1-2.1
				c0.6-0.6,1.4-0.8,2.4-0.8c1.1,0,1.9,0.3,2.5,0.8c0.6,0.6,1,1.3,1,2.1v6.8h-2.8V436.8z M578.4,435c0.2-0.2,0.4-0.6,0.4-0.9
				c0-0.4-0.1-0.7-0.4-0.9c-0.2-0.2-0.6-0.4-0.9-0.4c-0.4,0-0.7,0.1-0.9,0.4c-0.2,0.2-0.4,0.6-0.4,0.9c0,0.4,0.1,0.7,0.4,0.9
				c0.2,0.2,0.6,0.4,0.9,0.4C577.8,435.3,578.2,435.2,578.4,435z"/>
			<path class="st74" d="M605.1,408.2v20.7h-2.9c-1-0.9-2.2-1.7-3.5-2.4c-1.3-0.7-2.5-1.2-3.6-1.6c0,0.1,0,0.2,0,0.4
				c0,1.2-0.4,2.1-1.2,2.8c-0.8,0.7-1.7,1.1-2.9,1.1s-2.1-0.4-2.9-1.1c-0.7-0.7-1.1-1.7-1.1-2.8c0-1.1,0.4-2,1.1-2.8
				c0.7-0.7,1.7-1.1,2.9-1.1c0.2,0,0.3,0,0.4,0V415c-0.4,0.1-0.7,0.2-1,0.2c-1.1,0-1.9-0.3-2.6-1c-0.7-0.7-1-1.6-1-2.7
				c0-1.1,0.4-1.9,1.1-2.6c0.7-0.7,1.6-1,2.8-1c1.2,0,2.1,0.4,2.8,1.1c0.7,0.7,1.1,1.6,1.1,2.8v10.5c1.4,0.4,2.7,0.9,4,1.6
				c1.3,0.6,2.4,1.3,3.3,2v-17.5H605.1z M589.5,412.7c0.3,0.3,0.7,0.5,1.2,0.5c0.5,0,0.9-0.2,1.2-0.5s0.5-0.7,0.5-1.2
				s-0.2-0.9-0.5-1.2s-0.7-0.5-1.2-0.5c-0.5,0-0.9,0.2-1.2,0.5c-0.3,0.3-0.5,0.7-0.5,1.2S589.2,412.4,589.5,412.7z M592.4,426.7
				c0.3-0.3,0.5-0.8,0.5-1.3c0-0.5-0.2-0.9-0.5-1.2c-0.3-0.3-0.8-0.5-1.3-0.5c-0.5,0-0.9,0.2-1.2,0.5c-0.3,0.3-0.5,0.7-0.5,1.2
				c0,0.5,0.2,1,0.5,1.3s0.7,0.5,1.2,0.5C591.6,427.2,592.1,427,592.4,426.7z"/>
			<path class="st74" d="M629.3,408.2v20.7h-3.2l-5.4-8l-5.4,8h-3.2v-17.3c0-1.1,0.4-2,1.1-2.8c0.7-0.7,1.7-1.1,2.8-1.1
				c1.1,0,2,0.3,2.8,1c0.7,0.7,1.1,1.6,1.1,2.6c0,1.1-0.3,2-1,2.7c-0.7,0.7-1.5,1-2.6,1c-0.3,0-0.6,0-1-0.1v9.6l4.5-6.4h2.2l4.5,6.4
				v-16.5H629.3z M614.9,410.3c-0.3,0.3-0.5,0.7-0.5,1.2s0.2,0.9,0.5,1.2c0.3,0.3,0.7,0.5,1.2,0.5s0.9-0.2,1.2-0.5
				c0.3-0.3,0.5-0.7,0.5-1.2s-0.2-0.9-0.5-1.2c-0.3-0.3-0.7-0.5-1.2-0.5S615.2,410,614.9,410.3z"/>
			<path class="st74" d="M622,440c-0.7-0.6-1.1-1.4-1.1-2.4v-0.8c-0.4,0.1-0.7,0.1-1,0.1c-0.9,0-1.6-0.3-2.1-0.8
				c-0.5-0.6-0.8-1.3-0.8-2.1c0-0.9,0.3-1.6,0.9-2.1c0.6-0.6,1.3-0.8,2.2-0.8c1,0,1.8,0.3,2.4,0.8c0.6,0.5,1,1.2,1,2v3.8
				c0,0.4,0.1,0.7,0.4,0.9c0.3,0.2,0.7,0.3,1.2,0.3c0.5,0,0.9-0.1,1.2-0.3c0.3-0.2,0.4-0.5,0.4-0.9v-6.4h2.6v6.4
				c0,1-0.4,1.8-1.1,2.4c-0.7,0.6-1.8,0.8-3.2,0.8C623.7,440.9,622.7,440.6,622,440z M620.9,435c0.2-0.2,0.4-0.6,0.4-0.9
				c0-0.4-0.1-0.7-0.4-0.9s-0.6-0.4-0.9-0.4c-0.4,0-0.7,0.1-0.9,0.4s-0.4,0.6-0.4,0.9c0,0.4,0.1,0.7,0.4,0.9s0.6,0.4,0.9,0.4
				C620.4,435.3,620.7,435.2,620.9,435z"/>
			<path class="st74" d="M633.1,394.9c-0.2,1.8-0.9,3.5-2,4.9c-1.1,1.4-2.6,2.5-4.4,3.2c-1.8,0.8-3.8,1.1-6,1.1h-1.4v-1.4
				c0.6-0.2,1.2-0.6,1.8-1s1.1-0.9,1.5-1.4c-0.1,0-0.3,0-0.5,0c-0.9,0-1.6-0.3-2.1-0.8c-0.5-0.5-0.8-1.2-0.8-2.1
				c0-0.8,0.3-1.5,0.9-2.1s1.3-0.8,2.2-0.8s1.7,0.3,2.2,0.9s0.9,1.3,0.9,2.3c0,0.7-0.2,1.5-0.6,2.3c-0.4,0.8-0.9,1.5-1.5,2
				c1.9-0.3,3.5-1.1,4.8-2.4c1.3-1.3,2-2.9,2.2-4.7H633.1z M621.3,398.4c0.3,0.3,0.6,0.4,1,0.4s0.7-0.1,1-0.4c0.3-0.3,0.4-0.6,0.4-1
				s-0.1-0.7-0.4-1c-0.3-0.3-0.6-0.4-1-0.4c-0.4,0-0.7,0.1-1,0.4c-0.2,0.2-0.4,0.6-0.4,1C620.9,397.8,621.1,398.1,621.3,398.4z"/>
			<path class="st74" d="M653.2,408.2v20.7h-2.9c-1-0.9-2.2-1.7-3.5-2.4c-1.3-0.7-2.5-1.2-3.6-1.6c0,0.1,0,0.2,0,0.4
				c0,1.2-0.4,2.1-1.2,2.8c-0.8,0.7-1.7,1.1-2.9,1.1s-2.1-0.4-2.9-1.1c-0.7-0.7-1.1-1.7-1.1-2.8c0-1.1,0.4-2,1.1-2.8
				c0.7-0.7,1.7-1.1,2.9-1.1c0.2,0,0.3,0,0.4,0V415c-0.4,0.1-0.7,0.2-1,0.2c-1.1,0-1.9-0.3-2.6-1c-0.7-0.7-1-1.6-1-2.7
				c0-1.1,0.4-1.9,1.1-2.6c0.7-0.7,1.6-1,2.8-1c1.2,0,2.1,0.4,2.8,1.1c0.7,0.7,1.1,1.6,1.1,2.8v10.5c1.4,0.4,2.7,0.9,4,1.6
				c1.3,0.6,2.4,1.3,3.3,2v-17.5H653.2z M637.5,412.7c0.3,0.3,0.7,0.5,1.2,0.5c0.5,0,0.9-0.2,1.2-0.5s0.5-0.7,0.5-1.2
				s-0.2-0.9-0.5-1.2s-0.7-0.5-1.2-0.5c-0.5,0-0.9,0.2-1.2,0.5c-0.3,0.3-0.5,0.7-0.5,1.2S637.2,412.4,637.5,412.7z M640.4,426.7
				c0.3-0.3,0.5-0.8,0.5-1.3c0-0.5-0.2-0.9-0.5-1.2c-0.3-0.3-0.8-0.5-1.3-0.5c-0.5,0-0.9,0.2-1.2,0.5c-0.3,0.3-0.5,0.7-0.5,1.2
				c0,0.5,0.2,1,0.5,1.3s0.7,0.5,1.2,0.5C639.7,427.2,640.1,427,640.4,426.7z"/>
			<path class="st74" d="M653.4,405.1c-1.8-0.7-3.8-1.2-6-1.6c-2.3-0.4-4.5-0.6-6.6-0.6c-1.5,0-2.7,0.1-3.8,0.3
				c0.1-2,0.9-3.6,2.3-4.8c1.4-1.2,3.2-1.8,5.5-1.8c2.4,0,4.3,0.7,5.8,2v-4h2.6v8.6C653.2,403.7,653.3,404.3,653.4,405.1z
				 M646.6,401.5c1.5,0.2,2.9,0.6,4,1c-0.6-1.3-1.3-2.3-2.4-2.9c-1-0.6-2.2-1-3.6-1c-1.2,0-2.2,0.2-3.1,0.7
				c-0.9,0.5-1.4,1.1-1.7,1.9c0.5,0,1.2-0.1,2.2-0.1C643.6,401.2,645.1,401.3,646.6,401.5z"/>
			<path class="st74" d="M675,409.8c1.4,1.3,2.1,3.1,2.1,5.3v13.8H674v-13.5c0-1.6-0.5-2.8-1.4-3.7c-0.9-0.9-2.2-1.4-3.7-1.4
				c-1.2,0-2.4,0.3-3.3,0.9c-1,0.6-1.6,1.4-2,2.4c0.9,0.1,1.7,0.3,2.5,0.6c0.8,0.3,1.4,0.7,1.8,1.2v0.6c-0.8,0.2-1.4,0.6-1.8,1.2
				c-0.4,0.6-0.6,1.3-0.6,2.1c0,0.5,0.1,1.4,0.3,2.5c0.3,1.5,0.4,2.7,0.4,3.5c0,1.2-0.4,2.1-1.1,2.8c-0.7,0.7-1.7,1.1-2.9,1.1
				c-1.1,0-2-0.3-2.8-1c-0.7-0.7-1.1-1.5-1.1-2.6s0.3-2,1-2.7c0.7-0.7,1.5-1,2.6-1c0.3,0,0.6,0,1,0.1c-0.3-0.9-0.4-1.8-0.4-2.6
				s0.2-1.5,0.5-2.2s0.8-1.2,1.4-1.5c-0.9-0.3-2.2-0.5-3.9-0.6c0.1-1.4,0.5-2.7,1.2-3.8s1.7-2,3-2.6c1.3-0.6,2.7-0.9,4.3-0.9
				C671.6,407.8,673.5,408.5,675,409.8z M663.3,426.8c0.3-0.3,0.5-0.7,0.5-1.2c0-0.5-0.2-0.9-0.5-1.2c-0.3-0.3-0.7-0.5-1.2-0.5
				c-0.5,0-0.9,0.2-1.2,0.5c-0.3,0.3-0.5,0.7-0.5,1.2c0,0.5,0.2,0.9,0.5,1.2c0.3,0.3,0.7,0.5,1.2,0.5
				C662.6,427.3,663,427.1,663.3,426.8z"/>
			<path class="st74" d="M693.3,413.6c0-1-0.3-1.8-1-2.4c-0.7-0.6-1.6-0.9-2.7-0.9c-1.2,0-2.2,0.3-2.9,1c-0.7,0.7-1.1,1.6-1.1,2.7
				h-3c0-1.9,0.6-3.4,1.9-4.6c1.2-1.1,2.9-1.7,5.1-1.7c2.1,0,3.7,0.5,4.9,1.5c1.2,1,1.8,2.4,1.8,4.2v15.4h-3.1V413.6z"/>
			<path class="st74" d="M714.5,409.5c1.3,1.1,2,2.7,2,4.6v11.4c0,1.1-0.4,2-1.1,2.8c-0.7,0.7-1.7,1.1-2.8,1.1c-1.1,0-2-0.3-2.8-1
				s-1.1-1.6-1.1-2.6c0-1.1,0.3-2,1-2.7s1.5-1,2.6-1c0.3,0,0.7,0.1,1,0.2v-7.7c0-1.3-0.4-2.3-1.2-3c-0.8-0.7-1.8-1.1-3.2-1.1
				c-1.2,0-2.3,0.3-3.1,1c-0.9,0.7-1.4,1.6-1.5,2.7h-3.1c0.2-1.9,1-3.4,2.4-4.5c1.4-1.1,3.2-1.7,5.4-1.7
				C711.4,407.8,713.2,408.4,714.5,409.5z M713.7,426.8c0.3-0.3,0.5-0.7,0.5-1.2c0-0.5-0.2-0.9-0.5-1.2c-0.3-0.3-0.7-0.5-1.2-0.5
				s-0.9,0.2-1.2,0.5c-0.3,0.3-0.5,0.7-0.5,1.2c0,0.5,0.2,0.9,0.5,1.2c0.3,0.3,0.7,0.5,1.2,0.5S713.4,427.1,713.7,426.8z"/>
			<path class="st74" d="M726,416.7c-1-0.4-1.9-1-2.5-1.7c-0.6-0.7-0.9-1.5-0.9-2.5c0-1.1,0.4-2,1.1-2.7s1.6-1.1,2.7-1.1
				c1.1,0,1.9,0.4,2.7,1.1c0.7,0.7,1.1,1.6,1.1,2.7c0,1-0.4,1.8-1.2,2.4c0.1,0,0.3,0,0.5,0c1.7,0,3.1-0.6,4-1.7
				c0.9-1.1,1.4-2.7,1.5-4.6h3c0,1.7-0.4,3.1-1.1,4.4c-0.7,1.3-1.6,2.3-2.9,3.1c-1.2,0.7-2.7,1.1-4.5,1.1
				C728.2,417.3,727.1,417.1,726,416.7z M726,427.6c-1-0.4-1.9-1-2.5-1.7s-0.9-1.5-0.9-2.5c0-1.1,0.4-2,1.1-2.7
				c0.7-0.7,1.6-1.1,2.7-1.1c1.1,0,1.9,0.4,2.7,1.1c0.7,0.7,1.1,1.6,1.1,2.7c0,1-0.4,1.8-1.2,2.4c0.1,0,0.3,0,0.5,0
				c1.8-0.1,3.1-0.7,4-1.7c0.9-1.1,1.4-2.6,1.4-4.6h3c0,1.7-0.4,3.1-1.1,4.4c-0.7,1.3-1.6,2.3-2.9,3.1c-1.2,0.7-2.7,1.1-4.5,1.1
				C728.2,428.2,727.1,428,726,427.6z M727.5,413.6c0.3-0.3,0.4-0.7,0.4-1.2c0-0.5-0.1-0.9-0.4-1.2s-0.7-0.4-1.2-0.4
				c-0.5,0-0.9,0.1-1.2,0.4s-0.4,0.7-0.4,1.2c0,0.5,0.1,0.9,0.4,1.2s0.7,0.4,1.2,0.4C726.9,414,727.3,413.8,727.5,413.6z
				 M727.5,424.5c0.3-0.3,0.4-0.7,0.4-1.2c0-0.5-0.1-0.9-0.4-1.2s-0.7-0.5-1.2-0.5c-0.5,0-0.9,0.2-1.2,0.5s-0.4,0.7-0.4,1.2
				c0,0.5,0.1,0.9,0.4,1.2c0.3,0.3,0.7,0.5,1.2,0.5C726.9,425,727.3,424.8,727.5,424.5z"/>
			<path class="st74" d="M759.7,410.1c0.9,1.3,1.4,2.9,1.4,4.8v13.9h-3.1v-13.8c0-1.2-0.2-2.1-0.5-2.9c-0.3-0.7-0.8-1.3-1.5-1.8
				l-3.6,2.7l-3.8-2.8c-0.8,0.5-1.3,1.2-1.7,1.9s-0.5,1.8-0.5,3c0,0.5,0.1,1.1,0.2,1.8c0.1,0.6,0.3,1.5,0.6,2.4
				c0.2,0.9,0.4,1.7,0.6,2.3c0.1,0.6,0.2,1.2,0.2,1.6v1.2c0.4-0.5,0.8-1,1.3-1.5c0.5-0.5,1.3-1.2,2.5-2.2c-0.8-0.1-1.4-0.4-1.9-1
				c-0.5-0.6-0.7-1.3-0.7-2.1c0-0.9,0.3-1.7,0.9-2.3c0.6-0.6,1.4-0.9,2.4-0.9c0.9,0,1.7,0.3,2.3,0.9c0.6,0.6,0.9,1.4,0.9,2.4
				c0,0.9-0.3,1.7-0.9,2.4c-0.6,0.7-1.5,1.7-2.7,2.7c-1.2,1.1-2.2,2.1-2.9,3c-0.7,0.8-1,1.8-1.1,2.8h-3v-5c0-0.5-0.2-1.7-0.7-3.5
				c-0.3-1.1-0.6-2.1-0.7-2.9c-0.2-0.8-0.3-1.5-0.3-2.2c0-1.9,0.5-3.6,1.4-4.9c1-1.4,2.3-2.2,4.1-2.6l3.5,2.8l3.5-2.8
				C757.5,408.1,758.8,408.8,759.7,410.1z M751.3,419c0.3,0.3,0.7,0.4,1.1,0.4c0.5,0,0.8-0.1,1.1-0.4c0.3-0.3,0.4-0.7,0.4-1.1
				c0-0.4-0.1-0.8-0.4-1.1c-0.3-0.3-0.6-0.4-1.1-0.4c-0.5,0-0.8,0.1-1.1,0.4s-0.4,0.6-0.4,1.1C750.8,418.3,751,418.7,751.3,419z"/>
			<path class="st74" d="M777.3,413.6c0-1-0.3-1.8-1-2.4c-0.7-0.6-1.6-0.9-2.7-0.9c-1.2,0-2.2,0.3-2.9,1c-0.7,0.7-1.1,1.6-1.1,2.7
				h-3c0-1.9,0.6-3.4,1.9-4.6c1.2-1.1,2.9-1.7,5.1-1.7c2.1,0,3.7,0.5,4.9,1.5c1.2,1,1.8,2.4,1.8,4.2v15.4h-3.1V413.6z"/>
			<path class="st74" d="M805.3,408.2v16.2c0,1.5-0.7,2.7-2,3.6c-1.3,0.9-3.2,1.3-5.5,1.3c-2.4,0-4.2-0.4-5.5-1.3
				c-1.3-0.9-2-2.1-2-3.6V415c-0.4,0.1-0.7,0.2-1,0.2c-1.1,0-1.9-0.3-2.6-1c-0.7-0.7-1-1.6-1-2.7c0-1.1,0.4-1.9,1.1-2.6
				c0.7-0.7,1.6-1,2.7-1c1.2,0,2.1,0.4,2.8,1.1c0.7,0.7,1.1,1.6,1.1,2.8v12.5c0,0.8,0.4,1.5,1.2,2s1.9,0.7,3.3,0.7
				c1.4,0,2.5-0.2,3.3-0.7s1.2-1.1,1.2-2v-15.9H805.3z M788.1,412.7c0.3,0.3,0.7,0.5,1.2,0.5c0.5,0,0.9-0.2,1.2-0.5s0.5-0.7,0.5-1.2
				s-0.2-0.9-0.5-1.2s-0.7-0.5-1.2-0.5c-0.5,0-0.9,0.2-1.2,0.5s-0.5,0.7-0.5,1.2S787.8,412.4,788.1,412.7z"/>
			<path class="st74" d="M826,409.5c1.5,1.1,2.2,2.6,2.2,4.5v10.2c0,1.6-0.7,2.9-2,3.8c-1.3,0.9-3.2,1.4-5.5,1.4s-4.2-0.5-5.5-1.4
				c-1.3-0.9-1.9-2.2-1.9-3.8v-5.8c0-1.1,0.4-2,1.1-2.7c0.7-0.7,1.6-1.1,2.8-1.1s2,0.3,2.8,1c0.7,0.7,1.1,1.5,1.1,2.6s-0.3,2-1,2.6
				c-0.7,0.7-1.5,1-2.6,1c-0.3,0-0.7,0-1-0.1v2.1c0,0.9,0.4,1.7,1.2,2.2s1.9,0.8,3.3,0.8s2.5-0.3,3.2-0.8c0.7-0.5,1.1-1.3,1.1-2.2
				V414c0-1.1-0.5-2-1.4-2.7c-0.9-0.7-2.2-1-3.8-1c-1.5,0-2.8,0.3-3.8,0.9s-1.7,1.5-1.9,2.5h-3c0.2-1.8,1.1-3.3,2.7-4.3
				c1.6-1.1,3.6-1.6,6.1-1.6C822.5,407.8,824.5,408.4,826,409.5z M816.1,417.1c-0.3,0.3-0.5,0.7-0.5,1.2c0,0.5,0.2,0.9,0.5,1.2
				s0.7,0.5,1.2,0.5c0.5,0,0.9-0.2,1.2-0.5c0.3-0.3,0.5-0.7,0.5-1.2c0-0.5-0.2-0.9-0.5-1.2c-0.3-0.3-0.7-0.5-1.2-0.5
				C816.8,416.6,816.4,416.8,816.1,417.1z"/>
			<path class="st74" d="M849.1,409.8c1.5,1.3,2.2,3.1,2.2,5.3v13.8h-3.1v-13.6c0-1.6-0.5-2.8-1.4-3.7s-2.2-1.3-3.9-1.3
				c-1.2,0-2.3,0.2-3.2,0.7c-0.9,0.5-1.5,1.1-1.9,1.8c-0.4,0.7-0.6,1.5-0.6,2.3c0,0.5,0.1,1.1,0.2,1.7c0.1,0.6,0.3,1.5,0.6,2.5
				c0.2,1,0.4,1.7,0.5,2.3c0.1,0.6,0.2,1.1,0.2,1.6v0.7c0.5-0.7,1.4-1.7,2.8-2.9l0.8-0.8c-0.8-0.1-1.5-0.5-2-1s-0.7-1.3-0.7-2.1
				c0-0.9,0.3-1.7,0.9-2.3c0.6-0.6,1.4-0.9,2.4-0.9c0.9,0,1.7,0.3,2.3,0.9c0.6,0.6,0.9,1.4,0.9,2.4c0,0.9-0.3,1.8-0.8,2.6
				c-0.6,0.8-1.4,1.8-2.6,2.9c-1.2,1.2-2.1,2.2-2.8,3.1c-0.6,0.9-1,1.9-1.1,3h-3v-5c0-0.5-0.2-1.7-0.7-3.5c-0.3-1.2-0.6-2.1-0.7-3
				s-0.3-1.6-0.3-2.2c0-1.3,0.3-2.6,1-3.7c0.7-1.1,1.7-2,3-2.7c1.3-0.7,2.9-1,4.7-1C845.5,407.8,847.6,408.5,849.1,409.8z
				 M841.8,418.4c0.3,0.3,0.7,0.4,1.1,0.4s0.8-0.1,1.1-0.4c0.3-0.3,0.4-0.7,0.4-1.1s-0.1-0.8-0.4-1.1c-0.3-0.3-0.6-0.4-1.1-0.4
				s-0.8,0.1-1.1,0.4c-0.3,0.3-0.4,0.6-0.4,1.1S841.5,418.1,841.8,418.4z"/>
			<path class="st74" d="M872.5,410.2c1,1.1,1.5,2.3,1.5,3.9v14.9h-3v-8.2c0-1.1-0.5-1.9-1.5-2.6s-2.2-0.9-3.5-0.9
				c-1.3,0-2.3,0.3-3.2,0.9c-0.9,0.6-1.3,1.5-1.3,2.5v1.4c0.4-0.1,0.7-0.2,1-0.2c1.1,0,1.9,0.3,2.6,1c0.7,0.7,1,1.6,1,2.7
				c0,1.1-0.4,1.9-1.1,2.6s-1.6,1-2.8,1c-1.2,0-2.1-0.4-2.8-1.1c-0.7-0.7-1.1-1.6-1.1-2.8v-4.8c0-1.5,0.5-2.7,1.5-3.7
				c1-1,2.3-1.6,4-1.9c2-1.4,3.6-2.8,4.8-4.2c-0.9-0.3-1.9-0.5-3-0.5c-1.5,0-2.8,0.3-3.9,0.9c-1,0.6-1.7,1.5-1.9,2.5h-3
				c0.2-1.8,1-3.3,2.6-4.3c1.6-1.1,3.6-1.6,6.1-1.6c1.8,0,3.3,0.3,4.7,0.9c0.6-0.9,1-1.8,1.1-2.6h3.5
				C874.6,407.3,873.8,408.7,872.5,410.2z M863.6,424.4c-0.3-0.3-0.7-0.5-1.2-0.5c-0.5,0-0.9,0.2-1.2,0.5c-0.3,0.3-0.5,0.7-0.5,1.2
				c0,0.5,0.2,0.9,0.5,1.2c0.3,0.3,0.7,0.5,1.2,0.5c0.5,0,0.9-0.2,1.2-0.5c0.3-0.3,0.5-0.7,0.5-1.2
				C864.1,425.1,863.9,424.7,863.6,424.4z M870.9,413.9c0-0.6-0.2-1.2-0.5-1.7c-1.1,1-2.2,1.9-3.5,2.8c1.7,0.2,3,0.8,4,1.8V413.9z"
				/>
			<path class="st74" d="M874.2,405.1c-1.8-0.7-3.8-1.2-6-1.6c-2.3-0.4-4.5-0.6-6.6-0.6c-1.5,0-2.7,0.1-3.8,0.3
				c0.1-2,0.9-3.6,2.3-4.8c1.4-1.2,3.2-1.8,5.5-1.8c2.4,0,4.3,0.7,5.8,2v-4h2.6v8.6C874,403.7,874.1,404.3,874.2,405.1z
				 M867.4,401.5c1.5,0.2,2.9,0.6,4,1c-0.6-1.3-1.3-2.3-2.4-2.9c-1-0.6-2.2-1-3.6-1c-1.2,0-2.2,0.2-3.1,0.7
				c-0.9,0.5-1.4,1.1-1.7,1.9c0.5,0,1.2-0.1,2.2-0.1C864.4,401.2,865.9,401.3,867.4,401.5z"/>
		</g>
	</g>
	<path id="bg3_00000174573932318365047640000014956941893210405285_" class="st75" d="M1461.6,860.4l-29.5-48.4h-92.5v-41.8H1591
		c10.9,0,19.7-8.8,19.7-19.7V490.9c0-10.9-8.8-19.7-19.7-19.7h-581.6c-10.9,0-19.7,8.8-19.7,19.7v259.6c0,10.9,8.8,19.7,19.7,19.7
		h251.5V812h-92.5l-29.5,48.4H574.3v-79.5h-45.6v-50.5h-32.2v-17.7h-8.8c-1.1-14.1-5.3-33.3-18.4-48.1
		c-12.5-14.1-30.3-21.2-52.9-21.2c-11,0-20.4,4.1-27.9,12.1c-21.3,23-21.9,75.2-19,125.4h-6.4v-50.5H261v6.4h-12.7v9.7
		c-16.5,2-41.5,8.4-63.1,28.2c-21.7,20-34.7,48.8-38.9,85.7H0v325.8h1920V860.4H1461.6z M403.1,669c3.6-3.9,7.8-5.7,13.2-5.7
		c16.6,0,29.3,4.8,37.8,14.4c9.1,10.2,12.3,24.1,13.3,34.9h-8.8v17.7h-32.2v50.5h-37C387,736.5,387,686.4,403.1,669z M198.6,789.5
		c16.6-15.4,36.2-20.9,49.7-22.9v7.8H261v6.4h-45.6v79.5h-48.9C170.4,829.5,181.1,805.8,198.6,789.5z"/>
	<path id="bg4_00000098917321031324092190000001666340986604094624_" class="st122" d="M1654.6,954.5v-71.7h0v40
		c2.5,0,15.9-0.4,29.7-8.1c11.2-6.3,30.1-22,30.1-56.5c0-34.5-18.9-50.2-30.1-56.5c-13.8-7.7-27.1-8.1-29.7-8.1v40h0v-59.3
		c0-12.5-10.1-22.6-22.6-22.6h-2.9l33.6-143.5l2.8,0.7l2.5-10.7l-2.8-0.7l2.5-10.7c0,0,3.1-13.3-9.8-16.4c-12.9-3-16,10.3-16,10.3
		l-2.5,10.7l-2.8-0.7l-2.5,10.7l2.8,0.7l-35,149.5h-139.3c-12.5,0-22.6,10.1-22.6,22.6v180.3h-132.4l-0.1-0.2h0.5l-0.2-0.4h0.5
		l-0.2-0.4h0.5l-0.2-0.4h0.5l-0.2-0.4h0.5l-0.2-0.4h0.5l-0.2-0.4h0.5l-0.2-0.4h0.5l-0.2-0.4h0.5l-0.2-0.4h0.5l-0.2-0.4h0.5l-0.2-0.4
		h0.5l-0.2-0.4h0.5l-0.2-0.4h0.5l-0.2-0.4h0.5l-0.2-0.4h0.5l-0.2-0.4h0.5l-0.2-0.4h0.5l-0.2-0.4h0.5l-0.2-0.4h0.5l-0.2-0.4h0.5
		l-0.2-0.4h0.5l-0.2-0.4h0.5l-0.2-0.4h0.5l-0.2-0.4h0.5l-0.2-0.4h0.5l-0.2-0.4h0.5l-0.2-0.4h0.5l-0.2-0.4h0.5l-0.2-0.4h0.5l-0.2-0.4
		h0.5l-0.2-0.4h0.5l-0.2-0.4h0.5l-0.2-0.4h0.5l-0.2-0.4h0.5l-0.2-0.4h0.5l-0.2-0.4h0.5l-104.2-209.2H721.3l0.2,0.4h-0.5l0.2,0.4
		h-0.5l0.2,0.4h-0.5l0.2,0.4h-0.5l0.2,0.4h-0.5l0.2,0.4h-0.5l0.2,0.4h-0.5l0.2,0.4h-0.5l0.2,0.4h-0.5l0.2,0.4h-0.5l0.2,0.4h-0.5
		l0.2,0.4h-0.5l0.2,0.4h-0.5l0.2,0.4h-0.5l0.2,0.4h-0.5l0.2,0.4h-0.5l0.2,0.4h-0.5l0.2,0.4h-0.5l0.2,0.4h-0.5l0.2,0.4h-0.5l0.2,0.4
		h-0.5l0.2,0.4h-0.5l0.2,0.4h-0.5l0.2,0.4h-0.5l0.2,0.4h-0.5l0.2,0.4h-0.5l0.2,0.4h-0.5l0.2,0.4h-0.5l0.2,0.4h-0.5l0.2,0.4h-0.5
		l0.2,0.4h-0.5l0.2,0.4h-0.5l0.2,0.4h-0.5l0.2,0.4H713l0.2,0.4h-0.5l0.2,0.4h-0.5l0.2,0.4h-0.5l0.2,0.4H712l0.2,0.4h-0.5l0.2,0.4
		h-0.5l0.2,0.4h-0.5l0.2,0.4H711l0.2,0.4h-0.5l0.2,0.4h-0.5l0.2,0.4h-0.5l0.2,0.4H710l0.2,0.4h-0.5l0.2,0.4h-0.5l0.2,0.4h-0.5
		l0.2,0.4H709l0.2,0.4h-0.5l29.2,58.7l-0.1,0.2l0,0l-0.2,0.4l0,0l-0.2,0.4l0,0l-0.2,0.4l0,0l-0.2,0.4l0,0l-0.2,0.4l0,0l-64.8,142.1
		h-92.1c0-28.5-23.1-51.7-51.7-51.7h-1.5h-1.5h-1.5h-1.5h-1.5h-1.5h-1.5H516h-1.5h-1.2h-0.3h-1.2h-0.3h-1.2h-0.3h-1.2h-0.3h-1.2
		h-0.3h-1.2h-0.3h-1.2h-0.3h-1.2h-0.3H501h-0.3h-1.2h-0.3H498h-0.3h-1.2h-0.3h-1.2h-0.3h-1.2h-0.3h-1.2h-0.3h-1.2H490h-1.2h-0.3
		h-1.2H487h-1.2h-0.3h-1.2h-0.3h-1.2h-0.3h-1.2h-0.3h-1.2h-0.3h-1.2h-0.3h-1.2h-0.3H475h-0.3h-1.2h-0.3H472h-0.3h-1.2h-0.3h-1.2
		h-0.3h-1.2h-0.3h-1.2h-0.3h-1.2H464h-1.2h-0.3h-1.2H461h-1.2h-0.3h-1.2h-0.3h-1.2h-0.3h-1.2h-0.3h-1.2h-0.3h-1.2h-0.3h-1.2h-0.3
		H449h-1.5H446h-1.5h-1.5h-1.5h-1.5h-1.5h-1.5h-1.5c-28.5,0-51.7,23.1-51.7,51.7H0v326.2h1920V954.5H1654.6z M1665.5,837
		c3.8,2.4,8.9,7.2,8.9,21.1s-5.1,18.8-8.9,21.1c-4.5,2.9-9.6,3.4-10.9,3.5v-49.3C1655.9,833.6,1661,834.1,1665.5,837z M751.6,837.6
		l58.2,116.9H698.3L751.6,837.6z"/>
</g>
<g id="desk_bg_bottom">
</g>
</svg>
